<svg width="40" height="41" viewBox="0 0 40 41" fill="none" xmlns="http://www.w3.org/2000/svg">
<g clip-path="url(#clip0_1101_318294)">
<path d="M15.4167 18.4945C15.4167 16.5643 16.875 14.9747 18.75 14.7674V12.6612H21.25V14.7445H24.1667V17.2445H19.1667C18.4763 17.2445 17.9167 17.8042 17.9167 18.4945C17.9167 19.1849 18.4763 19.7445 19.1667 19.7445H20.8333C22.9044 19.7445 24.5833 21.4234 24.5833 23.4945C24.5833 25.4247 23.125 27.0144 21.25 27.2216V29.3278H18.75V27.2445H15.8333V24.7445H20.8333C21.5237 24.7445 22.0833 24.1849 22.0833 23.4945C22.0833 22.8042 21.5237 22.2445 20.8333 22.2445H19.1667C17.0956 22.2445 15.4167 20.5656 15.4167 18.4945Z" fill="#F4436C"/>
<path fill-rule="evenodd" clip-rule="evenodd" d="M0 5.99451H40V35.9945H10.6667C6.93298 35.9945 5.06614 35.9945 3.64006 35.2679C2.38565 34.6287 1.36578 33.6089 0.726623 32.3544C0 30.9284 0 29.0615 0 25.3278V5.99451ZM20 31.8278C25.9831 31.8278 30.8333 26.9776 30.8333 20.9945C30.8333 15.0114 25.9831 10.1612 20 10.1612C14.0169 10.1612 9.16667 15.0114 9.16667 20.9945C9.16667 26.9776 14.0169 31.8278 20 31.8278Z" fill="#F4436C"/>
</g>
<defs>
<clipPath id="clip0_1101_318294">
<rect width="40" height="40" fill="white" transform="translate(0 0.994507)"/>
</clipPath>
</defs>
</svg>
