<svg width="40" height="40" viewBox="0 0 40 40" fill="none" xmlns="http://www.w3.org/2000/svg">
<path d="M29.9346 3.64755C28.433 3.64664 26.9649 4.09108 25.7159 4.92467C24.4669 5.75827 23.4932 6.94356 22.918 8.33058C22.3428 9.71761 22.1918 11.2442 22.4842 12.7171C22.7766 14.1899 23.4993 15.5429 24.5608 16.605C25.6223 17.667 26.9749 18.3905 28.4477 18.6837C29.9204 18.9769 31.447 18.8268 32.8343 18.2522C34.2217 17.6778 35.4075 16.7047 36.2416 15.4562C37.0759 14.2076 37.5213 12.7397 37.5211 11.2381C37.5217 10.2414 37.3258 9.25448 36.9447 8.33359C36.5637 7.4127 36.005 6.57592 35.3005 5.87103C34.596 5.16612 33.7595 4.60694 32.8387 4.22543C31.9181 3.84392 30.9313 3.64755 29.9346 3.64755ZM29.9346 14.536C29.2821 14.5353 28.6444 14.3413 28.1021 13.9784C27.5599 13.6153 27.1374 13.0997 26.8881 12.4966C26.6388 11.8935 26.5741 11.2301 26.7019 10.5902C26.8296 9.95035 27.1442 9.36268 27.606 8.90164C28.0677 8.44048 28.6558 8.12663 29.2959 7.99972C29.9361 7.87295 30.5994 7.93863 31.2021 8.18877C31.8048 8.43878 32.3199 8.862 32.682 9.4048C33.0442 9.9476 33.2375 10.5855 33.2371 11.2381C33.2356 12.1128 32.8875 12.9511 32.2688 13.5693C31.6502 14.1876 30.8116 14.5352 29.937 14.536" fill="#A50064"/>
<path d="M7.10818 18.8293V8.98747C7.10818 8.41014 7.61696 7.93628 8.24428 7.93628C8.87146 7.93628 9.36808 8.40608 9.37449 8.98172V18.8293H14.0052V8.98747V8.98106C14.0052 8.40608 14.5128 7.93563 15.1366 7.93563C15.7604 7.93563 16.2687 8.40961 16.2687 8.98695V18.8293H20.896V8.98747C20.896 6.0451 18.3131 3.64813 15.1366 3.64813C13.9076 3.64383 12.7066 4.01597 11.6954 4.71448C10.6799 4.01691 9.47627 3.64479 8.24428 3.64754C5.06897 3.64754 2.48438 6.04453 2.48438 8.98695V18.8293H7.10818Z" fill="#A50064"/>
<path d="M29.9363 21.1635C28.4352 21.1628 26.9676 21.6072 25.719 22.4406C24.4705 23.274 23.4971 24.4589 22.922 25.8454C22.3468 27.232 22.1958 28.758 22.4878 30.2303C22.78 31.7027 23.5021 33.0555 24.563 34.1175C25.6239 35.1796 26.9758 35.903 28.4479 36.1968C29.9199 36.4905 31.4462 36.3411 32.8333 35.7674C34.2205 35.1937 35.4064 34.2215 36.2411 32.974C37.0758 31.7263 37.5218 30.2592 37.5227 28.7581C37.5238 27.7612 37.3284 26.7737 36.9476 25.8524C36.5668 24.931 36.0081 24.0937 35.3036 23.3883C34.599 22.683 33.7623 22.1235 32.8413 21.7417C31.9204 21.36 30.9332 21.1635 29.9363 21.1635ZM29.9363 32.0605C29.2823 32.0612 28.6428 31.8677 28.0988 31.5047C27.5547 31.1417 27.1307 30.6255 26.8802 30.0215C26.6297 29.4173 26.5638 28.7525 26.6913 28.111C26.8188 27.4696 27.1336 26.8803 27.5961 26.418C28.0585 25.9555 28.6478 25.6406 29.2892 25.5132C29.9307 25.3858 30.5955 25.4514 31.1996 25.702C31.8037 25.9525 32.3198 26.3766 32.6829 26.9206C33.0458 27.4646 33.2393 28.1041 33.2388 28.7581C33.2373 29.6332 32.8893 30.472 32.2708 31.091C31.6522 31.7099 30.8136 32.0586 29.9385 32.0605" fill="#A50064"/>
<path d="M7.10872 36.347V26.5099C7.10872 25.929 7.6175 25.4574 8.24481 25.4574C8.87213 25.4574 9.36874 25.9261 9.37502 26.5028V36.347H14.0059V26.5099C14.0059 26.5099 14.0059 26.5099 14.0059 26.5052C14.0059 25.9244 14.5135 25.4597 15.1373 25.4597C15.7611 25.4597 16.2692 25.9285 16.2692 26.5121V36.347H20.8965V26.5099C20.8965 23.5663 18.3136 21.1664 15.1373 21.1664C13.9074 21.16 12.7055 21.5336 11.696 22.2363C10.6829 21.5352 9.47916 21.1618 8.24717 21.1664C5.07189 21.1664 2.4873 23.5657 2.4873 26.5099V36.347H7.10872Z" fill="#A50064"/>
</svg>
