<svg width="40" height="41" viewBox="0 0 40 41" fill="none" xmlns="http://www.w3.org/2000/svg">
<g clip-path="url(#clip0_1101_318295)">
<path d="M40 5.99451H0V12.6612H40V5.99451Z" fill="#318CDD"/>
<path fill-rule="evenodd" clip-rule="evenodd" d="M40 17.6612V35.9945H10.6667C6.93298 35.9945 5.06614 35.9945 3.64006 35.2679C2.38565 34.6287 1.36578 33.6089 0.726623 32.3544C0 30.9284 0 29.0615 0 25.3278V17.6612H40ZM29.1667 30.9945C31.0076 30.9945 32.5 29.5021 32.5 27.6612C32.5 25.8202 31.0076 24.3278 29.1667 24.3278C27.3257 24.3278 25.8333 25.8202 25.8333 27.6612C25.8333 29.5021 27.3257 30.9945 29.1667 30.9945ZM32.8327 30.7169C33.6532 29.9559 34.1667 28.8685 34.1667 27.6612C34.1667 26.4538 33.6532 25.3664 32.8327 24.6055C33.2412 24.4269 33.6924 24.3278 34.1667 24.3278C36.0076 24.3278 37.5 25.8202 37.5 27.6612C37.5 29.5021 36.0076 30.9945 34.1667 30.9945C33.6924 30.9945 33.2412 30.8954 32.8327 30.7169ZM20 23.4945H5V25.9945H20V23.4945ZM5 28.4945H15V30.9945H5V28.4945Z" fill="#318CDD"/>
</g>
<defs>
<clipPath id="clip0_1101_318295">
<rect width="40" height="40" fill="white" transform="translate(0 0.994507)"/>
</clipPath>
</defs>
</svg>
