<svg width="40" height="40" viewBox="0 0 40 40" fill="none" xmlns="http://www.w3.org/2000/svg">
<g clip-path="url(#clip0_526_451450)">
<path d="M7.45326 6.56146L36.7781 2.27542C35.1397 0.857517 33.0053 0 30.6754 0H9.32427C4.16705 0 0 4.17674 0 9.32184V30.6674C0 35.2952 3.37553 39.1425 7.79512 39.8676L3.92682 11.3217C3.59728 9.03548 5.20188 6.89246 7.45634 6.56146H7.45326Z" fill="#118ACB"/>
<path d="M36.7782 2.27544L7.45332 6.56148C5.19886 6.89248 3.59426 9.0355 3.9238 11.3217L7.79364 39.8676C8.28796 39.9446 8.80538 40 9.32279 40H30.6755C35.8327 40 39.9997 35.8233 39.9997 30.6782V9.32185C39.9997 6.5076 38.757 3.99047 36.7782 2.27544Z" fill="white"/>
<path d="M36.7776 2.27544L36.6775 2.29699C38.6902 4.05667 39.899 6.65077 39.899 9.32185V30.6351C39.899 35.734 35.7428 39.8892 30.6425 39.8892H9.31141C8.82788 39.8892 8.26734 39.8353 7.77148 39.7583L7.7838 39.8676C8.30122 39.9554 8.79554 40 9.30063 40H30.6194C35.7874 40 39.9868 35.8002 39.9868 30.6351V9.32185C39.9991 6.59535 38.8319 4.05667 36.7776 2.27544Z" fill="#CCCCCC" stroke="#CCCCCC" stroke-width="0.100083"/>
<path d="M24.9154 13.2781C24.7275 13.0918 24.5196 12.9917 24.2224 12.9917C23.8267 12.9917 23.5295 13.1795 23.3539 13.5752C22.9581 13.1025 22.4084 12.8824 21.7154 12.8824C20.8792 12.8824 20.1878 13.2119 19.6057 13.8277C19.0205 14.4866 18.7695 15.2456 18.7695 16.1585C18.7695 17.0699 19.0544 17.8612 19.6042 18.4878C20.1878 19.1483 20.8792 19.4331 21.7154 19.4331C22.4084 19.4331 22.9474 19.2145 23.3539 18.7403C23.5402 19.1375 23.8267 19.3238 24.2224 19.3238C24.5073 19.3238 24.7275 19.2145 24.9154 19.0374C25.1017 18.8619 25.1679 18.6418 25.1679 18.3446V13.8723C25.2003 13.7184 25.0909 13.4643 24.9154 13.2781ZM22.9474 17.3116C22.7272 17.598 22.3976 17.7519 22.0018 17.7519C21.6061 17.7519 21.275 17.6087 21.0563 17.3116C20.8361 17.0268 20.6929 16.6527 20.6929 16.1801C20.6929 15.7398 20.8022 15.378 21.0563 15.0916C21.275 14.8053 21.6061 14.6529 22.0018 14.6529C22.3976 14.6529 22.7256 14.7945 22.9474 15.0916C23.166 15.378 23.3092 15.7505 23.3092 16.1801C23.2769 16.6204 23.166 17.0268 22.9474 17.3116ZM27.3454 19.0928C27.1575 19.2791 26.9496 19.3792 26.6524 19.3792C26.366 19.3792 26.1458 19.2684 25.9595 19.0928C25.7731 18.9066 25.7069 18.6972 25.7069 18.4001V10.3976C25.7069 10.1451 25.7839 9.92496 25.9595 9.70481C26.1458 9.52007 26.3552 9.42 26.6524 9.42C26.9373 9.42 27.1575 9.5293 27.3454 9.70635C27.5302 9.89263 27.5979 10.102 27.5979 10.3991V18.4001C27.5979 18.6972 27.5317 18.9173 27.3454 19.0928ZM33.6345 13.86C33.0185 13.2011 32.2485 12.9147 31.303 12.9147C30.3575 12.9147 29.5983 13.2457 28.9716 13.86C28.3895 14.4758 28.0599 15.2779 28.0599 16.2247C28.0599 17.17 28.3448 17.9274 28.9716 18.5879C29.5552 19.2037 30.3575 19.5332 31.303 19.5332C32.2485 19.5332 33.0077 19.2022 33.6329 18.5879C34.2166 17.9721 34.503 17.17 34.503 16.257C34.5461 15.2779 34.2612 14.4758 33.6345 13.86ZM32.2917 17.3116C32.073 17.598 31.7419 17.7519 31.3461 17.7519C30.9504 17.7519 30.6224 17.6087 30.4006 17.3116C30.1819 17.0268 30.0387 16.6527 30.0387 16.1801C30.0387 15.7398 30.1481 15.378 30.4006 15.0916C30.6208 14.8053 30.9504 14.6529 31.3461 14.6529C31.7419 14.6529 32.073 14.7945 32.2917 15.0916C32.5119 15.378 32.6551 15.7505 32.6551 16.1801C32.6227 16.6204 32.5119 17.0268 32.2917 17.3116Z" fill="#118ACB"/>
<path d="M17.712 13.136C18.3711 12.2678 18.7346 11.6858 18.7346 11.3887C18.7346 10.6959 18.2957 10.3341 17.4256 10.3341H12.8089C12.4439 10.3341 12.1483 10.4111 11.9727 10.5866C11.7864 10.7729 11.6863 10.9822 11.6863 11.2455C11.6863 11.5319 11.7972 11.752 11.9727 11.906C12.1606 12.0907 12.4455 12.1584 12.8089 12.1584H15.975L11.9065 17.3898C11.654 17.7208 11.5107 18.0502 11.5107 18.3027C11.5107 19.0617 12.0174 19.4342 13.0399 19.4342H17.7998C18.559 19.4342 18.9332 19.1048 18.9332 18.489C18.9332 17.8301 18.5698 17.5437 17.7998 17.5437H14.3042L17.712 13.136Z" fill="#118ACB"/>
<path d="M15.4481 24.4469H14.25V26.9209H15.4481C15.8115 26.9209 16.1087 26.8101 16.3166 26.5576C16.5368 26.3375 16.6477 26.008 16.6477 25.6893C16.6477 25.326 16.5368 25.0304 16.3166 24.821C16.1087 24.5578 15.8238 24.4469 15.4481 24.4469ZM21.386 26.7331C21.0226 26.7331 20.7254 26.8763 20.5175 27.1288C20.2973 27.4151 20.188 27.7446 20.188 28.151C20.188 28.559 20.2958 28.91 20.5175 29.1733C20.7377 29.4596 21.0226 29.5689 21.386 29.5689C21.7479 29.5689 22.0451 29.4273 22.2546 29.1733C22.4748 28.8885 22.5841 28.5575 22.5841 28.151C22.5841 27.7554 22.4748 27.3936 22.2546 27.1288C22.0343 26.8763 21.7479 26.7331 21.386 26.7331Z" fill="#39B54A"/>
<path d="M29.7538 20.9183H12.5435C11.963 20.9183 11.4902 21.391 11.4902 21.9745V32.043C11.4902 32.6249 11.963 33.0975 12.5451 33.0975H26.1119C25.9702 32.9544 25.8932 32.8127 25.8932 32.6249C25.8932 32.4817 25.9271 32.3401 26.0025 32.1523L26.6632 30.7359L24.8815 26.2944C24.8491 26.1835 24.8045 26.0419 24.8045 25.8987C24.8045 25.7109 24.8815 25.5354 25.057 25.4261C25.2002 25.2829 25.3881 25.2059 25.5637 25.2059C25.9594 25.2059 26.2227 25.3922 26.366 25.7879L27.4547 28.8115L28.6204 25.7879C28.7636 25.4261 29.0162 25.2059 29.4227 25.2059C29.609 25.2059 29.7861 25.2829 29.9278 25.4261C30.071 25.5692 30.1819 25.7109 30.1819 25.8987C30.1819 26.0419 30.148 26.1835 30.1049 26.2944L27.487 32.6588C27.41 32.845 27.3454 32.9882 27.2345 33.0975H29.7415C30.3236 33.0975 30.7963 32.6249 30.7963 32.043V21.9745C30.7963 21.3586 30.3251 20.9183 29.7538 20.9183ZM17.6038 27.6784C17.054 28.1849 16.3718 28.4051 15.5695 28.4051H14.2606V30.2956C14.2606 30.5804 14.1836 30.8006 14.008 30.9545C13.8648 31.0977 13.6446 31.207 13.392 31.207C13.1395 31.207 12.9193 31.13 12.7761 30.9545C12.6344 30.8113 12.5235 30.5589 12.5235 30.2956V23.7541C12.5235 23.1383 12.81 22.8427 13.4367 22.8427H15.5156C16.3826 22.8427 17.0756 23.0952 17.6577 23.6017C18.2074 24.1067 18.4938 24.7995 18.4938 25.6016C18.4723 26.5145 18.1858 27.1719 17.6038 27.6784ZM24.3332 30.2617C24.3332 30.5142 24.2563 30.702 24.0792 30.8775C23.8928 31.0638 23.7157 31.13 23.4632 31.13C23.1013 31.13 22.8041 30.9437 22.6285 30.5804C22.2651 31.0207 21.76 31.2409 21.0994 31.2409C20.3417 31.2409 19.6827 30.9545 19.1745 30.3726C18.6694 29.7891 18.3737 29.064 18.3737 28.1957C18.3737 27.3274 18.6263 26.6346 19.1745 26.0188C19.6827 25.4368 20.3417 25.1505 21.0994 25.1505C21.76 25.1505 22.2328 25.3706 22.6285 25.811C22.8149 25.4476 23.0674 25.2613 23.4632 25.2613C23.7157 25.2613 23.9359 25.3383 24.0792 25.5138C24.2655 25.7001 24.3317 25.8756 24.3317 26.1296V30.2617H24.3332Z" fill="#39B54A"/>
</g>
<defs>
<clipPath id="clip0_526_451450">
<rect width="40" height="40" fill="white"/>
</clipPath>
</defs>
</svg>
