<svg width="98" height="59" viewBox="0 0 98 59" fill="none" xmlns="http://www.w3.org/2000/svg">
<path d="M0 5C0 2.23858 2.23858 0 5 0H93C95.7614 0 98 2.23858 98 5V54C98 56.7614 95.7614 59 93 59H22.4006C21.3646 59 20.3543 58.6782 19.5091 58.0791L2.1085 45.7446C0.785948 44.8071 0 43.2866 0 41.6655V5Z" fill="#CCCCCC"/>
<path d="M20 10.5C20 7.18629 22.6863 4.5 26 4.5H88C91.3137 4.5 94 7.18629 94 10.5V48.5C94 51.8137 91.3137 54.5 88 54.5H37.8079C36.451 54.5 35.1342 54.0401 34.0724 53.1954L22.2646 43.8016C20.8337 42.6633 20 40.9346 20 39.1062V10.5Z" fill="#E6E7E8"/>
<path d="M26 10.5C26 8.29086 27.7909 6.5 30 6.5H87.5C89.7091 6.5 91.5 8.29086 91.5 10.5V46C91.5 48.2091 89.7091 50 87.5 50H41.2858C40.3927 50 39.5253 49.7011 38.8218 49.151L27.5361 40.3261C26.5665 39.568 26 38.4058 26 37.1751V10.5Z" fill="white"/>
<path d="M44.985 43.584C44.5323 43.584 44.145 43.479 43.823 43.269C43.501 43.0543 43.2513 42.758 43.074 42.38C42.9013 41.9973 42.815 41.554 42.815 41.05C42.815 40.5507 42.9013 40.1097 43.074 39.727C43.2513 39.3443 43.501 39.048 43.823 38.838C44.145 38.6233 44.5323 38.516 44.985 38.516C45.4377 38.516 45.825 38.6233 46.147 38.838C46.469 39.048 46.7163 39.3443 46.889 39.727C47.0663 40.1097 47.155 40.5507 47.155 41.05C47.155 41.554 47.0663 41.9973 46.889 42.38C46.7163 42.758 46.469 43.0543 46.147 43.269C45.825 43.479 45.4377 43.584 44.985 43.584ZM44.985 42.779C45.3537 42.779 45.6547 42.625 45.888 42.317C46.1213 42.009 46.238 41.5867 46.238 41.05C46.238 40.5133 46.1213 40.091 45.888 39.783C45.6547 39.475 45.3537 39.321 44.985 39.321C44.6117 39.321 44.3083 39.475 44.075 39.783C43.8463 40.091 43.732 40.5133 43.732 41.05C43.732 41.5867 43.8463 42.009 44.075 42.317C44.3083 42.625 44.6117 42.779 44.985 42.779ZM49.6747 43.584C49.3387 43.584 49.0354 43.5257 48.7647 43.409C48.4941 43.2877 48.2771 43.1173 48.1137 42.898C47.9551 42.6787 47.8757 42.4243 47.8757 42.135C47.8757 41.8363 47.9527 41.575 48.1067 41.351C48.2654 41.127 48.4731 40.966 48.7297 40.868C48.5057 40.77 48.3284 40.63 48.1977 40.448C48.0671 40.2613 48.0017 40.0537 48.0017 39.825C48.0017 39.5917 48.0647 39.377 48.1907 39.181C48.3167 38.9803 48.5034 38.8193 48.7507 38.698C49.0027 38.5767 49.3107 38.516 49.6747 38.516C50.0387 38.516 50.3444 38.5767 50.5917 38.698C50.8391 38.8193 51.0257 38.9803 51.1517 39.181C51.2777 39.377 51.3407 39.5917 51.3407 39.825C51.3407 40.049 51.2731 40.2567 51.1377 40.448C51.0071 40.6347 50.8321 40.7747 50.6127 40.868C50.8741 40.966 51.0817 41.127 51.2357 41.351C51.3897 41.575 51.4667 41.8363 51.4667 42.135C51.4667 42.4243 51.3874 42.6787 51.2287 42.898C51.0701 43.1173 50.8531 43.2877 50.5777 43.409C50.3071 43.5257 50.0061 43.584 49.6747 43.584ZM49.6747 40.602C49.9174 40.602 50.1087 40.539 50.2487 40.413C50.3887 40.287 50.4587 40.126 50.4587 39.93C50.4587 39.7153 50.3887 39.5473 50.2487 39.426C50.1134 39.3047 49.9221 39.244 49.6747 39.244C49.4227 39.244 49.2291 39.3047 49.0937 39.426C48.9584 39.5473 48.8907 39.7153 48.8907 39.93C48.8907 40.1307 48.9584 40.294 49.0937 40.42C49.2337 40.5413 49.4274 40.602 49.6747 40.602ZM49.6747 42.835C49.9734 42.835 50.1997 42.7627 50.3537 42.618C50.5077 42.4687 50.5847 42.282 50.5847 42.058C50.5847 41.8107 50.5031 41.617 50.3397 41.477C50.1811 41.337 49.9594 41.267 49.6747 41.267C49.3901 41.267 49.1637 41.337 48.9957 41.477C48.8324 41.617 48.7507 41.8107 48.7507 42.058C48.7507 42.282 48.8277 42.4687 48.9817 42.618C49.1404 42.7627 49.3714 42.835 49.6747 42.835ZM52.5392 43.5L54.3872 39.363H51.9722V38.6H55.3112V39.237L53.4702 43.5H52.5392ZM55.6485 43.5L56.9085 41.764L55.6485 40.028H56.6075L57.4895 41.26L58.3645 40.028H59.3305L58.0635 41.764L59.3305 43.5H58.3645L57.4895 42.268L56.6075 43.5H55.6485ZM59.5723 43.5L60.8323 41.764L59.5723 40.028H60.5313L61.4133 41.26L62.2883 40.028H63.2543L61.9873 41.764L63.2543 43.5H62.2883L61.4133 42.268L60.5313 43.5H59.5723ZM63.4961 43.5L64.7561 41.764L63.4961 40.028H64.4551L65.3371 41.26L66.2121 40.028H67.1781L65.9111 41.764L67.1781 43.5H66.2121L65.3371 42.268L64.4551 43.5H63.4961ZM67.4199 43.5L68.6799 41.764L67.4199 40.028H68.3789L69.2609 41.26L70.1359 40.028H71.1019L69.8349 41.764L71.1019 43.5H70.1359L69.2609 42.268L68.3789 43.5H67.4199ZM71.3438 43.5L72.6038 41.764L71.3438 40.028H72.3028L73.1848 41.26L74.0598 40.028H75.0258L73.7588 41.764L75.0258 43.5H74.0598L73.1848 42.268L72.3028 43.5H71.3438ZM75.2676 43.5L76.5276 41.764L75.2676 40.028H76.2266L77.1086 41.26L77.9836 40.028H78.9496L77.6826 41.764L78.9496 43.5H77.9836L77.1086 42.268L76.2266 43.5H75.2676ZM79.1914 43.5L80.4514 41.764L79.1914 40.028H80.1504L81.0324 41.26L81.9074 40.028H82.8734L81.6064 41.764L82.8734 43.5H81.9074L81.0324 42.268L80.1504 43.5H79.1914ZM83.1153 43.5L84.3753 41.764L83.1153 40.028H84.0743L84.9563 41.26L85.8313 40.028H86.7973L85.5303 41.764L86.7973 43.5H85.8313L84.9563 42.268L84.0743 43.5H83.1153Z" fill="#181818"/>
<path d="M46.635 14.584C46.313 14.584 46.0237 14.5257 45.767 14.409C45.5103 14.2877 45.3073 14.122 45.158 13.912C45.0133 13.6973 44.941 13.45 44.941 13.17C44.941 12.8713 45.0273 12.603 45.2 12.365C45.3773 12.127 45.6107 11.9683 45.9 11.889C45.634 11.8003 45.4287 11.658 45.284 11.462C45.1393 11.266 45.067 11.0513 45.067 10.818C45.067 10.58 45.13 10.363 45.256 10.167C45.382 9.96633 45.5617 9.80767 45.795 9.691C46.0283 9.57433 46.3083 9.516 46.635 9.516C46.9617 9.516 47.2417 9.57433 47.475 9.691C47.7083 9.80767 47.888 9.96633 48.014 10.167C48.14 10.363 48.203 10.58 48.203 10.818C48.203 11.0467 48.1307 11.2613 47.986 11.462C47.8413 11.658 47.636 11.8003 47.37 11.889C47.6593 11.9683 47.8903 12.127 48.063 12.365C48.2403 12.603 48.329 12.8713 48.329 13.17C48.329 13.45 48.2543 13.6973 48.105 13.912C47.9603 14.122 47.7597 14.2877 47.503 14.409C47.2463 14.5257 46.957 14.584 46.635 14.584ZM46.635 11.679C46.9337 11.679 47.1693 11.6043 47.342 11.455C47.5193 11.301 47.608 11.1003 47.608 10.853C47.608 10.5777 47.5217 10.37 47.349 10.23C47.1763 10.09 46.9383 10.02 46.635 10.02C46.3317 10.02 46.0937 10.09 45.921 10.23C45.753 10.37 45.669 10.5777 45.669 10.853C45.669 11.1003 45.7553 11.301 45.928 11.455C46.1007 11.6043 46.3363 11.679 46.635 11.679ZM46.635 14.066C47.0037 14.066 47.279 13.982 47.461 13.814C47.6477 13.6413 47.741 13.415 47.741 13.135C47.741 12.8177 47.6407 12.5773 47.44 12.414C47.2393 12.2507 46.971 12.169 46.635 12.169C46.299 12.169 46.0307 12.2507 45.83 12.414C45.6293 12.5773 45.529 12.8177 45.529 13.135C45.529 13.415 45.62 13.6413 45.802 13.814C45.9887 13.982 46.2663 14.066 46.635 14.066ZM50.7024 14.584C50.3944 14.584 50.1307 14.5233 49.9114 14.402C49.692 14.2807 49.517 14.1197 49.3864 13.919C49.2604 13.7137 49.1834 13.4873 49.1554 13.24H49.7014C49.748 13.506 49.86 13.7113 50.0374 13.856C50.2147 14.0007 50.4387 14.073 50.7094 14.073C51.0827 14.073 51.393 13.9003 51.6404 13.555C51.8877 13.205 52.0207 12.6613 52.0394 11.924C51.9274 12.1433 51.7477 12.3347 51.5004 12.498C51.2577 12.6567 50.9637 12.736 50.6184 12.736C50.343 12.736 50.0817 12.6707 49.8344 12.54C49.587 12.4093 49.3864 12.2273 49.2324 11.994C49.0784 11.756 49.0014 11.4783 49.0014 11.161C49.0014 10.8857 49.069 10.622 49.2044 10.37C49.3444 10.118 49.5404 9.91267 49.7924 9.754C50.0444 9.59533 50.3454 9.516 50.6954 9.516C51.05 9.516 51.3487 9.58367 51.5914 9.719C51.834 9.84967 52.0277 10.027 52.1724 10.251C52.3217 10.475 52.429 10.727 52.4944 11.007C52.5644 11.2823 52.5994 11.5647 52.5994 11.854C52.5994 12.3953 52.5247 12.8713 52.3754 13.282C52.226 13.688 52.009 14.0077 51.7244 14.241C51.4444 14.4697 51.1037 14.584 50.7024 14.584ZM50.7374 12.225C50.9567 12.225 51.1527 12.176 51.3254 12.078C51.498 11.9753 51.6357 11.84 51.7384 11.672C51.841 11.504 51.8924 11.322 51.8924 11.126C51.8924 10.916 51.841 10.7293 51.7384 10.566C51.6357 10.398 51.498 10.2673 51.3254 10.174C51.1527 10.0807 50.9567 10.034 50.7374 10.034C50.518 10.034 50.322 10.0807 50.1494 10.174C49.9767 10.2673 49.8414 10.398 49.7434 10.566C49.6454 10.7293 49.5964 10.9183 49.5964 11.133C49.5964 11.4643 49.7037 11.7303 49.9184 11.931C50.1377 12.127 50.4107 12.225 50.7374 12.225ZM53.1096 14.5L54.3136 12.764L53.1096 11.028H53.7466L54.7196 12.463L55.6996 11.028H56.3296L55.1256 12.764L56.3296 14.5H55.6996L54.7196 13.065L53.7466 14.5H53.1096ZM56.5959 14.5L57.7999 12.764L56.5959 11.028H57.2329L58.2059 12.463L59.1859 11.028H59.8159L58.6119 12.764L59.8159 14.5H59.1859L58.2059 13.065L57.2329 14.5H56.5959ZM60.0822 14.5L61.2862 12.764L60.0822 11.028H60.7192L61.6922 12.463L62.6722 11.028H63.3022L62.0982 12.764L63.3022 14.5H62.6722L61.6922 13.065L60.7192 14.5H60.0822ZM63.5685 14.5L64.7725 12.764L63.5685 11.028H64.2055L65.1785 12.463L66.1585 11.028H66.7885L65.5845 12.764L66.7885 14.5H66.1585L65.1785 13.065L64.2055 14.5H63.5685ZM67.0549 14.5L68.2589 12.764L67.0549 11.028H67.6919L68.6649 12.463L69.6449 11.028H70.2749L69.0709 12.764L70.2749 14.5H69.6449L68.6649 13.065L67.6919 14.5H67.0549ZM70.5412 14.5L71.7452 12.764L70.5412 11.028H71.1782L72.1512 12.463L73.1312 11.028H73.7612L72.5572 12.764L73.7612 14.5H73.1312L72.1512 13.065L71.1782 14.5H70.5412ZM74.0275 14.5L75.2315 12.764L74.0275 11.028H74.6645L75.6375 12.463L76.6175 11.028H77.2475L76.0435 12.764L77.2475 14.5H76.6175L75.6375 13.065L74.6645 14.5H74.0275ZM77.5139 14.5L78.7179 12.764L77.5139 11.028H78.1509L79.1239 12.463L80.1039 11.028H80.7339L79.5299 12.764L80.7339 14.5H80.1039L79.1239 13.065L78.1509 14.5H77.5139Z" fill="#666666"/>
<g clip-path="url(#clip0_1652_468347)">
<path d="M80.6584 20.9098C80.396 20.5196 80.0016 20.2301 79.543 20.0912C79.0845 19.9523 78.5903 19.9726 78.1455 20.1486C77.7007 20.3247 77.333 20.6455 77.1056 21.0559C76.8782 21.4663 76.8053 21.9407 76.8995 22.3976C76.9936 22.8544 77.2489 23.2653 77.6215 23.5594C77.994 23.8536 78.4606 24.0127 78.941 24.0095C79.4214 24.0062 79.8857 23.8408 80.254 23.5417C80.6223 23.2425 80.8717 22.8283 80.9593 22.3702C81.0146 22.1198 81.0165 21.861 80.9647 21.6098C80.913 21.3586 80.8087 21.1204 80.6584 20.9098Z" fill="#EA0029"/>
<path d="M51.8802 23.3584H48.5V32.7972H51.8802V23.3584Z" fill="#EA0029"/>
<path d="M59.5819 21.1455H56.2286L55.5134 23.3544H53.1992V25.9493H54.6714C54.4015 26.7903 54.2009 27.4764 54.0696 28.0077C53.9506 28.4376 53.8832 28.8793 53.8685 29.3242C53.8685 30.5228 54.2284 31.4345 54.948 32.0591C55.6677 32.6837 56.7162 32.9956 58.0935 32.9947C58.8692 32.9823 59.6353 32.825 60.3497 32.5315L60.0434 29.9732C59.6268 30.1239 59.187 30.2053 58.7425 30.214C58.2716 30.214 57.914 30.0962 57.6725 29.862C57.4309 29.6277 57.3095 29.2941 57.3095 28.8609C57.3095 28.4029 57.4687 27.6675 57.7872 26.6546L58.0166 25.9493H60.6546V23.3544H58.8586L59.5819 21.1455Z" fill="#EA0029"/>
<path d="M75.0856 29.897C74.9424 29.7764 74.8287 29.6266 74.7526 29.4582C74.6765 29.2898 74.64 29.1071 74.6456 28.9234C74.6464 28.7622 74.6591 28.6013 74.6834 28.4418L75.7022 23.4692L76.2973 20.5288C75.0841 20.6081 73.8887 20.8544 72.747 21.2603L72.0197 24.7529H72.0305H72.0197L71.3949 27.8032C71.2716 28.3625 71.2074 28.9325 71.2033 29.5044C71.1961 30.1334 71.3755 30.7512 71.7202 31.2841C72.0704 31.8212 72.5668 32.2541 73.1546 32.5351C73.7952 32.8448 74.5034 33.0006 75.2191 32.9891C75.4446 32.9906 75.6699 32.9784 75.8938 32.9525L76.4673 30.2634H76.2379C75.8198 30.2871 75.408 30.1562 75.0856 29.897Z" fill="#EA0029"/>
<path d="M70.1822 25.3485C69.7849 24.6318 69.1878 24.0378 68.459 23.6343C68.4428 23.6238 68.4266 23.6133 68.4091 23.6042C67.5964 23.1921 66.6923 22.9786 65.7753 22.982C64.8582 22.9854 63.9559 23.2057 63.1465 23.6238C62.387 24.0376 61.7638 24.6514 61.3491 25.3943C60.9104 26.193 60.6897 27.0872 60.7081 27.9919C60.69 28.8984 60.9175 29.7936 61.3679 30.5881C61.7966 31.3314 62.4295 31.9448 63.1964 32.3599C63.5176 32.5346 63.8579 32.6737 64.2111 32.7747C64.7511 32.9273 65.3111 33.0031 65.8736 32.9998C66.312 33.0001 66.7493 32.9562 67.1785 32.869C67.5146 32.8004 67.8432 32.7005 68.1595 32.5706C68.8054 32.3118 69.3742 31.9001 69.8138 31.3733C69.8368 31.3458 69.8543 31.3144 69.8759 31.2856L67.6575 30.0005L67.3134 29.8029C67.2086 29.9493 67.0774 30.0761 66.9261 30.1772C66.6156 30.3798 66.2477 30.4836 65.8736 30.4742C65.6575 30.4808 65.4422 30.4456 65.2402 30.3708C65.0382 30.296 64.8535 30.1831 64.6969 30.0385C64.6605 30.0045 64.6267 29.9691 64.593 29.9325C64.3417 29.6487 64.1988 29.2897 64.1882 28.9157H70.7098C70.7704 28.579 70.8024 28.2381 70.8056 27.8963C70.8154 27.1793 70.6778 26.4675 70.4008 25.8026C70.3367 25.6474 70.2637 25.4958 70.1822 25.3485ZM66.9504 25.872C67.0988 25.9975 67.2169 26.1532 67.2962 26.3281C67.3755 26.5029 67.4141 26.6925 67.4092 26.8835H64.1963C64.2015 26.691 64.2464 26.5015 64.3285 26.3262C64.4105 26.1509 64.528 25.9933 64.674 25.8628C64.9716 25.6004 65.3622 25.4598 65.7643 25.4702C66.0627 25.4643 66.3584 25.5276 66.6265 25.6547C66.7433 25.7119 66.8521 25.7832 66.9504 25.8667V25.872Z" fill="#EA0029"/>
<path d="M72.7355 21.2602L72.0176 24.7619C73.1462 24.1026 74.3974 23.6647 75.7001 23.473L76.3046 20.5234C75.085 20.6045 73.8834 20.8525 72.7355 21.2602ZM70.1824 25.3547C70.2664 25.5045 70.3417 25.6587 70.4077 25.8167C69.436 26.6965 68.6511 27.7523 68.0976 28.9245H64.9062C65.1529 28.2192 65.4636 27.5365 65.8346 26.8845H67.4094C67.4143 26.6935 67.3757 26.5039 67.2964 26.329C67.2171 26.1542 67.099 25.9985 66.9506 25.8729C66.8523 25.7889 66.7435 25.7172 66.6267 25.6596C67.1625 24.9239 67.7767 24.2449 68.4592 23.6339C69.188 24.0374 69.7851 24.6314 70.1824 25.3482V25.3547Z" fill="url(#paint0_linear_1652_468347)"/>
</g>
<rect x="38.25" y="35.25" width="51" height="12.5" rx="1.75" stroke="#EA0029" stroke-width="0.5"/>
<defs>
<linearGradient id="paint0_linear_1652_468347" x1="75.7914" y1="21.0153" x2="68.3262" y2="30.9481" gradientUnits="userSpaceOnUse">
<stop offset="0.49353" stop-color="#FFDBA5"/>
<stop offset="1" stop-color="#FFE975" stop-opacity="0"/>
</linearGradient>
<clipPath id="clip0_1652_468347">
<rect width="32.5" height="13" fill="white" transform="translate(48.5 20)"/>
</clipPath>
</defs>
</svg>
