<svg width="119" height="140" viewBox="0 0 119 140" fill="none" xmlns="http://www.w3.org/2000/svg">
<path d="M0.300781 132.889C0.300781 136.816 3.48453 140 7.41189 140H111.59C115.517 140 118.701 136.816 118.701 132.889V7.11111C118.701 3.18375 115.517 0 111.59 0H7.4119C3.48454 0 0.300781 3.18375 0.300781 7.11111V132.889Z" fill="#F1F1F2"/>
<g opacity="0.7">
<path d="M78.1624 48.4568C78.1624 58.8713 69.8075 67.3139 59.5012 67.3139C49.1948 67.3139 40.8399 58.8713 40.8399 48.4568C40.8399 38.0422 49.1948 29.5996 59.5012 29.5996C69.8075 29.5996 78.1624 38.0422 78.1624 48.4568Z" fill="#999999"/>
<path d="M23.4228 117.6C20.6744 117.6 18.417 115.341 18.7303 112.582C19.1719 108.692 20.126 104.876 21.5715 101.243C23.6347 96.0568 26.6588 91.3449 30.4711 87.3758C34.2834 83.4068 38.8092 80.2584 43.7902 78.1104C48.7712 75.9623 54.1098 74.8568 59.5012 74.8568C64.8926 74.8568 70.2312 75.9623 75.2121 78.1104C80.1931 80.2584 84.719 83.4068 88.5313 87.3758C92.3435 91.3449 95.3676 96.0568 97.4308 101.243C98.8764 104.876 99.8304 108.692 100.272 112.582C100.585 115.341 98.3279 117.6 95.5796 117.6L23.4228 117.6Z" fill="#999999"/>
</g>
</svg>
