<svg width="225" height="140" viewBox="0 0 225 140" fill="none" xmlns="http://www.w3.org/2000/svg">
<rect x="0.5" width="224" height="140" rx="12.8" fill="#F1F1F2"/>
<rect x="16.0547" y="102.666" width="192.889" height="7.77778" rx="1.55556" fill="#E6E7E8"/>
<rect x="16.0547" y="119.777" width="192.889" height="7.77778" rx="1.55556" fill="#E6E7E8"/>
<rect x="16.0566" y="14" width="46.6667" height="7.77778" rx="1.55556" fill="#E6E7E8"/>
<path opacity="0.7" fill-rule="evenodd" clip-rule="evenodd" d="M38.8714 58.7373H30.5758V86.7373H38.8714V58.7373ZM50.8948 86.2703C52.3741 85.5399 53.39 84.0286 53.39 82.2828V78.5397H40.8363V86.2703H50.8948ZM53.39 76.607V68.8764H40.8363V76.607H53.39ZM53.39 66.9437H40.8363V59.2131H50.9125C52.3821 59.9468 53.39 61.4529 53.39 63.1919V66.9437ZM16.0566 63.1919C16.0566 61.4529 17.0645 59.9468 18.5341 59.2131H28.611V66.9437H16.0566V63.1919ZM16.0566 76.607V68.8764H28.611V76.607H16.0566ZM16.0566 82.2828V78.5397H28.611V86.2703H18.5518C17.0725 85.5399 16.0566 84.0286 16.0566 82.2828Z" fill="#999999"/>
<rect x="100.057" y="14" width="52.8889" height="74.6667" rx="3.11111" fill="#E6E7E8"/>
<g opacity="0.7">
<path d="M135.265 70.0499C135.051 70.0497 134.844 69.9758 134.676 69.8401C128.946 65.2017 122.694 59.7474 120.984 53.6673C120.371 51.0584 121.943 48.436 124.495 47.8098C126.887 47.2229 129.321 48.5989 130.107 50.9818C131.118 54.5747 137.983 60.1301 140.56 62.221C140.982 62.5408 141.07 63.1493 140.757 63.5802C140.444 64.011 139.849 64.1012 139.428 63.7814C139.412 63.7695 139.397 63.7571 139.382 63.7444C134.473 59.7726 129.309 55.212 128.273 51.5181C127.838 49.9706 126.258 49.0767 124.744 49.5215C123.231 49.9664 122.356 51.5815 122.791 53.129C124.346 58.6553 130.343 63.8649 135.841 68.3147C136.253 68.6478 136.322 69.2588 135.996 69.6795C135.816 69.9126 135.541 70.0483 135.25 70.0479L135.265 70.0499Z" fill="#999999"/>
<path d="M111.101 65.1273C110.576 65.1263 110.151 64.6906 110.152 64.154C110.153 63.7303 110.422 63.3559 110.818 63.2288C111.88 62.8888 115.225 61.3518 113.669 55.8119C111.783 49.1081 115.569 42.1104 122.126 40.1821C122.129 40.1812 122.133 40.1802 122.136 40.1793C128.551 38.337 135.246 41.9955 137.312 48.4727C137.786 48.9274 141.03 51.6672 143.25 53.5093C143.647 53.86 143.691 54.4736 143.348 54.8797C143.02 55.2685 142.452 55.3287 142.053 55.0172C135.942 49.9475 135.739 49.5959 135.64 49.4287C135.601 49.3615 135.569 49.2897 135.547 49.2149C133.861 43.6496 128.144 40.4711 122.659 42.0487C117.11 43.6786 113.904 49.5988 115.498 55.2716C115.499 55.2723 115.499 55.273 115.499 55.2736C117.118 61.0273 114.298 64.1538 111.39 65.0827C111.296 65.1128 111.199 65.128 111.101 65.1273Z" fill="#999999"/>
<path d="M114.142 68.838C113.617 68.837 113.192 68.4013 113.193 67.8647C113.194 67.441 113.463 67.0666 113.859 66.9395C117.797 65.6804 119.23 63.6128 117.31 54.6783C116.141 50.0637 118.726 45.3243 123.181 43.9172C127.719 42.5968 132.448 45.272 133.764 49.904C134.028 50.8425 135.235 52.6516 142.288 58.3606C142.71 58.6804 142.798 59.2889 142.485 59.7198C142.172 60.1507 141.577 60.2408 141.156 59.921C141.14 59.9091 141.125 59.8967 141.11 59.884C133.317 53.5843 132.308 51.7636 131.937 50.4422C130.919 46.8336 127.237 44.7479 123.704 45.7787C120.215 46.911 118.216 50.6504 119.167 54.2644C121.123 63.3739 119.927 67.0406 114.416 68.7972C114.327 68.8246 114.235 68.8384 114.142 68.838Z" fill="#999999"/>
<path d="M137.9 66.8957C137.648 66.8961 137.406 66.7941 137.227 66.6119C136.589 66.0333 135.923 65.4879 135.231 64.9778C131.827 62.337 126.129 57.9183 124.632 52.5902C124.478 52.0771 124.76 51.5339 125.262 51.3768C125.764 51.2198 126.295 51.5083 126.449 52.0214C126.452 52.0321 126.455 52.043 126.458 52.0538C127.789 56.7601 133.164 60.934 136.379 63.429C137.142 63.9897 137.874 64.5936 138.571 65.238C138.941 65.618 138.94 66.2332 138.569 66.612C138.391 66.7932 138.151 66.8951 137.9 66.8957Z" fill="#999999"/>
<path d="M123.646 74.671H123.585C123.061 74.6377 122.663 74.1766 122.695 73.6411C122.764 72.5161 123.265 66.9004 126.496 66.9004C128.511 67.1399 130.285 68.3692 131.248 70.194C131.455 70.5021 131.683 70.7955 131.928 71.0724C132.293 71.4583 132.283 72.0734 131.905 72.4462C131.537 72.8099 130.953 72.8099 130.585 72.4462C130.271 72.1013 129.98 71.7344 129.716 71.3483C128.906 70.2291 127.907 68.8417 126.496 68.8417C125.466 68.8417 124.716 71.7564 124.596 73.7598C124.565 74.2726 124.148 74.672 123.646 74.671Z" fill="#999999"/>
<path d="M117.944 72.7183C117.419 72.7193 116.993 72.2852 116.992 71.7487C116.991 71.3259 117.258 70.9512 117.652 70.8219C120.054 70.0232 121.643 64.9244 120.841 62.3265C120.653 61.8254 120.898 61.2636 121.388 61.0715C121.878 60.8794 122.428 61.1299 122.615 61.6308C122.629 61.6676 122.641 61.7053 122.65 61.7435C123.659 64.9711 121.89 71.4593 118.237 72.6795C118.142 72.708 118.043 72.7211 117.944 72.7183Z" fill="#999999"/>
<path d="M110.341 53.2911C109.816 53.2911 109.391 52.856 109.391 52.3195C109.401 43.2019 116.628 35.8134 125.546 35.8027C134.315 35.8027 137.453 40.9812 139.743 44.7626C140.825 46.5445 141.758 48.0854 142.946 48.4799C143.447 48.6402 143.726 49.1852 143.569 49.6973C143.412 50.2094 142.879 50.4946 142.378 50.3343C142.372 50.3323 142.365 50.3301 142.359 50.3278C140.508 49.7138 139.405 47.893 138.128 45.7847C135.957 42.2036 133.257 37.7459 125.546 37.7459C117.677 37.7545 111.3 44.2743 111.291 52.3195C111.291 52.856 110.866 53.2911 110.341 53.2911Z" fill="#999999"/>
<path d="M111.291 60.0923C110.931 60.093 110.601 59.8854 110.44 59.556C109.897 58.5123 109.542 57.3777 109.391 56.206C109.391 55.6694 109.816 55.2344 110.341 55.2344C110.866 55.2344 111.291 55.6694 111.291 56.206C111.449 57.0719 111.736 57.9081 112.141 58.6854C112.376 59.1651 112.186 59.7489 111.717 59.9893C111.585 60.0571 111.439 60.0923 111.291 60.0923Z" fill="#999999"/>
<path d="M138.85 39.6856C138.517 39.6858 138.208 39.5082 138.036 39.2174C137.101 37.6395 131.901 33.8562 124.595 33.8562C116.993 33.8562 112.929 37.8261 112.102 39.2174C111.846 39.6857 111.267 39.8532 110.809 39.5914C110.351 39.3296 110.187 38.7376 110.443 38.2693C110.454 38.2487 110.467 38.2286 110.479 38.2089C111.519 36.4581 116.082 31.9131 124.595 31.9131C132.601 31.9131 138.358 36.0131 139.661 38.2108C139.933 38.6698 139.79 39.2672 139.341 39.5451C139.192 39.6368 139.023 39.6855 138.85 39.6856Z" fill="#999999"/>
<path d="M135.047 31.9174C134.942 31.9176 134.837 31.8999 134.737 31.8649C134.357 31.7309 133.989 31.591 133.626 31.455C130.753 30.3068 127.673 29.8018 124.594 29.9743C120.032 29.9743 119.004 30.5125 117.584 31.2568C117.235 31.4414 116.864 31.6338 116.431 31.8397C115.95 32.057 115.388 31.8348 115.175 31.3432C114.963 30.8517 115.18 30.2771 115.661 30.0597C116.062 29.8751 116.402 29.6964 116.725 29.5273C118.31 28.6918 119.571 28.0311 124.594 28.0311C127.899 27.8588 131.203 28.4044 134.287 29.6323C134.637 29.7644 134.986 29.8985 135.355 30.0209C135.855 30.1849 136.13 30.732 135.97 31.2429C135.841 31.6512 135.467 31.9253 135.047 31.9174Z" fill="#999999"/>
<path d="M142.652 45.5202C142.239 45.52 141.873 45.2466 141.747 44.844C141.254 43.5674 140.649 42.3383 139.942 41.1715C139.667 40.7143 139.806 40.1158 140.254 39.8346C140.701 39.5534 141.286 39.6961 141.561 40.1533C142.35 41.4534 143.018 42.826 143.557 44.2533C143.716 44.7645 143.44 45.3112 142.94 45.4742C142.847 45.5046 142.75 45.5202 142.652 45.5202Z" fill="#999999"/>
</g>
<rect x="156.057" y="14" width="52.8889" height="74.6667" rx="3.11111" fill="#E6E7E8"/>
<g opacity="0.7">
<path d="M191.265 70.0499C191.051 70.0497 190.844 69.9758 190.676 69.8401C184.946 65.2017 178.694 59.7474 176.984 53.6673C176.371 51.0584 177.943 48.436 180.495 47.8098C182.887 47.2229 185.321 48.5989 186.107 50.9818C187.118 54.5747 193.983 60.1301 196.56 62.221C196.982 62.5408 197.07 63.1493 196.757 63.5802C196.444 64.011 195.849 64.1012 195.428 63.7814C195.412 63.7695 195.397 63.7571 195.382 63.7444C190.473 59.7726 185.309 55.212 184.273 51.5181C183.838 49.9706 182.258 49.0767 180.744 49.5215C179.231 49.9664 178.356 51.5815 178.791 53.129C180.346 58.6553 186.343 63.8649 191.841 68.3147C192.253 68.6478 192.322 69.2588 191.996 69.6795C191.816 69.9126 191.541 70.0483 191.25 70.0479L191.265 70.0499Z" fill="#999999"/>
<path d="M167.101 65.1273C166.576 65.1263 166.151 64.6906 166.152 64.154C166.153 63.7303 166.422 63.3559 166.818 63.2288C167.88 62.8888 171.225 61.3518 169.669 55.8119C167.783 49.1081 171.569 42.1104 178.126 40.1821C178.129 40.1812 178.133 40.1802 178.136 40.1793C184.551 38.337 191.246 41.9955 193.312 48.4727C193.786 48.9274 197.03 51.6672 199.25 53.5093C199.647 53.86 199.691 54.4736 199.348 54.8797C199.02 55.2685 198.452 55.3287 198.053 55.0172C191.942 49.9475 191.739 49.5959 191.64 49.4287C191.601 49.3615 191.569 49.2897 191.547 49.2149C189.861 43.6496 184.144 40.4711 178.659 42.0487C173.11 43.6786 169.904 49.5988 171.498 55.2716C171.499 55.2723 171.499 55.273 171.499 55.2736C173.118 61.0273 170.298 64.1538 167.39 65.0827C167.296 65.1128 167.199 65.128 167.101 65.1273Z" fill="#999999"/>
<path d="M170.142 68.838C169.617 68.837 169.192 68.4013 169.193 67.8647C169.194 67.441 169.463 67.0666 169.859 66.9395C173.797 65.6804 175.23 63.6128 173.31 54.6783C172.141 50.0637 174.726 45.3243 179.181 43.9172C183.719 42.5968 188.448 45.272 189.764 49.904C190.028 50.8425 191.235 52.6516 198.288 58.3606C198.71 58.6804 198.798 59.2889 198.485 59.7198C198.172 60.1507 197.577 60.2408 197.156 59.921C197.14 59.9091 197.125 59.8967 197.11 59.884C189.317 53.5843 188.308 51.7636 187.937 50.4422C186.919 46.8336 183.237 44.7479 179.704 45.7787C176.215 46.911 174.216 50.6504 175.167 54.2644C177.123 63.3739 175.927 67.0406 170.416 68.7972C170.327 68.8246 170.235 68.8384 170.142 68.838Z" fill="#999999"/>
<path d="M193.9 66.8957C193.648 66.8961 193.406 66.7941 193.227 66.6119C192.589 66.0333 191.923 65.4879 191.231 64.9778C187.827 62.337 182.129 57.9183 180.632 52.5902C180.478 52.0771 180.76 51.5339 181.262 51.3768C181.764 51.2198 182.295 51.5083 182.449 52.0214C182.452 52.0321 182.455 52.043 182.458 52.0538C183.789 56.7601 189.164 60.934 192.379 63.429C193.142 63.9897 193.874 64.5936 194.571 65.238C194.941 65.618 194.94 66.2332 194.569 66.612C194.391 66.7932 194.151 66.8951 193.9 66.8957Z" fill="#999999"/>
<path d="M179.644 74.671H179.583C179.059 74.6377 178.661 74.1766 178.693 73.6411C178.762 72.5161 179.263 66.9004 182.495 66.9004C184.509 67.1399 186.283 68.3692 187.246 70.194C187.453 70.5021 187.681 70.7955 187.926 71.0724C188.291 71.4583 188.281 72.0734 187.903 72.4462C187.535 72.8099 186.951 72.8099 186.583 72.4462C186.269 72.1013 185.978 71.7344 185.714 71.3483C184.904 70.2291 183.905 68.8417 182.494 68.8417C181.464 68.8417 180.714 71.7564 180.594 73.7598C180.563 74.2726 180.146 74.672 179.644 74.671Z" fill="#999999"/>
<path d="M173.944 72.7183C173.419 72.7193 172.993 72.2852 172.992 71.7487C172.991 71.3259 173.258 70.9512 173.652 70.8219C176.054 70.0232 177.643 64.9244 176.841 62.3265C176.653 61.8254 176.898 61.2636 177.388 61.0715C177.878 60.8794 178.428 61.1299 178.615 61.6308C178.629 61.6676 178.641 61.7053 178.65 61.7435C179.659 64.9711 177.89 71.4593 174.237 72.6795C174.142 72.708 174.043 72.7211 173.944 72.7183Z" fill="#999999"/>
<path d="M166.341 53.2911C165.816 53.2911 165.391 52.856 165.391 52.3195C165.401 43.2019 172.628 35.8134 181.546 35.8027C190.315 35.8027 193.453 40.9812 195.743 44.7626C196.825 46.5445 197.758 48.0854 198.946 48.4799C199.447 48.6402 199.726 49.1852 199.569 49.6973C199.412 50.2094 198.879 50.4946 198.378 50.3343C198.372 50.3323 198.365 50.3301 198.359 50.3278C196.508 49.7138 195.405 47.893 194.128 45.7847C191.957 42.2036 189.257 37.7459 181.546 37.7459C173.677 37.7545 167.3 44.2743 167.291 52.3195C167.291 52.856 166.866 53.2911 166.341 53.2911Z" fill="#999999"/>
<path d="M167.291 60.0923C166.931 60.093 166.601 59.8854 166.44 59.556C165.897 58.5123 165.542 57.3777 165.391 56.206C165.391 55.6694 165.816 55.2344 166.341 55.2344C166.866 55.2344 167.291 55.6694 167.291 56.206C167.449 57.0719 167.736 57.9081 168.141 58.6854C168.376 59.1651 168.186 59.7489 167.717 59.9893C167.585 60.0571 167.439 60.0923 167.291 60.0923Z" fill="#999999"/>
<path d="M194.85 39.6856C194.517 39.6858 194.208 39.5082 194.036 39.2174C193.101 37.6395 187.901 33.8562 180.595 33.8562C172.993 33.8562 168.929 37.8261 168.102 39.2174C167.846 39.6857 167.267 39.8532 166.809 39.5914C166.351 39.3296 166.187 38.7376 166.443 38.2693C166.454 38.2487 166.467 38.2286 166.479 38.2089C167.519 36.4581 172.082 31.9131 180.595 31.9131C188.601 31.9131 194.358 36.0131 195.661 38.2108C195.933 38.6698 195.79 39.2672 195.341 39.5451C195.192 39.6368 195.023 39.6855 194.85 39.6856Z" fill="#999999"/>
<path d="M191.047 31.9174C190.942 31.9176 190.837 31.8999 190.737 31.8649C190.357 31.7309 189.989 31.591 189.626 31.455C186.753 30.3068 183.673 29.8018 180.594 29.9743C176.032 29.9743 175.004 30.5125 173.584 31.2568C173.235 31.4414 172.864 31.6338 172.431 31.8397C171.95 32.057 171.388 31.8348 171.175 31.3432C170.963 30.8517 171.18 30.2771 171.661 30.0597C172.062 29.8751 172.402 29.6964 172.725 29.5273C174.31 28.6918 175.571 28.0311 180.594 28.0311C183.899 27.8588 187.203 28.4044 190.287 29.6323C190.637 29.7644 190.986 29.8985 191.355 30.0209C191.855 30.1849 192.13 30.732 191.97 31.2429C191.841 31.6512 191.467 31.9253 191.047 31.9174Z" fill="#999999"/>
<path d="M198.652 45.5202C198.239 45.52 197.873 45.2466 197.747 44.844C197.254 43.5674 196.649 42.3383 195.942 41.1715C195.667 40.7143 195.806 40.1158 196.254 39.8346C196.701 39.5534 197.286 39.6961 197.561 40.1533C198.35 41.4534 199.018 42.826 199.557 44.2533C199.716 44.7645 199.44 45.3112 198.94 45.4742C198.847 45.5046 198.75 45.5202 198.652 45.5202Z" fill="#999999"/>
</g>
</svg>
