<svg width="24" height="24" viewBox="0 0 24 24" fill="none" xmlns="http://www.w3.org/2000/svg">
<path fill-rule="evenodd" clip-rule="evenodd" d="M17.4544 2.18185H6.54528C4.38473 2.18185 2.18164 4.43356 2.18164 6.54549V17.4546C2.18164 19.6575 4.39825 21.8182 6.54528 21.8182H12.6773V14.2244H10.1213V11.4772H12.6773V9.0644C12.6773 6.52913 14.2275 5.14695 16.49 5.14695C17.2526 5.14476 18.0107 5.14695 18.7722 5.14695V7.9124H17.2144C15.9816 7.9124 15.7416 8.49495 15.7416 9.35458V11.4729H18.5021L17.868 14.22H15.7242V21.8182H17.4544C19.6755 21.8182 21.818 19.6261 21.818 17.4546V6.54549C21.818 4.39093 19.6589 2.18185 17.4544 2.18185Z" fill="#1877F2"/>
</svg>
