<svg width="24" height="25" viewBox="0 0 24 25" fill="none" xmlns="http://www.w3.org/2000/svg">
<path fill-rule="evenodd" clip-rule="evenodd" d="M13.9592 18.5234C13.2922 19.1604 12.4092 19.5064 11.4712 19.5004H11.4702C10.5332 19.4924 9.65624 19.1314 9.00024 18.4844C7.65124 17.1554 7.66924 15.0074 9.04124 13.6984L11.2042 11.6304C11.2932 11.5454 11.4132 11.4994 11.5392 11.5004C11.6642 11.5014 11.7842 11.5494 11.8712 11.6354L14.0002 13.7364C15.3492 15.0664 15.3312 17.2134 13.9592 18.5234ZM16.8062 8.4864L12.2132 3.7954C11.8312 3.4044 11.1942 3.4044 10.7982 3.7804C10.5842 3.9844 10.4702 4.2734 10.4892 4.5684C10.4982 4.7084 10.4982 4.8464 10.4982 4.9944C10.4982 7.5514 9.85524 9.0634 9.50024 9.4374C9.34924 9.2714 9.07524 8.8354 8.84424 7.9444C8.75424 7.5964 8.48424 7.3234 8.13724 7.2294C7.78824 7.1374 7.41824 7.2364 7.16524 7.4914L6.18124 8.4844C3.27024 11.4514 3.27424 16.2854 6.18924 19.2564C7.60224 20.7024 9.48524 21.4984 11.4922 21.5004H11.5002C13.5092 21.5004 15.3962 20.7044 16.8152 19.2574C19.7322 16.2854 19.7272 11.4514 16.8062 8.4864Z" fill="#FF5100"/>
</svg>
