<svg width="24" height="25" viewBox="0 0 24 25" fill="none" xmlns="http://www.w3.org/2000/svg">
<path fill-rule="evenodd" clip-rule="evenodd" d="M9.5 2C7.567 2 6 3.567 6 5.5V7H1.5V10L11 9.99964L10.9999 7H8V5.5C8 4.67157 8.67157 4 9.5 4C10.3284 4 11 4.67157 11 5.5L10.9999 7H13V10L22.5 9.99964V7H18V5.5C18 3.567 16.433 2 14.5 2C13.5207 2 12.6353 2.40223 12 3.05051C11.3647 2.40223 10.4793 2 9.5 2ZM16 7H13V5.5C13 4.67157 13.6716 4 14.5 4C15.3284 4 16 4.67157 16 5.5V7Z" fill="#FF5100"/>
<path d="M11 21.4995L6.00019 21.4998C4.34326 21.4999 3 20.1567 3 18.4998V11.5H11V21.4995Z" fill="#FF5100"/>
<path d="M21 18.4997C21 20.1565 19.657 21.4996 18.0002 21.4997L13 21.5V11.5H21V18.4997Z" fill="#FF5100"/>
</svg>
