<svg width="40" height="41" viewBox="0 0 40 41" fill="none" xmlns="http://www.w3.org/2000/svg">
<path d="M35.9998 20.876C35.9998 19.7668 35.9099 18.6516 35.718 17.5604H20.3271V23.8438H29.1408C28.775 25.8704 27.5999 27.6631 25.8791 28.8022V32.8793H31.1373C34.2251 30.0373 35.9998 25.8404 35.9998 20.876Z" fill="#4285F4"/>
<path d="M20.3275 36.8184C24.7283 36.8184 28.4396 35.3734 31.1436 32.8793L25.8855 28.8022C24.4225 29.7975 22.5339 30.3611 20.3335 30.3611C16.0766 30.3611 12.4672 27.4892 11.1722 23.628H5.74609V27.8309C8.51608 33.3409 14.158 36.8184 20.3275 36.8184Z" fill="#34A853"/>
<path d="M11.1656 23.628C10.4821 21.6014 10.4821 19.407 11.1656 17.3805V13.1776H5.7455C3.43119 17.7882 3.43119 23.2203 5.7455 27.8309L11.1656 23.628Z" fill="#FBBC04"/>
<path d="M20.3275 10.6414C22.6538 10.6054 24.9022 11.4808 26.587 13.0876L31.2456 8.429C28.2957 5.65901 24.3806 4.13612 20.3275 4.18408C14.158 4.18408 8.51608 7.66156 5.74609 13.1775L11.1662 17.3805C12.4552 13.5133 16.0706 10.6414 20.3275 10.6414Z" fill="#EA4335"/>
</svg>
