<svg width="24" height="25" viewBox="0 0 24 25" fill="none" xmlns="http://www.w3.org/2000/svg">
<g clip-path="url(#clip0_99_24200)">
<path d="M13.8239 11.9035L13.6532 12.0145L13.8479 11.9293L13.8239 11.9035Z" fill="#21145F"/>
<path d="M17.7797 19.8643L13.6168 15.3049L12.6498 15.728C10.7702 16.5503 8.57587 15.7558 7.65835 13.9208L7.05919 12.7225L10.4784 10.5H6L4.5 17.75L4.82055 17.8569C5.10401 17.9513 5.36581 18.1013 5.59067 18.2981L9.19676 21.4534C10.4353 22.5371 12.2111 22.7517 13.672 21.9941L17.7797 19.8643Z" fill="#21145F"/>
<path d="M17.2955 2.29549L15.7045 0.704498L11.25 5.159L9.0455 2.9545L7.4545 4.54549L11.25 8.34098L17.2955 2.29549Z" fill="#318CDD"/>
<path d="M12.9047 10.7119L9 13.25C9.55253 14.4241 10.9516 14.929 12.1265 14.3782L14 13.5L18.5 18.5L20 17.5L18.25 10.5L17 10.75L15.2673 10.3168C14.4591 10.1148 13.6032 10.2579 12.9047 10.7119Z" fill="#318CDD"/>
<path d="M19.75 10.25L22.25 9.49999L23.75 16.25L21.5 17L19.75 10.25Z" fill="#318CDD"/>
<path d="M3 17.75L0.5 17.5L2 9.49999L4.5 10.25L3 17.75Z" fill="#318CDD"/>
</g>
<defs>
<clipPath id="clip0_99_24200">
<rect width="24" height="24" fill="white" transform="translate(0 0.5)"/>
</clipPath>
</defs>
</svg>
