<svg width="24" height="24" viewBox="0 0 24 24" fill="none" xmlns="http://www.w3.org/2000/svg">
<path fill-rule="evenodd" clip-rule="evenodd" d="M12.5362 8.02422L13.562 6.97505C15.1189 5.38276 17.6809 5.38277 19.2378 6.97505C20.746 8.51753 20.746 10.9822 19.2378 12.5247L12.1386 19.7852C12.0625 19.8631 11.9373 19.8631 11.8612 19.7852L4.76201 12.5247C4.57348 12.3319 4.40853 12.1247 4.26713 11.9067C3.27737 10.3805 3.44234 8.32472 4.76201 6.97505C6.31892 5.38277 8.8809 5.38277 10.4378 6.97505L11.4636 8.02422C11.6048 8.16853 11.7981 8.24988 11.9999 8.24988C12.2017 8.24988 12.3951 8.16853 12.5362 8.02422ZM16.3999 4.28084C17.8188 4.28084 19.2377 4.82935 20.3103 5.92638C22.3885 8.0518 22.3885 11.448 20.3103 13.5734L13.2111 20.8339C12.5466 21.5135 11.4532 21.5135 10.7887 20.8339L3.6895 13.5734C2.65041 12.5107 2.13086 11.1303 2.13086 9.74988C2.13086 8.36948 2.65041 6.98909 3.6895 5.92638C5.8348 3.73232 9.36501 3.73233 11.5103 5.92638L11.9999 6.4271L12.4895 5.92637C13.2665 5.13171 14.2252 4.62486 15.234 4.40584C15.6178 4.3225 16.0088 4.28084 16.3999 4.28084Z" fill="currentColor"/>
</svg>
