<svg width="64" height="64" viewBox="0 0 64 64" fill="none" xmlns="http://www.w3.org/2000/svg">
<g clip-path="url(#clip0_949_259219)">
<path d="M58.4345 15.9215L13.8144 6.96976C10.5655 6.31795 7.40324 8.42336 6.75143 11.6723L0.86471 41.0148C0.212898 44.2638 2.31831 47.426 5.56728 48.0778L50.1873 57.0295C53.4363 57.6813 56.5985 55.5759 57.2503 52.3269L63.137 22.9845C63.7888 19.7355 61.6834 16.5733 58.4345 15.9215Z" fill="#FFD7CF"/>
<g clip-path="url(#clip1_949_259219)">
<path d="M9 12H54.9998C57.7612 12 59.9998 14.2386 59.9998 17V46.9994C59.9998 49.7608 57.7612 51.9994 54.9998 51.9994H8.99999C6.23857 51.9994 4 49.7608 4 46.9994V17C4 14.2386 6.23858 12 9 12Z" fill="#FFF1F2" stroke="white" stroke-width="2"/>
<path d="M13.9125 25.2239C16.2205 25.2239 18.0915 23.3655 18.0915 21.073C18.0915 18.7806 16.2205 16.9222 13.9125 16.9222C11.6044 16.9222 9.7334 18.7806 9.7334 21.073C9.7334 23.3655 11.6044 25.2239 13.9125 25.2239Z" fill="#F6564F"/>
<path d="M48.3338 53H3V50.7146L21.6851 30.602C23.2672 28.899 25.9628 28.8986 27.5454 30.6012L34.3111 37.88L48.3338 53Z" fill="#FFAFA3"/>
<path d="M61.0003 41.1227V53H21.9209L34.3116 37.8801L42.46 27.9319C44.4605 25.4896 48.1957 25.4897 50.1962 27.932L61.0003 41.1227Z" fill="#F6564F"/>
</g>
</g>
<defs>
<clipPath id="clip0_949_259219">
<rect width="64" height="64" fill="white"/>
</clipPath>
<clipPath id="clip1_949_259219">
<rect x="3" y="11" width="58" height="42" rx="6" fill="white"/>
</clipPath>
</defs>
</svg>
