<svg width="24" height="24" viewBox="0 0 24 24" fill="none" xmlns="http://www.w3.org/2000/svg">
<path fill-rule="evenodd" clip-rule="evenodd" d="M3 11.745C3 6.72112 6.93749 3 12.0154 3C17.0934 3 21.0309 6.72338 21.0309 11.7472C21.0309 16.7711 17.0934 20.4922 12.0154 20.4922C11.1026 20.4922 10.2281 20.3705 9.40547 20.1451C9.24544 20.1023 9.07415 20.1136 8.92314 20.1812L7.13358 20.97C7.0255 21.0177 6.90736 21.0381 6.78955 21.0294C6.67173 21.0208 6.55786 20.9833 6.45792 20.9203C6.35799 20.8573 6.27505 20.7707 6.21641 20.6682C6.15776 20.5656 6.12521 20.4503 6.1216 20.3322L6.07201 18.7274C6.0675 18.5291 5.97735 18.3443 5.83085 18.2135C4.07734 16.6449 3 14.373 3 11.745ZM9.24994 10.1019L6.60166 14.3031C6.34697 14.7065 6.84282 15.1596 7.22147 14.8711L10.0658 12.7119C10.1594 12.6408 10.2736 12.6021 10.3911 12.6017C10.5087 12.6013 10.6231 12.6392 10.7172 12.7096L12.8246 14.2896C12.974 14.4018 13.1452 14.4819 13.3271 14.5247C13.5091 14.5675 13.698 14.572 13.8818 14.5382C14.0656 14.5043 14.2404 14.4326 14.3952 14.3278C14.55 14.2229 14.6813 14.0871 14.7809 13.929L17.4315 9.73002C17.6839 9.32658 17.188 8.8713 16.8094 9.1598L13.965 11.319C13.8714 11.3901 13.7572 11.4287 13.6397 11.4292C13.5222 11.4296 13.4077 11.3917 13.3137 11.3212L11.2063 9.74129C11.0568 9.62904 10.8857 9.54899 10.7037 9.5062C10.5218 9.46342 10.3329 9.45882 10.1491 9.49271C9.96522 9.5266 9.79041 9.59823 9.63566 9.70308C9.4809 9.80794 9.34957 9.94374 9.24994 10.1019Z" fill="url(#paint0_radial_888_191730)"/>
<defs>
<radialGradient id="paint0_radial_888_191730" cx="0" cy="0" r="1" gradientUnits="userSpaceOnUse" gradientTransform="translate(6.02017 21.0309) scale(19.834)">
<stop stop-color="#0099FF"/>
<stop offset="0.6" stop-color="#A033FF"/>
<stop offset="0.9" stop-color="#FF5280"/>
<stop offset="1" stop-color="#FF7061"/>
</radialGradient>
</defs>
</svg>
