<svg width="24" height="25" viewBox="0 0 24 25" fill="none" xmlns="http://www.w3.org/2000/svg">
<path d="M16.5568 5.00002C15.8681 4.9996 15.1948 5.20343 14.622 5.58573C14.0492 5.96804 13.6027 6.51164 13.3388 7.14776C13.075 7.78388 13.0058 8.48402 13.1399 9.1595C13.274 9.83498 13.6054 10.4555 14.0923 10.9426C14.5791 11.4297 15.1994 11.7615 15.8749 11.8959C16.5503 12.0304 17.2504 11.9616 17.8867 11.698C18.523 11.4346 19.0668 10.9883 19.4494 10.4157C19.832 9.84308 20.0362 9.16988 20.0362 8.4812C20.0364 8.02412 19.9466 7.57148 19.7718 7.14914C19.5971 6.7268 19.3408 6.34303 19.0177 6.01975C18.6946 5.69647 18.311 5.44001 17.8887 5.26504C17.4665 5.09008 17.0139 5.00002 16.5568 5.00002ZM16.5568 9.99368C16.2575 9.99338 15.9651 9.9044 15.7164 9.73796C15.4677 9.57146 15.274 9.335 15.1596 9.0584C15.0453 8.7818 15.0156 8.47754 15.0742 8.18408C15.1328 7.89062 15.2771 7.6211 15.4889 7.40966C15.7006 7.19816 15.9703 7.05422 16.2639 6.99602C16.5575 6.93788 16.8617 6.968 17.1381 7.08272C17.4145 7.19738 17.6507 7.39148 17.8168 7.64042C17.983 7.88936 18.0716 8.18192 18.0714 8.4812C18.0707 8.88236 17.9111 9.26684 17.6273 9.55034C17.3436 9.8339 16.959 9.99332 16.5579 9.99368" fill="#AD2070"/>
<path d="M6.08835 11.9627V7.44902C6.08835 7.18424 6.32169 6.96692 6.60939 6.96692C6.89703 6.96692 7.12479 7.18238 7.12773 7.44638V11.9627H9.25149V7.44902V7.44608C9.25149 7.18238 9.48429 6.96662 9.77037 6.96662C10.0565 6.96662 10.2896 7.184 10.2896 7.44878V11.9627H12.4118V7.44902C12.4118 6.09959 11.2272 5.00028 9.77037 5.00028C9.20673 4.99831 8.65593 5.16898 8.19213 5.48933C7.72641 5.16941 7.17441 4.99875 6.60939 5.00001C5.15313 5.00001 3.96777 6.09932 3.96777 7.44878V11.9627H6.08835Z" fill="#AD2070"/>
<path d="M16.5568 13.0338C15.8683 13.0335 15.1953 13.2373 14.6226 13.6195C14.05 14.0017 13.6036 14.5451 13.3399 15.181C13.0761 15.8169 13.0068 16.5168 13.1407 17.192C13.2747 17.8673 13.6059 18.4877 14.0925 18.9748C14.579 19.4619 15.199 19.7937 15.8742 19.9284C16.5493 20.0631 17.2492 19.9945 17.8854 19.7314C18.5216 19.4683 19.0655 19.0225 19.4483 18.4503C19.8311 17.8781 20.0356 17.2053 20.0361 16.5168C20.0366 16.0596 19.947 15.6067 19.7723 15.1842C19.5977 14.7616 19.3414 14.3776 19.0183 14.0541C18.6952 13.7307 18.3115 13.474 17.8891 13.299C17.4667 13.1239 17.014 13.0338 16.5568 13.0338ZM16.5568 18.0314C16.2568 18.0317 15.9636 17.943 15.7141 17.7765C15.4645 17.61 15.2701 17.3733 15.1552 17.0962C15.0403 16.8192 15.0101 16.5142 15.0685 16.2201C15.127 15.9259 15.2714 15.6556 15.4835 15.4436C15.6956 15.2315 15.9658 15.0871 16.26 15.0286C16.5542 14.9702 16.8591 15.0003 17.1361 15.1152C17.4132 15.2301 17.6499 15.4246 17.8164 15.6741C17.9829 15.9236 18.0716 16.2169 18.0714 16.5168C18.0707 16.9182 17.9111 17.3029 17.6274 17.5867C17.3437 17.8706 16.9591 18.0305 16.5578 18.0314" fill="#AD2070"/>
<path d="M6.08823 19.9967V15.4852C6.08823 15.2188 6.32157 15.0025 6.60927 15.0025C6.89697 15.0025 7.12473 15.2175 7.12761 15.4819V19.9967H9.25143V15.4852C9.25143 15.4852 9.25143 15.4852 9.25143 15.483C9.25143 15.2167 9.48423 15.0036 9.77031 15.0036C10.0564 15.0036 10.2894 15.2185 10.2894 15.4862V19.9967H12.4116V15.4852C12.4116 14.1352 11.2271 13.0345 9.77031 13.0345C9.20625 13.0316 8.65503 13.203 8.19207 13.5252C7.72743 13.2037 7.17537 13.0324 6.61035 13.0345C5.1541 13.0345 3.96875 14.1349 3.96875 15.4852V19.9967H6.08823Z" fill="#AD2070"/>
</svg>
