<svg width="56" height="56" viewBox="0 0 56 56" fill="none" xmlns="http://www.w3.org/2000/svg">
<path fill-rule="evenodd" clip-rule="evenodd" d="M55 13C55 19.6274 49.6274 25 43 25C36.3726 25 31 19.6274 31 13C31 6.37258 36.3726 1 43 1C49.6274 1 55 6.37258 55 13ZM44.5 6V15H41.5V6H44.5ZM44.5 20V17H41.5V20H44.5Z" fill="#CC0024"/>
<path fill-rule="evenodd" clip-rule="evenodd" d="M47 27.4608C45.7266 27.8122 44.3852 28 43 28C34.7157 28 28 21.2843 28 13C28 9.62318 29.1158 6.50698 30.9989 4H19C13.4772 4 9 8.47715 9 14V54H11L16 49.6731L21 54H23L28 49.6731L33 54H35L40 49.6731L45 54H47V27.4608ZM41 41.5H29V44.5H41V41.5ZM29 35.5H41V38.5H29V35.5ZM14.5 34C14.5 31.6837 16.25 29.7762 18.5 29.5275V27H21.5V29.5H25V32.5H19C18.1716 32.5 17.5 33.1716 17.5 34C17.5 34.8284 18.1716 35.5 19 35.5H21C23.4853 35.5 25.5 37.5147 25.5 40C25.5 42.3163 23.75 44.2238 21.5 44.4725V47H18.5V44.5H15V41.5H21C21.8284 41.5 22.5 40.8284 22.5 40C22.5 39.1716 21.8284 38.5 21 38.5H19C16.5147 38.5 14.5 36.4853 14.5 34Z" fill="#FFC629"/>
</svg>
