<svg width="64" height="64" viewBox="0 0 64 64" fill="none" xmlns="http://www.w3.org/2000/svg">
<path fill-rule="evenodd" clip-rule="evenodd" d="M49.142 28.5716C56.7162 28.5716 62.8563 22.4315 62.8563 14.8574C62.8563 7.28316 56.7162 1.14307 49.142 1.14307C41.5678 1.14307 35.4277 7.28316 35.4277 14.8574C35.4277 22.4315 41.5678 28.5716 49.142 28.5716ZM50.8563 17.1431V6.85735H47.4277V17.1431H50.8563ZM50.8563 19.4288V22.8574H47.4277V19.4288H50.8563Z" fill="#CC0024"/>
<path fill-rule="evenodd" clip-rule="evenodd" d="M35.4282 4.57129H4.57227V50.2856C4.57227 55.335 8.66566 59.4284 13.7151 59.4284H41.1437V30.0226C38.8967 28.8349 36.9456 27.1624 35.4294 25.1444V49.1427H17.1437C13.3566 49.1427 10.2866 46.0727 10.2866 42.2856V10.2856H32.6171C33.1946 8.19311 34.1589 6.26111 35.4282 4.57129ZM25.1437 53.7141C25.1437 54.9765 24.1203 55.9999 22.858 55.9999C21.5956 55.9999 20.5723 54.9765 20.5723 53.7141C20.5723 52.4518 21.5956 51.4284 22.858 51.4284C24.1203 51.4284 25.1437 52.4518 25.1437 53.7141Z" fill="#FFC629"/>
<path d="M17.1437 14.2856C17.1437 13.3388 17.9112 12.5713 18.858 12.5713H26.858C27.8048 12.5713 28.5723 13.3388 28.5723 14.2856C28.5723 15.2323 27.8048 15.9999 26.858 15.9999H18.858C17.9112 15.9999 17.1437 15.2323 17.1437 14.2856Z" fill="#FFC629"/>
</svg>
