<svg width="24" height="24" viewBox="0 0 24 24" fill="none" xmlns="http://www.w3.org/2000/svg">
<path fill-rule="evenodd" clip-rule="evenodd" d="M21.818 5.3388C21.0953 5.68989 20.3189 5.92615 19.504 6.03272C20.3363 5.48749 20.9744 4.62423 21.275 3.59491C20.4971 4.09966 19.6347 4.46644 18.7163 4.6647C17.9815 3.80804 16.9348 3.27274 15.7763 3.27274C13.5514 3.27274 11.748 5.24627 11.748 7.67912C11.748 8.02443 11.7842 8.36148 11.8522 8.68283C8.50431 8.49943 5.53631 6.74481 3.54858 4.07818C3.20269 4.72914 3.00407 5.48584 3.00407 6.29459C3.00407 7.82286 3.71473 9.17187 4.79544 9.96162C4.13538 9.93849 3.51384 9.74023 2.97084 9.41062C2.97084 9.42962 2.97084 9.44696 2.97084 9.46596C2.97084 11.6014 4.35893 13.3825 6.20241 13.7864C5.86483 13.8872 5.50837 13.9409 5.14058 13.9409C4.88154 13.9409 4.62854 13.9128 4.38309 13.8624C4.89589 15.6129 6.38366 16.8876 8.14633 16.9231C6.76807 18.1053 5.03107 18.8099 3.14303 18.8099C2.81829 18.8099 2.49732 18.7893 2.18164 18.748C3.9647 19.9978 6.08157 20.7273 8.35704 20.7273C12.1509 20.7273 15.7692 19.4224 17.7092 16.9231C19.5583 14.5407 19.8182 11.0315 19.8182 8.18965C19.8182 7.99882 19.8144 7.80882 19.8069 7.61964C20.5946 6.99759 21.278 6.22189 21.818 5.3388Z" fill="#1DA1F2"/>
</svg>
