<svg width="24" height="25" viewBox="0 0 24 25" fill="none" xmlns="http://www.w3.org/2000/svg">
<path d="M24 19.5H4.5C2.01472 19.5 0 17.4853 0 15V4.5H24V19.5Z" fill="#EA0029"/>
<path d="M4.94067 15.3427L2.80176 7.5H4.35654L6.38782 14.948C6.4883 15.3165 7.01091 15.3164 7.11139 14.948L9.14267 7.5H10.6975L8.55854 15.3427C8.05612 17.1849 5.44309 17.1849 4.94067 15.3427Z" fill="white"/>
<path fill-rule="evenodd" clip-rule="evenodd" d="M14.9997 16.5H16.4997V13.5H18.7497C20.4065 13.5 21.7497 12.1569 21.7497 10.5C21.7497 8.84315 20.4065 7.5 18.7497 7.5H14.9997V16.5ZM18.7497 12H16.4997V9H18.7497C19.5781 9 20.2497 9.67157 20.2497 10.5C20.2497 11.3284 19.5781 12 18.7497 12Z" fill="white"/>
<path d="M11.9997 7.50002V16.5H13.4997V7.50002H11.9997Z" fill="white"/>
</svg>
