<svg width="40" height="41" viewBox="0 0 40 41" fill="none" xmlns="http://www.w3.org/2000/svg">
<path d="M4.10059 11.357C4.10059 7.56998 7.17056 4.5 10.9576 4.5H29.2428C33.0298 4.5 36.0998 7.56997 36.0998 11.357V29.6335C36.0998 33.4205 33.0298 36.4905 29.2428 36.4905H10.9576C7.17056 36.4905 4.10059 33.4205 4.10059 29.6335V11.357Z" fill="#0068FF"/>
<path fill-rule="evenodd" clip-rule="evenodd" d="M36.0997 18.8372V29.6336C36.0997 33.4206 33.0297 36.4906 29.2427 36.4906H14.6533L9.14746 30.7932L36.0997 18.8372Z" fill="#005BE0"/>
<path fill-rule="evenodd" clip-rule="evenodd" d="M13.3785 4.5C10.3461 6.32056 7.3893 11.0051 7.45417 17.4428C7.50091 22.0804 9.36112 26.1019 10.3124 27.2478C10.6067 29.0077 9.63431 30.1359 9.22358 30.6124C9.20977 30.6285 9.19659 30.6437 9.18412 30.6583C8.70016 31.2229 12.6898 30.6463 13.319 30.1601C13.3682 30.1844 13.446 30.2294 13.5521 30.2908C14.6126 30.9043 18.5031 33.1549 24.9039 32.8056C31.5731 32.4416 34.577 29.8076 36.0989 28.2032V11.357C36.0989 7.56997 33.0289 4.5 29.2419 4.5H13.3785Z" fill="white"/>
<path fill-rule="evenodd" clip-rule="evenodd" d="M22.9746 17.2935V16.8792H24.2154V22.7039H23.5056C23.2133 22.7039 22.9761 22.4679 22.9746 22.1761C22.9744 22.1763 22.9743 22.1764 22.9741 22.1765C22.4743 22.542 21.8565 22.759 21.1892 22.759C19.5181 22.759 18.1631 21.4049 18.1631 19.7348C18.1631 18.0647 19.5181 16.7106 21.1892 16.7106C21.8565 16.7106 22.4743 16.9276 22.9741 17.293C22.9742 17.2932 22.9744 17.2933 22.9746 17.2935ZM17.8416 15.0062V15.195C17.8416 15.5472 17.7945 15.8348 17.5656 16.1721L17.5379 16.2037C17.488 16.2604 17.3707 16.3935 17.3149 16.4657L13.3316 21.4652H17.8416V22.173C17.8416 22.4663 17.6036 22.7039 17.3102 22.7039H11.4668V22.3702C11.4668 21.9614 11.5683 21.7792 11.6967 21.5891L15.943 16.3333H11.6438V15.0062H17.8416ZM25.7203 22.7039C25.4763 22.7039 25.2778 22.5056 25.2778 22.2619V15.0062H26.606V22.7039H25.7203ZM30.5329 16.6742C32.2158 16.6742 33.5795 18.0385 33.5795 19.7187C33.5795 21.4004 32.2158 22.7647 30.5329 22.7647C28.8501 22.7647 27.4864 21.4004 27.4864 19.7187C27.4864 18.0385 28.8501 16.6742 30.5329 16.6742ZM21.1892 21.5141C22.1727 21.5141 22.9697 20.7176 22.9697 19.7348C22.9697 18.7534 22.1727 17.957 21.1892 17.957C20.2058 17.957 19.4088 18.7534 19.4088 19.7348C19.4088 20.7176 20.2058 21.5141 21.1892 21.5141ZM30.5329 21.5111C31.5222 21.5111 32.325 20.7088 32.325 19.7187C32.325 18.7301 31.5222 17.9279 30.5329 17.9279C29.5422 17.9279 28.7408 18.7301 28.7408 19.7187C28.7408 20.7088 29.5422 21.5111 30.5329 21.5111Z" fill="#0068FF"/>
</svg>
