<svg width="56" height="56" viewBox="0 0 56 56" fill="none" xmlns="http://www.w3.org/2000/svg">
<path fill-rule="evenodd" clip-rule="evenodd" d="M25.9562 49H16.3333C11.1787 49 7 44.8213 7 39.6667V3.5H42V24.5C32.335 24.5 24.5 32.335 24.5 42C24.5 44.4889 25.0196 46.8564 25.9562 49ZM36.1667 13.4167H12.8333V9.91667H36.1667V13.4167ZM12.8333 21.5833H31.5V18.0833H12.8333V21.5833ZM19.8333 29.75H12.8333V26.25H19.8333V29.75Z" fill="#FF5100"/>
<path fill-rule="evenodd" clip-rule="evenodd" d="M56 42C56 49.732 49.732 56 42 56C34.268 56 28 49.732 28 42C28 34.268 34.268 28 42 28C49.732 28 56 34.268 56 42ZM35.5833 38.5C35.5833 35.7977 37.625 33.5722 40.25 33.282V31.5H43.75V33.25H46.6667V36.75H40.8333C39.8668 36.75 39.0833 37.5335 39.0833 38.5C39.0833 39.4665 39.8668 40.25 40.8333 40.25H43.1667C46.0662 40.25 48.4167 42.6005 48.4167 45.5C48.4167 48.2023 46.375 50.4278 43.75 50.718V52.5H40.25V50.75H37.3333V47.25H43.1667C44.1332 47.25 44.9167 46.4665 44.9167 45.5C44.9167 44.5335 44.1332 43.75 43.1667 43.75H40.8333C37.9338 43.75 35.5833 41.3995 35.5833 38.5Z" fill="#FF5100"/>
</svg>
