<svg width="28" height="28" viewBox="0 0 28 28" fill="none" xmlns="http://www.w3.org/2000/svg">
<path fill-rule="evenodd" clip-rule="evenodd" d="M21.2725 0.90918H6.727C3.84627 0.90918 0.908813 3.91145 0.908813 6.72736V21.2728C0.908813 24.21 3.86429 27.091 6.727 27.091H14.903V16.9659H11.495V13.303H14.903V10.0859C14.903 6.70554 16.9699 4.86263 19.9866 4.86263C21.0034 4.85973 22.0143 4.86263 23.0295 4.86263V8.54991H20.9525C19.3088 8.54991 18.9888 9.32663 18.9888 10.4728V13.2972H22.6695L21.8239 16.9601H18.9655V27.091H21.2725C24.234 27.091 27.0906 24.1681 27.0906 21.2728V6.72736C27.0906 3.85461 24.2118 0.90918 21.2725 0.90918Z" fill="#1877F2"/>
</svg>
