<svg width="84" height="32" viewBox="0 0 84 32" fill="none" xmlns="http://www.w3.org/2000/svg">
<g clip-path="url(#clip0_5103_113777)">
<path d="M0 27.0001V9.49609H6.232V27.0001H0Z" fill="white"/>
<path d="M16.36 14.424H26.696V19.32H16.36V14.424ZM16.808 27H10.472V4.6H28.04V9.496H16.808V27ZM30.7152 27V9.656H36.7952V27H30.7152ZM33.7552 7.736C32.6459 7.736 31.7499 7.42666 31.0672 6.808C30.3846 6.18933 30.0432 5.42133 30.0432 4.504C30.0432 3.58667 30.3846 2.81867 31.0672 2.2C31.7499 1.58133 32.6459 1.272 33.7552 1.272C34.8646 1.272 35.7606 1.57067 36.4432 2.168C37.1259 2.744 37.4672 3.49067 37.4672 4.408C37.4672 5.368 37.1259 6.168 36.4432 6.808C35.7819 7.42666 34.8859 7.736 33.7552 7.736ZM40.7465 27V3.256H46.8265V27H40.7465ZM73.3697 9.368C74.7137 9.368 75.9084 9.64533 76.9537 10.2C78.0204 10.7333 78.8524 11.5653 79.4497 12.696C80.0684 13.8267 80.3777 15.288 80.3777 17.08V27H74.2977V18.072C74.2977 16.8347 74.0631 15.9387 73.5937 15.384C73.1244 14.808 72.4844 14.52 71.6737 14.52C71.0977 14.52 70.5751 14.6587 70.1057 14.936C69.6364 15.2133 69.2737 15.64 69.0177 16.216C68.7617 16.7707 68.6337 17.496 68.6337 18.392V27H62.5537V18.072C62.5537 16.8347 62.3191 15.9387 61.8497 15.384C61.4017 14.808 60.7617 14.52 59.9297 14.52C59.3324 14.52 58.7991 14.6587 58.3297 14.936C57.8817 15.2133 57.5191 15.64 57.2417 16.216C56.9857 16.7707 56.8577 17.496 56.8577 18.392V27H50.7777V9.656H56.5697V14.488L55.4177 13.112C56.0577 11.8747 56.9324 10.9467 58.0417 10.328C59.1511 9.688 60.3884 9.368 61.7537 9.368C63.3111 9.368 64.6764 9.77333 65.8497 10.584C67.0444 11.3733 67.8444 12.6107 68.2497 14.296L66.2657 13.88C66.8844 12.472 67.8124 11.3733 69.0497 10.584C70.3084 9.77333 71.7484 9.368 73.3697 9.368Z" fill="white"/>
</g>
<defs>
<clipPath id="clip0_5103_113777">
<rect width="83.232" height="32" fill="white"/>
</clipPath>
</defs>
</svg>
