<svg width="108" height="32" viewBox="0 0 108 32" fill="none" xmlns="http://www.w3.org/2000/svg">
<g clip-path="url(#clip0_701_241421)">
<path d="M0 27V9.49597H6.232V27H0Z" fill="#333333"/>
<path d="M21.6719 27.448C19.9013 27.448 18.2586 27.1707 16.7439 26.616C15.2293 26.04 13.9173 25.2293 12.8079 24.184C11.7199 23.1387 10.8666 21.912 10.2479 20.504C9.62927 19.0747 9.31993 17.5067 9.31993 15.8C9.31993 14.0933 9.62927 12.536 10.2479 11.128C10.8666 9.69867 11.7306 8.46133 12.8399 7.416C13.9493 6.37067 15.2613 5.57067 16.7759 5.016C18.3119 4.44 19.9866 4.152 21.7999 4.152C23.9119 4.152 25.7999 4.504 27.4639 5.208C29.1279 5.912 30.5039 6.92533 31.5919 8.248L27.5599 11.896C26.7919 11.064 25.9599 10.4453 25.0639 10.04C24.1893 9.61333 23.2079 9.4 22.1199 9.4C21.1599 9.4 20.2853 9.54933 19.4959 9.848C18.7066 10.1467 18.0346 10.584 17.4799 11.16C16.9253 11.7147 16.4879 12.3867 16.1679 13.176C15.8693 13.944 15.7199 14.8187 15.7199 15.8C15.7199 16.7387 15.8693 17.6027 16.1679 18.392C16.4879 19.1813 16.9253 19.864 17.4799 20.44C18.0346 20.9947 18.6959 21.432 19.4639 21.752C20.2533 22.0507 21.1173 22.2 22.0559 22.2C22.9946 22.2 23.9119 22.0507 24.8079 21.752C25.7039 21.432 26.6106 20.8987 27.5279 20.152L31.0799 24.6C29.7999 25.5173 28.3173 26.2213 26.6319 26.712C24.9466 27.2027 23.2933 27.448 21.6719 27.448ZM25.4799 23.768V15.32H31.0799V24.6L25.4799 23.768ZM45.4009 27V23.768L44.9849 22.968V17.016C44.9849 16.056 44.6863 15.32 44.0889 14.808C43.5129 14.2747 42.5849 14.008 41.3049 14.008C40.4729 14.008 39.6303 14.1467 38.7769 14.424C37.9236 14.68 37.1983 15.0427 36.6009 15.512L34.5529 11.384C35.5343 10.744 36.7076 10.2533 38.0729 9.912C39.4596 9.54933 40.8356 9.368 42.2009 9.368C45.0169 9.368 47.1929 10.0187 48.7289 11.32C50.2863 12.6 51.0649 14.616 51.0649 17.368V27H45.4009ZM40.2809 27.288C38.8943 27.288 37.7209 27.0533 36.7609 26.584C35.8009 26.1147 35.0649 25.4747 34.5529 24.664C34.0623 23.8533 33.8169 22.9467 33.8169 21.944C33.8169 20.8773 34.0836 19.96 34.6169 19.192C35.1716 18.4027 36.0143 17.8053 37.1449 17.4C38.2756 16.9733 39.7369 16.76 41.5289 16.76H45.6249V19.928H42.3609C41.3796 19.928 40.6863 20.088 40.2809 20.408C39.8969 20.728 39.7049 21.1547 39.7049 21.688C39.7049 22.2213 39.9076 22.648 40.3129 22.968C40.7183 23.288 41.2729 23.448 41.9769 23.448C42.6383 23.448 43.2356 23.288 43.7689 22.968C44.3236 22.6267 44.7289 22.1147 44.9849 21.432L45.8169 23.672C45.4969 24.8667 44.8676 25.7733 43.9289 26.392C43.0116 26.9893 41.7956 27.288 40.2809 27.288ZM77.4947 9.368C78.8387 9.368 80.0334 9.64533 81.0787 10.2C82.1454 10.7333 82.9774 11.5653 83.5747 12.696C84.1934 13.8267 84.5027 15.288 84.5027 17.08V27H78.4227V18.072C78.4227 16.8347 78.188 15.9387 77.7187 15.384C77.2494 14.808 76.6094 14.52 75.7987 14.52C75.2227 14.52 74.7 14.6587 74.2307 14.936C73.7614 15.2133 73.3987 15.64 73.1427 16.216C72.8867 16.7707 72.7587 17.496 72.7587 18.392V27H66.6787V18.072C66.6787 16.8347 66.444 15.9387 65.9747 15.384C65.5267 14.808 64.8867 14.52 64.0547 14.52C63.4574 14.52 62.924 14.6587 62.4547 14.936C62.0067 15.2133 61.644 15.64 61.3667 16.216C61.1107 16.7707 60.9827 17.496 60.9827 18.392V27H54.9027V9.656H60.6947V14.488L59.5427 13.112C60.1827 11.8747 61.0574 10.9467 62.1667 10.328C63.276 9.688 64.5134 9.368 65.8787 9.368C67.436 9.368 68.8014 9.77333 69.9747 10.584C71.1694 11.3733 71.9694 12.6107 72.3747 14.296L70.3907 13.88C71.0094 12.472 71.9374 11.3733 73.1747 10.584C74.4334 9.77333 75.8734 9.368 77.4947 9.368ZM97.6469 27.288C95.5989 27.288 93.8069 26.904 92.2709 26.136C90.7563 25.3467 89.5723 24.28 88.7189 22.936C87.8869 21.5707 87.4709 20.024 87.4709 18.296C87.4709 16.568 87.8763 15.032 88.6869 13.688C89.5189 12.3227 90.6603 11.2667 92.1109 10.52C93.5616 9.752 95.1936 9.368 97.0069 9.368C98.7136 9.368 100.271 9.72 101.679 10.424C103.087 11.1067 104.207 12.12 105.039 13.464C105.871 14.808 106.287 16.44 106.287 18.36C106.287 18.5733 106.276 18.8187 106.255 19.096C106.234 19.3733 106.212 19.6293 106.191 19.864H92.4629V16.664H102.959L100.655 17.56C100.676 16.7707 100.527 16.088 100.207 15.512C99.9083 14.936 99.4816 14.488 98.9269 14.168C98.3936 13.848 97.7643 13.688 97.0389 13.688C96.3136 13.688 95.6736 13.848 95.1189 14.168C94.5856 14.488 94.1696 14.9467 93.8709 15.544C93.5723 16.12 93.4229 16.8027 93.4229 17.592V18.52C93.4229 19.3733 93.5936 20.1093 93.9349 20.728C94.2976 21.3467 94.8096 21.8267 95.4709 22.168C96.1323 22.488 96.9216 22.648 97.8389 22.648C98.6923 22.648 99.4176 22.5307 100.015 22.296C100.634 22.04 101.242 21.656 101.839 21.144L105.039 24.472C104.207 25.3893 103.183 26.0933 101.967 26.584C100.751 27.0533 99.3109 27.288 97.6469 27.288Z" fill="#333333"/>
</g>
<defs>
<clipPath id="clip0_701_241421">
<rect width="107.232" height="32" fill="white"/>
</clipPath>
</defs>
</svg>
