<svg width="80" height="32" viewBox="0 0 80 32" fill="none" xmlns="http://www.w3.org/2000/svg">
<g clip-path="url(#clip0_701_244723)">
<path d="M0 27V9.49597H6.232V27H0Z" fill="#333333"/>
<path d="M10.4719 27V4.6H15.6879L24.9679 19.832H22.2159L31.2399 4.6H36.4559L36.5199 27H30.6959L30.6319 13.464H31.6239L24.8719 24.792H22.0559L15.1119 13.464H16.3279V27H10.4719ZM51.3072 27V23.768L50.8912 22.968V17.016C50.8912 16.056 50.5925 15.32 49.9952 14.808C49.4192 14.2747 48.4912 14.008 47.2112 14.008C46.3792 14.008 45.5365 14.1467 44.6832 14.424C43.8299 14.68 43.1045 15.0427 42.5072 15.512L40.4592 11.384C41.4405 10.744 42.6139 10.2533 43.9792 9.912C45.3659 9.54933 46.7419 9.368 48.1072 9.368C50.9232 9.368 53.0992 10.0187 54.6352 11.32C56.1925 12.6 56.9712 14.616 56.9712 17.368V27H51.3072ZM46.1872 27.288C44.8005 27.288 43.6272 27.0533 42.6672 26.584C41.7072 26.1147 40.9712 25.4747 40.4592 24.664C39.9685 23.8533 39.7232 22.9467 39.7232 21.944C39.7232 20.8773 39.9899 19.96 40.5232 19.192C41.0779 18.4027 41.9205 17.8053 43.0512 17.4C44.1819 16.9733 45.6432 16.76 47.4352 16.76H51.5312V19.928H48.2672C47.2859 19.928 46.5925 20.088 46.1872 20.408C45.8032 20.728 45.6112 21.1547 45.6112 21.688C45.6112 22.2213 45.8139 22.648 46.2192 22.968C46.6245 23.288 47.1792 23.448 47.8832 23.448C48.5445 23.448 49.1419 23.288 49.6752 22.968C50.2299 22.6267 50.6352 22.1147 50.8912 21.432L51.7232 23.672C51.4032 24.8667 50.7739 25.7733 49.8352 26.392C48.9179 26.9893 47.7019 27.288 46.1872 27.288ZM60.8089 27V3.256H66.8889V27H60.8089ZM70.8402 27V3.256H76.9202V27H70.8402Z" fill="#333333"/>
</g>
<defs>
<clipPath id="clip0_701_244723">
<rect width="79.232" height="32" fill="white"/>
</clipPath>
</defs>
</svg>
