<svg width="28" height="28" viewBox="0 0 28 28" fill="none" xmlns="http://www.w3.org/2000/svg">
<path d="M9.5618 14.0003C9.5618 11.5458 11.5522 9.55553 14.0082 9.55553C16.4642 9.55553 18.4557 11.5458 18.4557 14.0003C18.4557 16.4548 16.4642 18.4451 14.0082 18.4451C11.5522 18.4451 9.5618 16.4548 9.5618 14.0003ZM7.15759 14.0003C7.15759 17.7817 10.2246 20.8468 14.0082 20.8468C17.7918 20.8468 20.8588 17.7817 20.8588 14.0003C20.8588 10.219 17.7918 7.15382 14.0082 7.15382C10.2246 7.15382 7.15759 10.219 7.15759 14.0003ZM19.5291 6.88235C19.5289 7.1988 19.6227 7.50818 19.7985 7.77137C19.9743 8.03456 20.2243 8.23974 20.5168 8.36096C20.8093 8.48217 21.1311 8.51399 21.4417 8.45237C21.7523 8.39076 22.0376 8.23849 22.2616 8.01482C22.4856 7.79114 22.6382 7.50611 22.7001 7.19577C22.762 6.88542 22.7304 6.5637 22.6094 6.27129C22.4883 5.97888 22.2832 5.72891 22.02 5.553C21.7568 5.37708 21.4473 5.28312 21.1307 5.28299H21.13C20.7056 5.28319 20.2986 5.45174 19.9984 5.75161C19.6982 6.05149 19.5294 6.45818 19.5291 6.88235ZM8.61831 24.8533C7.31758 24.7941 6.61059 24.5776 6.14077 24.3947C5.51789 24.1523 5.07346 23.8637 4.60619 23.3973C4.13893 22.931 3.84969 22.4873 3.60826 21.8648C3.42511 21.3954 3.20845 20.6886 3.14932 19.3887C3.08464 17.9833 3.07173 17.5611 3.07173 14.0004C3.07173 10.4398 3.08571 10.0188 3.14932 8.61217C3.20855 7.31222 3.42682 6.60683 3.60826 6.13611C3.85075 5.51361 4.13957 5.06945 4.60619 4.60246C5.07282 4.13547 5.51682 3.84641 6.14077 3.60513C6.61038 3.42209 7.31758 3.20555 8.61831 3.14646C10.0246 3.08182 10.447 3.06891 14.0082 3.06891C17.5694 3.06891 17.9922 3.08289 19.3997 3.14646C20.7004 3.20566 21.4062 3.42379 21.8772 3.60513C22.5001 3.84641 22.9446 4.13611 23.4118 4.60246C23.8791 5.06881 24.1673 5.51361 24.4097 6.13611C24.5929 6.60545 24.8096 7.31222 24.8687 8.61217C24.9334 10.0188 24.9463 10.4398 24.9463 14.0004C24.9463 17.5611 24.9334 17.9821 24.8687 19.3887C24.8095 20.6886 24.5917 21.3952 24.4097 21.8648C24.1673 22.4873 23.8784 22.9314 23.4118 23.3973C22.9452 23.8633 22.5001 24.1523 21.8772 24.3947C21.4076 24.5777 20.7004 24.7942 19.3997 24.8533C17.9934 24.918 17.571 24.9309 14.0082 24.9309C10.4454 24.9309 10.0242 24.918 8.61831 24.8533ZM8.50784 0.747739C7.08757 0.812379 6.11707 1.03745 5.26952 1.36705C4.39177 1.70742 3.64871 2.16406 2.90619 2.90497C2.16366 3.64587 1.70792 4.38966 1.36734 5.26689C1.03755 6.11446 0.812344 7.08385 0.747665 8.50326C0.681919 9.92491 0.66687 10.3794 0.66687 14.0003C0.66687 17.6212 0.681919 18.0757 0.747665 19.4974C0.812344 20.9169 1.03755 21.8862 1.36734 22.7338C1.70792 23.6105 2.16377 24.3551 2.90619 25.0957C3.6486 25.8363 4.39177 26.2923 5.26952 26.6336C6.11867 26.9632 7.08757 27.1883 8.50784 27.2529C9.93109 27.3176 10.3851 27.3337 14.0082 27.3337C17.6313 27.3337 18.0861 27.3186 19.5086 27.2529C20.9289 27.1883 21.8988 26.9632 22.7469 26.6336C23.6241 26.2923 24.3677 25.8366 25.1102 25.0957C25.8527 24.3548 26.3075 23.6105 26.6491 22.7338C26.9789 21.8862 27.2051 20.9168 27.2687 19.4974C27.3334 18.0747 27.3485 17.6212 27.3485 14.0003C27.3485 10.3794 27.3334 9.92491 27.2687 8.50326C27.2041 7.08374 26.9789 6.11393 26.6491 5.26689C26.3075 4.39019 25.8516 3.64705 25.1102 2.90497C24.3689 2.16289 23.6241 1.70742 22.748 1.36705C21.8988 1.03745 20.9288 0.811312 19.5096 0.747739C18.0871 0.683099 17.6324 0.666992 14.0093 0.666992C10.3862 0.666992 9.93109 0.682032 8.50784 0.747739Z" fill="url(#paint0_linear_5401_3177)"/>
<defs>
<linearGradient id="paint0_linear_5401_3177" x1="26.8357" y1="27.3337" x2="0.168987" y2="0.652063" gradientUnits="userSpaceOnUse">
<stop stop-color="#FBE18A"/>
<stop offset="0.21" stop-color="#FCBB45"/>
<stop offset="0.38" stop-color="#F75274"/>
<stop offset="0.52" stop-color="#D53692"/>
<stop offset="0.74" stop-color="#8F39CE"/>
<stop offset="1" stop-color="#5B4FE9"/>
</linearGradient>
</defs>
</svg>
