<svg width="120" height="56" viewBox="0 0 120 56" fill="none" xmlns="http://www.w3.org/2000/svg">
<g clip-path="url(#clip0_366_80489)">
<path d="M94.6266 15.0296C94.0559 14.159 93.1981 13.5133 92.2007 13.2034C91.2033 12.8935 90.1285 12.9388 89.1611 13.3316C88.1936 13.7243 87.3939 14.4399 86.8993 15.3555C86.4047 16.271 86.2462 17.3293 86.4509 18.3484C86.6557 19.3676 87.211 20.284 88.0213 20.9402C88.8316 21.5964 89.8464 21.9514 90.8914 21.9442C91.9363 21.9369 92.946 21.568 93.7471 20.9006C94.5482 20.2333 95.0906 19.3093 95.2811 18.2874C95.4015 17.7287 95.4055 17.1514 95.2929 16.5911C95.1804 16.0308 94.9536 15.4994 94.6266 15.0296Z" fill="#EA0029"/>
<path d="M32.0395 20.4919H24.6875V41.5477H32.0395V20.4919Z" fill="#EA0029"/>
<path d="M48.7905 15.5552H41.4971L39.9416 20.4828H34.9082V26.2714H38.1102C37.5232 28.1475 37.0869 29.6781 36.8012 30.8632C36.5425 31.8222 36.3958 32.8076 36.3639 33.7999C36.3639 36.4738 37.1466 38.5075 38.7119 39.9009C40.2772 41.2943 42.5576 41.9901 45.5532 41.9881C47.2405 41.9603 48.9066 41.6095 50.4604 40.9547L49.7942 35.2478C48.8883 35.5841 47.9317 35.7656 46.9649 35.7849C45.9406 35.7849 45.1629 35.5222 44.6375 34.9997C44.1122 34.4771 43.848 33.7328 43.848 32.7665C43.848 31.7448 44.1944 30.1043 44.887 27.8448L45.3859 26.2714H51.1237V20.4828H47.2173L48.7905 15.5552Z" fill="#EA0029"/>
<path d="M82.5078 35.078C82.1964 34.8091 81.9491 34.4748 81.7836 34.0992C81.6182 33.7236 81.5387 33.3161 81.551 32.9062C81.5527 32.5466 81.5801 32.1876 81.6331 31.8319L83.849 20.7391L85.1433 14.1798C82.5046 14.3567 79.9046 14.9062 77.4215 15.8116L75.8396 23.6028H75.8631H75.8396L74.4807 30.4074C74.2123 31.6549 74.0727 32.9265 74.0639 34.2023C74.0482 35.6054 74.4384 36.9835 75.188 38.1723C75.9498 39.3705 77.0294 40.3362 78.3079 40.963C79.7013 41.654 81.2415 42.0014 82.7983 41.9759C83.2887 41.9792 83.7788 41.9519 84.2658 41.8942L85.5131 35.8954H85.0142C84.1048 35.9483 83.2091 35.6562 82.5078 35.078Z" fill="#EA0029"/>
<path d="M71.8458 24.9313C70.9816 23.3324 69.6829 22.0073 68.0979 21.1072C68.0627 21.0839 68.0275 21.0605 67.9893 21.0401C66.2217 20.1209 64.2553 19.6444 62.2607 19.6521C60.2661 19.6597 58.3035 20.1512 56.543 21.0839C54.8912 22.0069 53.5358 23.3763 52.6337 25.0335C51.6796 26.8151 51.1997 28.8098 51.2396 30.828C51.2002 32.8502 51.6951 34.8472 52.6748 36.6196C53.6071 38.2778 54.9838 39.6461 56.6516 40.5721C57.3502 40.9617 58.0905 41.2721 58.8587 41.4975C60.0332 41.8379 61.2512 42.007 62.4746 41.9996C63.4282 42.0001 64.3793 41.9023 65.3126 41.7077C66.0438 41.5548 66.7584 41.3319 67.4463 41.0421C68.8513 40.4647 70.0883 39.5464 71.0446 38.3711C71.0945 38.3098 71.1326 38.2397 71.1796 38.1755L66.3545 35.3089L65.6061 34.8681C65.3782 35.1945 65.0928 35.4774 64.7638 35.703C64.0884 36.1548 63.2883 36.3864 62.4746 36.3656C62.0045 36.3802 61.5362 36.3018 61.0969 36.1349C60.6575 35.968 60.2559 35.716 59.9153 35.3935C59.836 35.3176 59.7627 35.2388 59.6893 35.1571C59.1427 34.524 58.8318 33.7231 58.8088 32.8889H72.9934C73.125 32.1378 73.1947 31.3773 73.2018 30.6149C73.2231 29.0153 72.9238 27.4275 72.3213 25.9443C72.1818 25.5981 72.023 25.2599 71.8458 24.9313ZM64.8166 26.099C65.1395 26.379 65.3963 26.7264 65.5688 27.1165C65.7412 27.5065 65.8251 27.9295 65.8145 28.3555H58.8264C58.8377 27.9261 58.9355 27.5034 59.1139 27.1123C59.2924 26.7212 59.5479 26.3697 59.8654 26.0785C60.5127 25.4932 61.3623 25.1794 62.2368 25.2028C62.886 25.1896 63.529 25.3307 64.1123 25.6144C64.3661 25.742 64.6027 25.9009 64.8166 26.0873V26.099Z" fill="#EA0029"/>
<path d="M77.4006 15.8118L75.8392 23.6235C78.294 22.1527 81.0153 21.1757 83.8486 20.7481L85.1635 14.1683C82.5109 14.3491 79.8973 14.9024 77.4006 15.8118ZM71.8477 24.9458C72.0305 25.2798 72.1941 25.6239 72.3378 25.9763C70.2242 27.9391 68.5172 30.2943 67.3132 32.9093H60.3721C60.9085 31.3359 61.5842 29.8129 62.3913 28.3583H65.8164C65.827 27.9324 65.7431 27.5093 65.5706 27.1193C65.3981 26.7293 65.1413 26.3819 64.8185 26.1018C64.6048 25.9144 64.3681 25.7545 64.1141 25.626C65.2794 23.9847 66.6153 22.47 68.0998 21.1072C69.6848 22.0072 70.9835 23.3323 71.8477 24.9312V24.9458Z" fill="url(#paint0_linear_366_80489)"/>
</g>
<defs>
<linearGradient id="paint0_linear_366_80489" x1="84.0472" y1="15.2656" x2="67.2816" y2="37.0156" gradientUnits="userSpaceOnUse">
<stop offset="0.49353" stop-color="#FFDBA5"/>
<stop offset="1" stop-color="#FFE975" stop-opacity="0"/>
</linearGradient>
<clipPath id="clip0_366_80489">
<rect width="70.6875" height="29" fill="white" transform="translate(24.6875 13)"/>
</clipPath>
</defs>
</svg>
