<svg width="182" height="33" viewBox="0 0 182 33" fill="none" xmlns="http://www.w3.org/2000/svg">
<path d="M77.6752 2.23961C77.0455 1.27893 76.099 0.566394 74.9984 0.224456C73.8978 -0.117482 72.7118 -0.0674847 71.6443 0.365872C70.5767 0.799229 69.6943 1.58889 69.1485 2.59913C68.6028 3.60938 68.4279 4.77713 68.6538 5.90173C68.8797 7.02633 69.4924 8.03756 70.3866 8.76163C71.2808 9.4857 72.4006 9.87739 73.5536 9.86942C74.7066 9.86145 75.8208 9.4543 76.7048 8.71794C77.5887 7.98158 78.1872 6.96199 78.3974 5.83438C78.5303 5.2179 78.5347 4.58089 78.4105 3.96263C78.2863 3.34437 78.0361 2.75798 77.6752 2.23961Z" fill="white"/>
<path d="M8.61257 8.26685H0.5V31.5009H8.61257V8.26685Z" fill="white"/>
<path d="M27.0967 2.81958H19.0489L17.3324 8.25685H11.7783V14.6443H15.3116C14.6639 16.7145 14.1824 18.4034 13.8672 19.7112C13.5817 20.7693 13.4198 21.8566 13.3846 22.9516C13.3846 25.9022 14.2483 28.1462 15.9755 29.6838C17.7027 31.2213 20.2191 31.989 23.5246 31.9869C25.3864 31.9562 27.2248 31.5691 28.9394 30.8466L28.2043 24.5493C27.2046 24.9204 26.1491 25.1207 25.0823 25.142C23.952 25.142 23.0938 24.8521 22.5141 24.2755C21.9344 23.6989 21.643 22.8776 21.643 21.8114C21.643 20.684 22.0251 18.8737 22.7894 16.3805L23.34 14.6443H29.6713V8.25685H25.3608L27.0967 2.81958Z" fill="white"/>
<path d="M64.3012 24.3619C63.9577 24.0652 63.6848 23.6963 63.5022 23.2819C63.3196 22.8674 63.2319 22.4177 63.2455 21.9654C63.2473 21.5687 63.2776 21.1725 63.3361 20.7801L65.7812 8.53977L67.2094 1.30188C64.2977 1.49711 61.4288 2.1034 58.6888 3.1025L56.9432 11.6997H56.9691H56.9432L55.4438 19.2081C55.1477 20.5848 54.9936 21.9879 54.9839 23.3956C54.9665 24.9439 55.3971 26.4646 56.2243 27.7763C57.0648 29.0985 58.2561 30.1641 59.6669 30.8557C61.2045 31.6182 62.9039 32.0016 64.6218 31.9735C65.163 31.9771 65.7038 31.9469 66.2411 31.8833L67.6175 25.2639H67.0669C66.0635 25.3223 65.0751 25 64.3012 24.3619Z" fill="white"/>
<path d="M52.5363 13.1655C51.5827 11.4012 50.1497 9.93904 48.4007 8.94588C48.3618 8.92011 48.323 8.89432 48.2809 8.87178C46.3304 7.85749 44.1606 7.33177 41.9597 7.34019C39.7587 7.34861 37.5931 7.89093 35.6505 8.9201C33.8277 9.93863 32.3321 11.4496 31.3367 13.2783C30.284 15.2442 29.7544 17.4453 29.7984 19.6722C29.755 21.9036 30.3011 24.1073 31.3821 26.063C32.4108 27.8927 33.9299 29.4025 35.7703 30.4244C36.5412 30.8542 37.3581 31.1967 38.2057 31.4455C39.5018 31.8211 40.8457 32.0077 42.1956 31.9995C43.2479 32.0001 44.2974 31.8921 45.3273 31.6774C46.1341 31.5087 46.9226 31.2627 47.6817 30.943C49.232 30.3058 50.597 29.2926 51.6522 27.9956C51.7073 27.928 51.7494 27.8507 51.8012 27.7798L46.477 24.6167L45.6512 24.1303C45.3996 24.4905 45.0847 24.8026 44.7217 25.0515C43.9764 25.5501 43.0935 25.8057 42.1956 25.7827C41.6769 25.7988 41.1602 25.7123 40.6754 25.5281C40.1906 25.344 39.7475 25.0659 39.3716 24.7101C39.2842 24.6263 39.2032 24.5394 39.1222 24.4492C38.5191 23.7506 38.176 22.8668 38.1507 21.9463H53.8026C53.9479 21.1176 54.0248 20.2783 54.0325 19.4371C54.0561 17.672 53.7258 15.92 53.061 14.2833C52.907 13.9013 52.7319 13.5282 52.5363 13.1655ZM44.78 14.454C45.1362 14.763 45.4196 15.1464 45.6099 15.5768C45.8002 16.0071 45.8928 16.4739 45.8811 16.9439H38.1701C38.1825 16.4702 38.2904 16.0037 38.4873 15.5721C38.6843 15.1406 38.9662 14.7527 39.3166 14.4314C40.0308 13.7856 40.9684 13.4393 41.9333 13.4651C42.6496 13.4505 43.3591 13.6063 44.0027 13.9193C44.2828 14.0601 44.544 14.2354 44.78 14.4411V14.454Z" fill="white"/>
<path d="M58.6661 3.10268L56.9432 11.7224C59.6519 10.0995 62.6547 9.02148 65.7812 8.5496L67.232 1.28918C64.305 1.48865 61.4211 2.09921 58.6661 3.10268ZM52.5387 13.1816C52.7404 13.5501 52.921 13.9298 53.0796 14.3187C50.7473 16.4845 48.8637 19.0834 47.5352 21.9688H39.876C40.4679 20.2327 41.2135 18.5522 42.1041 16.9471H45.8835C45.8952 16.4771 45.8026 16.0103 45.6123 15.5799C45.422 15.1495 45.1386 14.7662 44.7824 14.4572C44.5465 14.2503 44.2854 14.0739 44.0051 13.9321C45.291 12.121 46.7651 10.4497 48.4031 8.94581C50.1521 9.93898 51.5851 11.4011 52.5387 13.1655V13.1816Z" fill="url(#paint0_linear_5636_1395)"/>
<path d="M82.932 32L87.252 26.048L82.932 20.096H86.22L89.244 24.32L92.244 20.096H95.556L91.212 26.048L95.556 32H92.244L89.244 27.776L86.22 32H82.932ZM108.176 32L102.032 15.2H105.32L110.072 28.856L114.848 15.2H118.088L111.944 32H108.176ZM124.367 32.288C123.167 32.288 122.103 32.032 121.175 31.52C120.247 31.008 119.519 30.288 118.991 29.36C118.463 28.432 118.199 27.36 118.199 26.144C118.199 24.912 118.455 23.816 118.967 22.856C119.495 21.896 120.215 21.152 121.127 20.624C122.055 20.08 123.143 19.808 124.391 19.808C125.559 19.808 126.591 20.064 127.487 20.576C128.383 21.088 129.079 21.792 129.575 22.688C130.087 23.568 130.343 24.552 130.343 25.64C130.343 25.816 130.335 26 130.319 26.192C130.319 26.384 130.311 26.584 130.295 26.792H121.247C121.311 27.72 121.631 28.448 122.207 28.976C122.799 29.504 123.511 29.768 124.343 29.768C124.967 29.768 125.487 29.632 125.903 29.36C126.335 29.072 126.655 28.704 126.863 28.256H129.983C129.759 29.008 129.383 29.696 128.855 30.32C128.343 30.928 127.703 31.408 126.935 31.76C126.183 32.112 125.327 32.288 124.367 32.288ZM124.391 22.304C123.639 22.304 122.975 22.52 122.399 22.952C121.823 23.368 121.455 24.008 121.295 24.872H127.223C127.175 24.088 126.887 23.464 126.359 23C125.831 22.536 125.175 22.304 124.391 22.304ZM130.979 32L135.299 26.048L130.979 20.096H134.267L137.291 24.32L140.291 20.096H143.603L139.259 26.048L143.603 32H140.291L137.291 27.776L134.267 32H130.979ZM150.711 32.288C149.511 32.288 148.447 32.032 147.519 31.52C146.591 31.008 145.863 30.288 145.335 29.36C144.807 28.432 144.543 27.36 144.543 26.144C144.543 24.912 144.799 23.816 145.311 22.856C145.839 21.896 146.559 21.152 147.471 20.624C148.399 20.08 149.487 19.808 150.735 19.808C151.903 19.808 152.935 20.064 153.831 20.576C154.727 21.088 155.423 21.792 155.919 22.688C156.431 23.568 156.687 24.552 156.687 25.64C156.687 25.816 156.679 26 156.663 26.192C156.663 26.384 156.655 26.584 156.639 26.792H147.591C147.655 27.72 147.975 28.448 148.551 28.976C149.143 29.504 149.855 29.768 150.687 29.768C151.311 29.768 151.831 29.632 152.247 29.36C152.679 29.072 152.999 28.704 153.207 28.256H156.327C156.103 29.008 155.727 29.696 155.199 30.32C154.687 30.928 154.047 31.408 153.279 31.76C152.527 32.112 151.671 32.288 150.711 32.288ZM150.735 22.304C149.983 22.304 149.319 22.52 148.743 22.952C148.167 23.368 147.799 24.008 147.639 24.872H153.567C153.519 24.088 153.231 23.464 152.703 23C152.175 22.536 151.519 22.304 150.735 22.304ZM159.271 32V20.096H162.007L162.295 22.328C162.727 21.56 163.311 20.952 164.047 20.504C164.799 20.04 165.679 19.808 166.687 19.808V23.048H165.823C165.151 23.048 164.551 23.152 164.023 23.36C163.495 23.568 163.079 23.928 162.775 24.44C162.487 24.952 162.343 25.664 162.343 26.576V32H159.271ZM174.36 32.288C173.16 32.288 172.096 32.032 171.168 31.52C170.24 31.008 169.512 30.288 168.984 29.36C168.456 28.432 168.192 27.36 168.192 26.144C168.192 24.912 168.448 23.816 168.96 22.856C169.488 21.896 170.208 21.152 171.12 20.624C172.048 20.08 173.136 19.808 174.384 19.808C175.552 19.808 176.584 20.064 177.48 20.576C178.376 21.088 179.072 21.792 179.568 22.688C180.08 23.568 180.336 24.552 180.336 25.64C180.336 25.816 180.328 26 180.312 26.192C180.312 26.384 180.304 26.584 180.288 26.792H171.24C171.304 27.72 171.624 28.448 172.2 28.976C172.792 29.504 173.504 29.768 174.336 29.768C174.96 29.768 175.48 29.632 175.896 29.36C176.328 29.072 176.648 28.704 176.856 28.256H179.976C179.752 29.008 179.376 29.696 178.848 30.32C178.336 30.928 177.696 31.408 176.928 31.76C176.176 32.112 175.32 32.288 174.36 32.288ZM174.384 22.304C173.632 22.304 172.968 22.52 172.392 22.952C171.816 23.368 171.448 24.008 171.288 24.872H177.216C177.168 24.088 176.88 23.464 176.352 23C175.824 22.536 175.168 22.304 174.384 22.304Z" fill="white"/>
<defs>
<linearGradient id="paint0_linear_5636_1395" x1="66.0002" y1="2.49997" x2="47.5002" y2="26.5" gradientUnits="userSpaceOnUse">
<stop offset="0.49353" stop-color="#FFDBA5"/>
<stop offset="1" stop-color="#FFE975" stop-opacity="0"/>
</linearGradient>
</defs>
</svg>
