<svg width="160" height="33" viewBox="0 0 160 33" fill="none" xmlns="http://www.w3.org/2000/svg">
<path d="M77.6752 2.23961C77.0455 1.27893 76.099 0.566394 74.9984 0.224456C73.8978 -0.117482 72.7118 -0.0674847 71.6443 0.365872C70.5767 0.799229 69.6943 1.58889 69.1485 2.59913C68.6028 3.60938 68.4279 4.77713 68.6538 5.90173C68.8797 7.02633 69.4924 8.03756 70.3866 8.76163C71.2808 9.4857 72.4006 9.87739 73.5536 9.86942C74.7066 9.86145 75.8208 9.4543 76.7048 8.71794C77.5887 7.98158 78.1872 6.96199 78.3974 5.83438C78.5303 5.2179 78.5347 4.58089 78.4105 3.96263C78.2863 3.34437 78.0361 2.75798 77.6752 2.23961Z" fill="white"/>
<path d="M8.61257 8.26685H0.5V31.5009H8.61257V8.26685Z" fill="white"/>
<path d="M27.0967 2.81958H19.0489L17.3324 8.25685H11.7783V14.6443H15.3116C14.6639 16.7145 14.1824 18.4034 13.8672 19.7112C13.5817 20.7693 13.4198 21.8566 13.3846 22.9516C13.3846 25.9022 14.2483 28.1462 15.9755 29.6838C17.7027 31.2213 20.2191 31.989 23.5246 31.9869C25.3864 31.9562 27.2248 31.5691 28.9394 30.8466L28.2043 24.5493C27.2046 24.9204 26.1491 25.1207 25.0823 25.142C23.952 25.142 23.0938 24.8521 22.5141 24.2755C21.9344 23.6989 21.643 22.8776 21.643 21.8114C21.643 20.684 22.0251 18.8737 22.7894 16.3805L23.34 14.6443H29.6713V8.25685H25.3608L27.0967 2.81958Z" fill="white"/>
<path d="M64.3012 24.3618C63.9577 24.0651 63.6848 23.6962 63.5022 23.2817C63.3196 22.8673 63.2319 22.4176 63.2455 21.9653C63.2473 21.5685 63.2776 21.1724 63.3361 20.7799L65.7812 8.53964L67.2094 1.30176C64.2977 1.49699 61.4288 2.10328 58.6888 3.10238L56.9432 11.6996H56.9691H56.9432L55.4438 19.208C55.1477 20.5847 54.9936 21.9877 54.9839 23.3955C54.9665 24.9438 55.3971 26.4644 56.2243 27.7762C57.0648 29.0984 58.2561 30.164 59.6669 30.8556C61.2045 31.6181 62.9039 32.0015 64.6218 31.9734C65.163 31.977 65.7038 31.9468 66.2411 31.8832L67.6175 25.2637H67.0669C66.0635 25.3221 65.0751 24.9998 64.3012 24.3618Z" fill="white"/>
<path d="M52.5363 13.1655C51.5827 11.4012 50.1497 9.93904 48.4007 8.94588C48.3618 8.92011 48.323 8.89432 48.2809 8.87178C46.3304 7.85749 44.1606 7.33177 41.9597 7.34019C39.7587 7.34861 37.5931 7.89093 35.6505 8.9201C33.8277 9.93863 32.3321 11.4496 31.3367 13.2783C30.284 15.2442 29.7544 17.4453 29.7984 19.6722C29.755 21.9036 30.3011 24.1073 31.3821 26.063C32.4108 27.8927 33.9299 29.4025 35.7703 30.4244C36.5412 30.8542 37.3581 31.1967 38.2057 31.4455C39.5018 31.8211 40.8457 32.0077 42.1956 31.9995C43.2479 32.0001 44.2974 31.8921 45.3273 31.6774C46.1341 31.5087 46.9226 31.2627 47.6817 30.943C49.232 30.3058 50.597 29.2926 51.6522 27.9956C51.7073 27.928 51.7494 27.8507 51.8012 27.7798L46.477 24.6167L45.6512 24.1303C45.3996 24.4905 45.0847 24.8026 44.7217 25.0515C43.9764 25.5501 43.0935 25.8057 42.1956 25.7827C41.6769 25.7988 41.1602 25.7123 40.6754 25.5281C40.1906 25.344 39.7475 25.0659 39.3716 24.7101C39.2842 24.6263 39.2032 24.5394 39.1222 24.4492C38.5191 23.7506 38.176 22.8668 38.1507 21.9463H53.8026C53.9479 21.1176 54.0248 20.2783 54.0325 19.4371C54.0561 17.672 53.7258 15.92 53.061 14.2833C52.907 13.9013 52.7319 13.5282 52.5363 13.1655ZM44.78 14.454C45.1362 14.763 45.4196 15.1464 45.6099 15.5768C45.8002 16.0071 45.8928 16.4739 45.8811 16.9439H38.1701C38.1825 16.4702 38.2904 16.0037 38.4873 15.5721C38.6843 15.1406 38.9662 14.7527 39.3166 14.4314C40.0308 13.7856 40.9684 13.4393 41.9333 13.4651C42.6496 13.4505 43.3591 13.6063 44.0027 13.9193C44.2828 14.0601 44.544 14.2354 44.78 14.4411V14.454Z" fill="white"/>
<path d="M58.6661 3.1028L56.9432 11.7225C59.6519 10.0996 62.6547 9.02161 65.7812 8.54972L67.232 1.28931C64.305 1.48877 61.4211 2.09933 58.6661 3.1028ZM52.5387 13.1817C52.7404 13.5503 52.921 13.9299 53.0796 14.3188C50.7473 16.4846 48.8637 19.0835 47.5352 21.969H39.876C40.4679 20.2328 41.2135 18.5523 42.1041 16.9472H45.8835C45.8952 16.4772 45.8026 16.0104 45.6123 15.58C45.422 15.1496 45.1386 14.7663 44.7824 14.4573C44.5465 14.2504 44.2854 14.074 44.0051 13.9322C45.291 12.1211 46.7651 10.4498 48.4031 8.94593C50.1521 9.9391 51.5851 11.4013 52.5387 13.1656V13.1817Z" fill="url(#paint0_linear_5879_10864)"/>
<path d="M82.932 32L87.252 26.048L82.932 20.096H86.22L89.244 24.32L92.244 20.096H95.556L91.212 26.048L95.556 32H92.244L89.244 27.776L86.22 32H82.932ZM107.216 32V17.672H102.32V15.2H115.208V17.672H110.288V32H107.216ZM119.068 18.248C118.508 18.248 118.044 18.08 117.676 17.744C117.324 17.408 117.148 16.984 117.148 16.472C117.148 15.96 117.324 15.544 117.676 15.224C118.044 14.888 118.508 14.72 119.068 14.72C119.628 14.72 120.084 14.888 120.436 15.224C120.804 15.544 120.988 15.96 120.988 16.472C120.988 16.984 120.804 17.408 120.436 17.744C120.084 18.08 119.628 18.248 119.068 18.248ZM117.532 32V20.096H120.604V32H117.532ZM123.81 32V20.096H126.522L126.786 21.704C127.17 21.128 127.674 20.672 128.298 20.336C128.938 19.984 129.674 19.808 130.506 19.808C132.346 19.808 133.65 20.52 134.418 21.944C134.85 21.288 135.426 20.768 136.146 20.384C136.882 20 137.682 19.808 138.546 19.808C140.098 19.808 141.29 20.272 142.122 21.2C142.954 22.128 143.37 23.488 143.37 25.28V32H140.298V25.568C140.298 24.544 140.098 23.76 139.698 23.216C139.314 22.672 138.714 22.4 137.898 22.4C137.066 22.4 136.394 22.704 135.882 23.312C135.386 23.92 135.138 24.768 135.138 25.856V32H132.066V25.568C132.066 24.544 131.866 23.76 131.466 23.216C131.066 22.672 130.45 22.4 129.618 22.4C128.802 22.4 128.138 22.704 127.626 23.312C127.13 23.92 126.882 24.768 126.882 25.856V32H123.81ZM150.391 32.288C149.367 32.288 148.527 32.128 147.871 31.808C147.215 31.472 146.727 31.032 146.407 30.488C146.087 29.944 145.927 29.344 145.927 28.688C145.927 27.584 146.359 26.688 147.223 26C148.087 25.312 149.383 24.968 151.111 24.968H154.135V24.68C154.135 23.864 153.903 23.264 153.439 22.88C152.975 22.496 152.399 22.304 151.711 22.304C151.087 22.304 150.543 22.456 150.079 22.76C149.615 23.048 149.327 23.48 149.215 24.056H146.215C146.295 23.192 146.583 22.44 147.079 21.8C147.591 21.16 148.247 20.672 149.047 20.336C149.847 19.984 150.743 19.808 151.735 19.808C153.431 19.808 154.767 20.232 155.743 21.08C156.719 21.928 157.207 23.128 157.207 24.68V32H154.591L154.303 30.08C153.951 30.72 153.455 31.248 152.815 31.664C152.191 32.08 151.383 32.288 150.391 32.288ZM151.087 29.888C151.967 29.888 152.647 29.6 153.127 29.024C153.623 28.448 153.935 27.736 154.063 26.888H151.447C150.631 26.888 150.047 27.04 149.695 27.344C149.343 27.632 149.167 27.992 149.167 28.424C149.167 28.888 149.343 29.248 149.695 29.504C150.047 29.76 150.511 29.888 151.087 29.888Z" fill="white"/>
<defs>
<linearGradient id="paint0_linear_5879_10864" x1="66.0002" y1="2.50009" x2="47.5002" y2="26.5001" gradientUnits="userSpaceOnUse">
<stop offset="0.49353" stop-color="#FFDBA5"/>
<stop offset="1" stop-color="#FFE975" stop-opacity="0"/>
</linearGradient>
</defs>
</svg>
