<svg width="56" height="56" viewBox="0 0 56 56" fill="none" xmlns="http://www.w3.org/2000/svg">
<mask id="mask0_4389_3111" style="mask-type:alpha" maskUnits="userSpaceOnUse" x="0" y="0" width="56" height="56">
<rect width="56" height="56" rx="8" fill="#C4C4C4"/>
</mask>
<g mask="url(#mask0_4389_3111)">
<g clip-path="url(#clip0_4389_3111)">
<rect width="84" height="84" transform="translate(-14 -14)" fill="#1E88E5"/>
<path opacity="0.25" d="M-4 -12H-12V-4M-4 -12V-4M-4 -12H4M-4 -4H-12M-4 -4V4M-4 -4H4M-12 -4V4M-4 4H-12M-4 4V12M-4 4H4M-12 4V12M-4 12H-12M-4 12V20M-4 12H4M-12 12V20M-4 20H-12M-4 20V28M-4 20H4M-12 20V28M-4 28H-12M-4 28V36M-4 28H4M-12 28V36M-4 36H-12M-4 36V44M-4 36H4M-12 36V44M-4 44H-12M-4 44V52M-4 44H4M-12 44V52M-4 52H-12M-4 52V60M-4 52H4M-12 52V60M-4 60H-12M-4 60V68M-4 60H4M-12 60V68M-4 68H-12M-4 68V76M-4 68H4M-12 68V76M-4 76H-12M-4 76V84M-4 76H4M-12 76V84M-4 84H-12M-4 84V92M-4 84H4M-12 84V92H-4M-4 92H4M4 -12V-4M4 -12H12M4 -4V4M4 -4H12M4 4V12M4 4H12M4 12V20M4 12H12M4 20V28M4 20H12M4 28V36M4 28H12M4 36V44M4 36H12M4 44V52M4 44H12M4 52V60M4 52H12M4 60V68M4 60H12M4 68V76M4 68H12M4 76V84M4 76H12M4 84V92M4 84H12M4 92H12M12 -12V-4M12 -12H20M12 -4V4M12 -4H20M12 4V12M12 4H20M12 12V20M12 12H20M12 20V28M12 20H20M12 28V36M12 28H20M12 36V44M12 36H20M12 44V52M12 44H20M12 52V60M12 52H20M12 60V68M12 60H20M12 68V76M12 68H20M12 76V84M12 76H20M12 84V92M12 84H20M12 92H20M20 -12V-4M20 -12H28M20 -4V4M20 -4H28M20 4V12M20 4H28M20 12V20M20 12H28M20 20V28M20 20H28M20 28V36M20 28H28M20 36V44M20 36H28M20 44V52M20 44H28M20 52V60M20 52H28M20 60V68M20 60H28M20 68V76M20 68H28M20 76V84M20 76H28M20 84V92M20 84H28M20 92H28M28 -12V-4M28 -12H36M28 -4V4M28 -4H36M28 4V12M28 4H36M28 12V20M28 12H36M28 20V28M28 20H36M28 28V36M28 28H36M28 36V44M28 36H36M28 44V52M28 44H36M28 52V60M28 52H36M28 60V68M28 60H36M28 68V76M28 68H36M28 76V84M28 76H36M28 84V92M28 84H36M28 92H36M36 -12V-4M36 -12H44M36 -4V4M36 -4H44M36 4V12M36 4H44M36 12V20M36 12H44M36 20V28M36 20H44M36 28V36M36 28H44M36 36V44M36 36H44M36 44V52M36 44H44M36 52V60M36 52H44M36 60V68M36 60H44M36 68V76M36 68H44M36 76V84M36 76H44M36 84V92M36 84H44M36 92H44M44 -12V-4M44 -12H52M44 -4V4M44 -4H52M44 4V12M44 4H52M44 12V20M44 12H52M44 20V28M44 20H52M44 28V36M44 28H52M44 36V44M44 36H52M44 44V52M44 44H52M44 52V60M44 52H52M44 60V68M44 60H52M44 68V76M44 68H52M44 76V84M44 76H52M44 84V92M44 84H52M44 92H52M52 -12V-4M52 -12H60M52 -4V4M52 -4H60M52 4V12M52 4H60M52 12V20M52 12H60M52 20V28M52 20H60M52 28V36M52 28H60M52 36V44M52 36H60M52 44V52M52 44H60M52 52V60M52 52H60M52 60V68M52 60H60M52 68V76M52 68H60M52 76V84M52 76H60M52 84V92M52 84H60M52 92H60M60 -12V-4M60 -12H68M60 -4V4M60 -4H68M60 4V12M60 4H68M60 12V20M60 12H68M60 20V28M60 20H68M60 28V36M60 28H68M60 36V44M60 36H68M60 44V52M60 44H68M60 52V60M60 52H68M60 60V68M60 60H68M60 68V76M60 68H68M60 76V84M60 76H68M60 84V92M60 84H68M60 92H68M68 -12V-4M68 -12H76M68 -4V4M68 -4H76M68 4V12M68 4H76M68 12V20M68 12H76M68 20V28M68 20H76M68 28V36M68 28H76M68 36V44M68 36H76M68 44V52M68 44H76M68 52V60M68 52H76M68 60V68M68 60H76M68 68V76M68 68H76M68 76V84M68 76H76M68 84V92M68 84H76M68 92H76M76 -12V-4M76 -12H84M76 -4V4M76 -4H84M76 4V12M76 4H84M76 12V20M76 12H84M76 20V28M76 20H84M76 28V36M76 28H84M76 36V44M76 36H84M76 44V52M76 44H84M76 52V60M76 52H84M76 60V68M76 60H84M76 68V76M76 68H84M76 76V84M76 76H84M76 84V92M76 84H84M76 92H84M84 -12V-4M84 -12H92V-4M84 -4V4M84 -4H92M84 4V12M84 4H92M84 12V20M84 12H92M84 20V28M84 20H92M84 28V36M84 28H92M84 36V44M84 36H92M84 44V52M84 44H92M84 52V60M84 52H92M84 60V68M84 60H92M84 68V76M84 68H92M84 76V84M84 76H92M84 84V92M84 84H92M84 92H92V84M92 -4V4M92 4V12M92 12V20M92 20V28M92 28V36M92 36V44M92 44V52M92 52V60M92 60V68M92 68V76M92 76V84" stroke="#64FFDA" stroke-width="0.5"/>
</g>
<rect width="84" height="84" transform="translate(-14 -14)" fill="#EA0029"/>
<rect width="45.1111" height="45.1111" transform="translate(5.44531 5.44434)" fill="#EA0029"/>
<g filter="url(#filter0_d_4389_3111)">
<path d="M17.4692 29.9443H14.4473V38.6818H17.4692V29.9443Z" fill="white"/>
<path d="M22.7832 32.337C22.5059 33.1545 22.1168 34.5728 22.1521 35.0209C22.1343 36.4304 23.4671 36.4529 24.5223 35.9948L24.8601 38.3394C23.164 39.1195 21.1158 38.9577 20.0404 37.9695C19.3952 37.3937 19.0736 36.5531 19.0736 35.4474C19.1127 34.4344 19.4415 33.5473 19.7918 32.337H18.4766V29.9448H20.5437L21.1747 27.9346H24.173L23.5366 29.9448H25.1939V32.337H22.7829H22.7832Z" fill="white"/>
<path d="M41.9879 29.949C42.9154 29.949 43.6673 29.1972 43.6673 28.2697C43.6673 27.3422 42.9154 26.5903 41.9879 26.5903C41.0605 26.5903 40.3086 27.3422 40.3086 28.2697C40.3086 29.1972 41.0605 29.949 41.9879 29.949Z" fill="white"/>
<path d="M34.1815 35.1392C34.3461 34.1806 34.2638 33.2277 33.9135 32.3759C33.8575 32.2357 33.7927 32.0992 33.7191 31.9643C33.365 31.3141 32.871 30.8079 32.2368 30.44C31.5954 30.0528 30.7702 29.8618 29.9469 29.8618C29.1235 29.8618 28.2981 30.0509 27.6569 30.4294C25.5404 31.5701 24.9935 34.6117 26.1255 36.6249C26.8965 38.0214 28.4173 38.8524 30.0101 38.8312C31.3048 38.8418 32.7491 38.3013 33.4601 37.2469C33.2657 37.1314 31.3837 36.0063 31.2507 35.9274C30.9702 36.3253 30.5235 36.5266 30.0101 36.525C29.2059 36.5391 28.5873 35.9381 28.5575 35.1392H34.182H34.1815ZM28.557 33.3257C28.599 32.241 29.7694 31.7943 30.6544 32.2375C30.7524 32.2883 30.8472 32.3496 30.9311 32.4251C31.1957 32.6633 31.3271 32.9629 31.3271 33.3257H28.557Z" fill="white"/>
<path d="M33.8858 32.313C33.1395 33.1084 32.5701 34.072 32.2405 35.1392H29.502C29.6403 34.5102 29.8401 33.9039 30.0924 33.3257H31.3276C31.3276 32.9629 31.1962 32.6633 30.9316 32.4251C30.8474 32.3496 30.7529 32.2883 30.6549 32.2376C30.653 32.2376 30.653 32.2357 30.6514 32.2357C31.0543 31.5523 31.5398 30.9215 32.0918 30.3574C32.1409 30.3837 32.1898 30.4119 32.2373 30.4398C32.8715 30.8076 33.3658 31.3141 33.7196 31.964C33.7828 32.0779 33.8388 32.1935 33.8861 32.3127L33.8858 32.313Z" fill="url(#paint0_linear_4389_3111)"/>
<path d="M38.4066 35.9696C38.0116 35.6387 37.9641 35.1242 38.0475 34.6276C38.3866 32.924 39.4989 27.2619 39.4989 27.2619C38.6334 27.2539 37.6419 27.3163 36.3753 27.6943L35.6664 31.233L35.1076 34.0464C34.8901 35.1524 34.7794 36.3056 35.3982 37.2601C36.1458 38.4824 37.7112 38.9873 39.1247 38.7987L39.6376 36.2692C39.1587 36.36 38.703 36.2527 38.4068 35.9696H38.4066Z" fill="white"/>
<path d="M39.4986 27.2634C39.4872 27.3178 39.2516 28.5156 38.9701 29.9575C37.8026 30.0093 36.7054 30.3323 35.7402 30.8651L36.375 27.6955C37.3832 27.3858 38.445 27.2461 39.4986 27.2631V27.2634Z" fill="url(#paint1_linear_4389_3111)"/>
</g>
<g filter="url(#filter1_d_4389_3111)">
<path fill-rule="evenodd" clip-rule="evenodd" d="M19.1895 20.2466C19.1895 18.4948 20.6096 17.0747 22.3613 17.0747C24.1131 17.0747 25.5332 18.4948 25.5332 20.2466V24.4757H23.4186V20.2466C23.4186 19.6627 22.9453 19.1893 22.3613 19.1893C21.7774 19.1893 21.304 19.6627 21.304 20.2466V24.4757H19.1895V20.2466Z" fill="white"/>
<path fill-rule="evenodd" clip-rule="evenodd" d="M23.418 20.2466C23.418 18.4948 24.8381 17.0747 26.5898 17.0747C28.3416 17.0747 29.7617 18.4948 29.7617 20.2466V24.4757H27.6471V20.2466C27.6471 19.6627 27.1738 19.1893 26.5898 19.1893C26.0059 19.1893 25.5326 19.6627 25.5326 20.2466V24.4757H23.418V20.2466Z" fill="white"/>
<path fill-rule="evenodd" clip-rule="evenodd" d="M30.4668 18.837C30.4668 20.7834 32.0447 22.3613 33.9911 22.3613C35.9375 22.3613 37.5154 20.7834 37.5154 18.837V17.4273H35.4008V18.837C35.4008 19.6156 34.7697 20.2467 33.9911 20.2467C33.2125 20.2467 32.5814 19.6156 32.5814 18.837V17.4273H30.4668V18.837Z" fill="white"/>
<path fill-rule="evenodd" clip-rule="evenodd" d="M32.9336 24.4756V21.3037H35.0482V24.4756H32.9336Z" fill="white"/>
</g>
<g clip-path="url(#clip1_4389_3111)">
<rect x="-14" y="-14" width="84" height="84" fill="url(#paint2_radial_4389_3111)"/>
</g>
</g>
<defs>
<filter id="filter0_d_4389_3111" x="13.541" y="26.5903" width="31.0332" height="14.0591" filterUnits="userSpaceOnUse" color-interpolation-filters="sRGB">
<feFlood flood-opacity="0" result="BackgroundImageFix"/>
<feColorMatrix in="SourceAlpha" type="matrix" values="0 0 0 0 0 0 0 0 0 0 0 0 0 0 0 0 0 0 127 0" result="hardAlpha"/>
<feOffset dy="0.90625"/>
<feGaussianBlur stdDeviation="0.453125"/>
<feComposite in2="hardAlpha" operator="out"/>
<feColorMatrix type="matrix" values="0 0 0 0 0.666667 0 0 0 0 0.0941176 0 0 0 0 0.172549 0 0 0 1 0"/>
<feBlend mode="normal" in2="BackgroundImageFix" result="effect1_dropShadow_4389_3111"/>
<feBlend mode="normal" in="SourceGraphic" in2="effect1_dropShadow_4389_3111" result="shape"/>
</filter>
<filter id="filter1_d_4389_3111" x="18.2832" y="17.0747" width="20.1387" height="9.21338" filterUnits="userSpaceOnUse" color-interpolation-filters="sRGB">
<feFlood flood-opacity="0" result="BackgroundImageFix"/>
<feColorMatrix in="SourceAlpha" type="matrix" values="0 0 0 0 0 0 0 0 0 0 0 0 0 0 0 0 0 0 127 0" result="hardAlpha"/>
<feOffset dy="0.90625"/>
<feGaussianBlur stdDeviation="0.453125"/>
<feComposite in2="hardAlpha" operator="out"/>
<feColorMatrix type="matrix" values="0 0 0 0 0.666667 0 0 0 0 0.0941176 0 0 0 0 0.172549 0 0 0 1 0"/>
<feBlend mode="normal" in2="BackgroundImageFix" result="effect1_dropShadow_4389_3111"/>
<feBlend mode="normal" in="SourceGraphic" in2="effect1_dropShadow_4389_3111" result="shape"/>
</filter>
<linearGradient id="paint0_linear_4389_3111" x1="29.9694" y1="34.945" x2="44.7297" y2="20.1847" gradientUnits="userSpaceOnUse">
<stop offset="0.0199" stop-color="#EA0029"/>
<stop offset="0.21" stop-color="#FCD199"/>
</linearGradient>
<linearGradient id="paint1_linear_4389_3111" x1="30.5984" y1="35.9007" x2="45.2878" y2="21.2113" gradientUnits="userSpaceOnUse">
<stop stop-color="#E60029"/>
<stop offset="0.06" stop-color="#E81333"/>
<stop offset="0.19" stop-color="#ED474F"/>
<stop offset="0.37" stop-color="#F69A7B"/>
<stop offset="0.49" stop-color="#FCD199"/>
</linearGradient>
<radialGradient id="paint2_radial_4389_3111" cx="0" cy="0" r="1" gradientUnits="userSpaceOnUse" gradientTransform="translate(8.16667 8.16667) rotate(45) scale(56.0971)">
<stop stop-color="white" stop-opacity="0.1"/>
<stop offset="0.319968" stop-color="white" stop-opacity="0.05"/>
<stop offset="1" stop-color="white" stop-opacity="0"/>
</radialGradient>
<clipPath id="clip0_4389_3111">
<rect width="84" height="84" fill="white" transform="translate(-14 -14)"/>
</clipPath>
<clipPath id="clip1_4389_3111">
<rect width="84" height="84" fill="white" transform="translate(-14 -14)"/>
</clipPath>
</defs>
</svg>
