<svg viewBox="0 0 78 32" fill="none" xmlns="http://www.w3.org/2000/svg">
<g clip-path="url(#clip0_653_180388)">
<path d="M77.1747 2.23961C76.545 1.27893 75.5985 0.566394 74.4979 0.224456C73.3973 -0.117482 72.2113 -0.0674847 71.1438 0.365872C70.0763 0.799229 69.1938 1.58889 68.6481 2.59913C68.1023 3.60938 67.9274 4.77713 68.1533 5.90173C68.3793 7.02633 68.9919 8.03756 69.8861 8.76163C70.7803 9.4857 71.9001 9.87739 73.0531 9.86942C74.2061 9.86145 75.3203 9.4543 76.2043 8.71794C77.0882 7.98158 77.6867 6.96199 77.8969 5.83438C78.0298 5.2179 78.0342 4.58089 77.91 3.96263C77.7858 3.34437 77.5356 2.75798 77.1747 2.23961Z" fill="currentColor"/>
<path d="M8.11257 8.26685H0V31.5009H8.11257V8.26685Z" fill="currentColor"/>
<path d="M26.5967 2.81958H18.5489L16.8324 8.25685H11.2783V14.6443H14.8116C14.1639 16.7145 13.6824 18.4034 13.3672 19.7112C13.0817 20.7693 12.9198 21.8566 12.8846 22.9516C12.8846 25.9022 13.7483 28.1462 15.4755 29.6838C17.2027 31.2213 19.7191 31.989 23.0246 31.9869C24.8864 31.9562 26.7248 31.5691 28.4394 30.8466L27.7043 24.5493C26.7046 24.9204 25.6491 25.1207 24.5823 25.142C23.452 25.142 22.5938 24.8521 22.0141 24.2755C21.4344 23.6989 21.143 22.8776 21.143 21.8114C21.143 20.684 21.5251 18.8737 22.2894 16.3805L22.84 14.6443H29.1713V8.25685H24.8608L26.5967 2.81958Z" fill="currentColor"/>
<path d="M63.8012 24.3619C63.4577 24.0652 63.1848 23.6963 63.0022 23.2819C62.8196 22.8674 62.7319 22.4177 62.7455 21.9654C62.7473 21.5687 62.7776 21.1725 62.8361 20.7801L65.2812 8.53977L66.7094 1.30188C63.7977 1.49711 60.9288 2.1034 58.1888 3.1025L56.4432 11.6997H56.4691H56.4432L54.9438 19.2081C54.6477 20.5848 54.4936 21.9879 54.4839 23.3956C54.4665 24.9439 54.8971 26.4646 55.7243 27.7763C56.5648 29.0985 57.7561 30.1641 59.1669 30.8557C60.7045 31.6182 62.4039 32.0016 64.1218 31.9735C64.663 31.9771 65.2038 31.9469 65.7411 31.8833L67.1175 25.2639H66.5669C65.5635 25.3223 64.5751 25 63.8012 24.3619Z" fill="currentColor"/>
<path d="M52.0363 13.1655C51.0827 11.4012 49.6497 9.93904 47.9007 8.94588C47.8618 8.92011 47.823 8.89432 47.7809 8.87178C45.8304 7.85749 43.6606 7.33177 41.4597 7.34019C39.2587 7.34861 37.0931 7.89093 35.1505 8.9201C33.3277 9.93863 31.8321 11.4496 30.8367 13.2783C29.784 15.2442 29.2544 17.4453 29.2984 19.6722C29.255 21.9036 29.8011 24.1073 30.8821 26.063C31.9108 27.8927 33.4299 29.4025 35.2703 30.4244C36.0412 30.8542 36.8581 31.1967 37.7057 31.4455C39.0018 31.8211 40.3457 32.0077 41.6956 31.9995C42.7479 32.0001 43.7974 31.8921 44.8273 31.6774C45.6341 31.5087 46.4226 31.2627 47.1817 30.943C48.732 30.3058 50.097 29.2926 51.1522 27.9956C51.2073 27.928 51.2494 27.8507 51.3012 27.7798L45.977 24.6167L45.1512 24.1303C44.8996 24.4905 44.5847 24.8026 44.2217 25.0515C43.4764 25.5501 42.5935 25.8057 41.6956 25.7827C41.1769 25.7988 40.6602 25.7123 40.1754 25.5281C39.6906 25.344 39.2475 25.0659 38.8716 24.7101C38.7842 24.6263 38.7032 24.5394 38.6222 24.4492C38.0191 23.7506 37.676 22.8668 37.6507 21.9463H53.3026C53.4479 21.1176 53.5248 20.2783 53.5325 19.4371C53.5561 17.672 53.2258 15.92 52.561 14.2833C52.407 13.9013 52.2319 13.5282 52.0363 13.1655ZM44.28 14.454C44.6362 14.763 44.9196 15.1464 45.1099 15.5768C45.3002 16.0071 45.3928 16.4739 45.3811 16.9439H37.6701C37.6825 16.4702 37.7904 16.0037 37.9873 15.5721C38.1843 15.1406 38.4662 14.7527 38.8166 14.4314C39.5308 13.7856 40.4684 13.4393 41.4333 13.4651C42.1496 13.4505 42.8591 13.6063 43.5027 13.9193C43.7828 14.0601 44.044 14.2354 44.28 14.4411V14.454Z" fill="currentColor"/>
<path d="M58.1661 3.10268L56.4432 11.7224C59.1519 10.0995 62.1547 9.02148 65.2812 8.5496L66.732 1.28918C63.805 1.48865 60.9211 2.09921 58.1661 3.10268ZM52.0387 13.1816C52.2404 13.5501 52.421 13.9298 52.5796 14.3187C50.2473 16.4845 48.3637 19.0834 47.0352 21.9688H39.376C39.9679 20.2327 40.7135 18.5522 41.6041 16.9471H45.3835C45.3952 16.4771 45.3026 16.0103 45.1123 15.5799C44.922 15.1495 44.6386 14.7662 44.2824 14.4572C44.0465 14.2503 43.7854 14.0739 43.5051 13.9321C44.791 12.121 46.2651 10.4497 47.9031 8.94581C49.6521 9.93898 51.0851 11.4011 52.0387 13.1655V13.1816Z" fill="url(#paint0_linear_653_180388)"/>
</g>
<defs>
<linearGradient id="paint0_linear_653_180388" x1="65.5002" y1="2.49997" x2="47.0002" y2="26.5" gradientUnits="userSpaceOnUse">
<stop offset="0.49353" stop-color="#FFDBA5"/>
<stop offset="1" stop-color="#FFE975" stop-opacity="0"/>
</linearGradient>
<clipPath id="clip0_653_180388">
<rect width="78" height="32" fill="white"/>
</clipPath>
</defs>
</svg>
