<svg width="25" height="25" viewBox="0 0 25 25" fill="none" xmlns="http://www.w3.org/2000/svg">
<path fill-rule="evenodd" clip-rule="evenodd" d="M0 11.66C0 4.9615 5.24999 0 12.0206 0C18.7912 0 24.0412 4.9645 24.0412 11.663C24.0412 18.3614 18.7912 23.3229 12.0206 23.3229C10.8035 23.3229 9.6375 23.1607 8.54062 22.8601C8.32726 22.803 8.09887 22.8181 7.89752 22.9082L5.51144 23.96C5.36733 24.0236 5.20981 24.0508 5.05273 24.0392C4.89565 24.0277 4.74381 23.9777 4.61056 23.8937C4.47731 23.8097 4.36673 23.6943 4.28854 23.5576C4.21035 23.4208 4.16694 23.267 4.16213 23.1096L4.09601 20.9699C4.09 20.7055 3.9698 20.459 3.77446 20.2847C1.43646 18.1932 0 15.164 0 11.66ZM8.33326 9.46921L4.80221 15.0708C4.46263 15.6087 5.12376 16.2128 5.62863 15.8281L9.42112 12.9492C9.54591 12.8544 9.69816 12.8028 9.85486 12.8023C10.0116 12.8017 10.1642 12.8523 10.2896 12.9462L13.0994 15.0528C13.2987 15.2024 13.5269 15.3092 13.7695 15.3662C14.0121 15.4233 14.2639 15.4294 14.5091 15.3842C14.7542 15.339 14.9873 15.2435 15.1936 15.1037C15.3999 14.9639 15.5751 14.7828 15.7079 14.5719L19.2419 8.97336C19.5785 8.43544 18.9174 7.8284 18.4125 8.21306L14.62 11.092C14.4952 11.1868 14.343 11.2383 14.1863 11.2389C14.0296 11.2394 13.877 11.1889 13.7515 11.095L10.9417 8.98839C10.7424 8.83872 10.5143 8.73199 10.2716 8.67494C10.029 8.61789 9.77719 8.61176 9.53208 8.65695C9.28697 8.70213 9.05388 8.79764 8.84754 8.93744C8.6412 9.07725 8.46609 9.25832 8.33326 9.46921Z" fill="url(#paint0_radial_5401_3184)"/>
<defs>
<radialGradient id="paint0_radial_5401_3184" cx="0" cy="0" r="1" gradientUnits="userSpaceOnUse" gradientTransform="translate(4.02689 24.0412) scale(26.4453)">
<stop stop-color="#0099FF"/>
<stop offset="0.6" stop-color="#A033FF"/>
<stop offset="0.9" stop-color="#FF5280"/>
<stop offset="1" stop-color="#FF7061"/>
</radialGradient>
</defs>
</svg>
