<svg width="28" height="24" viewBox="0 0 28 24" fill="none" xmlns="http://www.w3.org/2000/svg">
<path fill-rule="evenodd" clip-rule="evenodd" d="M27.0908 3.11803C26.1271 3.58615 25.0919 3.90117 24.0054 4.04326C25.1151 3.31629 25.966 2.16527 26.3668 0.79285C25.3296 1.46584 24.1796 1.95489 22.9552 2.21924C21.9754 1.07703 20.5798 0.363281 19.0351 0.363281C16.0686 0.363281 13.664 2.99467 13.664 6.23846C13.664 6.69887 13.7124 7.14827 13.803 7.57674C9.33916 7.33221 5.38183 4.99271 2.73152 1.4372C2.27034 2.30515 2.00551 3.31409 2.00551 4.39242C2.00551 6.43012 2.95305 8.2288 4.394 9.28179C3.51393 9.25095 2.6852 8.9866 1.9612 8.54712C1.9612 8.57246 1.9612 8.59559 1.9612 8.62092C1.9612 11.4682 3.81199 13.8429 6.26996 14.3816C5.81985 14.5159 5.34457 14.5875 4.85418 14.5875C4.5088 14.5875 4.17147 14.5501 3.84421 14.4829C4.52793 16.8169 6.51163 18.5164 8.86186 18.5638C7.02417 20.14 4.70817 21.0795 2.19079 21.0795C1.7578 21.0795 1.32984 21.052 0.908936 20.9969C3.28635 22.6634 6.10885 23.636 9.1428 23.636C14.2013 23.636 19.0257 21.8962 21.6123 18.5638C24.0779 15.3873 24.4243 10.7082 24.4243 6.91917C24.4243 6.66473 24.4193 6.41139 24.4092 6.15916C25.4595 5.32976 26.3708 4.29549 27.0908 3.11803Z" fill="#1DA1F2"/>
</svg>
