<svg width="24" height="24" viewBox="0 0 24 24" fill="none" xmlns="http://www.w3.org/2000/svg">
<path d="M18.3947 18.5365C18.7241 18.2854 18.7876 17.8148 18.5365 17.4854C18.2854 17.1559 17.8148 17.0924 17.4853 17.3436L18.3947 18.5365ZM12 20V20.7501L12.0123 20.7499L12 20ZM1 12L0.339133 11.6454C0.223908 11.8601 0.220196 12.1175 0.32918 12.3354L1 12ZM6.51518 6.65611C6.84438 6.40472 6.90747 5.93406 6.65608 5.60485C6.4047 5.27564 5.93403 5.21256 5.60482 5.46394L6.51518 6.65611ZM9.82907 3.50976C9.42575 3.60417 9.17533 4.00765 9.26974 4.41096C9.36414 4.81427 9.76762 5.06469 10.1709 4.97029L9.82907 3.50976ZM12.1 4.00003L12.0982 4.75003H12.1V4.00003ZM23.1 12L23.7614 12.3536C23.8761 12.139 23.8796 11.8822 23.7708 11.6646L23.1 12ZM20.3661 14.7071C20.0994 15.0241 20.1402 15.4972 20.4571 15.7639C20.7741 16.0306 21.2472 15.9898 21.5139 15.6729L20.3661 14.7071ZM14.6684 14.6313C14.9508 14.3283 14.9341 13.8537 14.631 13.5713C14.328 13.2889 13.8534 13.3057 13.571 13.6087L14.6684 14.6313ZM9.01818 12.8172L9.74485 12.6316L9.01818 12.8172ZM10.391 10.4287C10.6941 10.1463 10.7108 9.67176 10.4284 9.36871C10.146 9.06567 9.67147 9.04892 9.36843 9.3313L10.391 10.4287ZM17.4853 17.3436C15.9032 18.5495 13.9768 19.2176 11.9877 19.2501L12.0123 20.7499C14.3214 20.7122 16.5579 19.9365 18.3947 18.5365L17.4853 17.3436ZM12 19.25C8.79963 19.25 6.23414 17.4199 4.42215 15.4871C3.523 14.528 2.83126 13.566 2.3644 12.8431C2.13144 12.4824 1.9557 12.1831 1.83923 11.9761C1.78102 11.8726 1.73771 11.7923 1.70954 11.7391C1.69546 11.7125 1.68517 11.6926 1.6787 11.6801C1.67547 11.6738 1.67319 11.6693 1.67188 11.6667C1.67122 11.6654 1.6708 11.6646 1.67063 11.6642C1.67054 11.6641 1.67051 11.664 1.67054 11.6641C1.67056 11.6641 1.67063 11.6642 1.67064 11.6642C1.67072 11.6644 1.67082 11.6646 1 12C0.32918 12.3354 0.32931 12.3357 0.329455 12.336C0.329524 12.3361 0.329685 12.3364 0.329823 12.3367C0.3301 12.3373 0.330438 12.3379 0.330837 12.3387C0.331636 12.3403 0.332682 12.3424 0.333974 12.3449C0.336558 12.35 0.340126 12.357 0.344676 12.3659C0.353774 12.3836 0.3668 12.4087 0.383723 12.4407C0.417564 12.5046 0.467023 12.5962 0.531865 12.7115C0.661492 12.9419 0.852934 13.2676 1.10435 13.6569C1.60624 14.434 2.352 15.4721 3.32785 16.513C5.26586 18.5802 8.20037 20.75 12 20.75V19.25ZM1.66087 12.3546C2.85419 10.1308 4.50931 8.18781 6.51518 6.65611L5.60482 5.46394C3.42897 7.12545 1.63359 9.23307 0.339133 11.6454L1.66087 12.3546ZM10.1709 4.97029C10.8027 4.82242 11.4494 4.7485 12.0982 4.75002L12.1018 3.25003C11.3367 3.24823 10.574 3.33539 9.82907 3.50976L10.1709 4.97029ZM12.1 4.75003C15.3004 4.75003 17.8659 6.5802 19.6778 8.51298C20.577 9.47208 21.2687 10.434 21.7356 11.1569C21.9686 11.5176 22.1443 11.8169 22.2608 12.024C22.319 12.1274 22.3623 12.2077 22.3905 12.261C22.4045 12.2876 22.4148 12.3074 22.4213 12.32C22.4245 12.3263 22.4268 12.3308 22.4281 12.3333C22.4288 12.3346 22.4292 12.3355 22.4294 12.3358C22.4295 12.336 22.4295 12.3361 22.4295 12.336C22.4294 12.336 22.4294 12.3358 22.4294 12.3358C22.4293 12.3356 22.4292 12.3354 23.1 12C23.7708 11.6646 23.7707 11.6644 23.7705 11.6641C23.7705 11.6639 23.7703 11.6636 23.7702 11.6633C23.7699 11.6628 23.7696 11.6621 23.7692 11.6613C23.7684 11.6597 23.7673 11.6577 23.766 11.6551C23.7634 11.65 23.7599 11.643 23.7553 11.6342C23.7462 11.6165 23.7332 11.5914 23.7163 11.5594C23.6824 11.4954 23.633 11.4039 23.5681 11.2886C23.4385 11.0581 23.2471 10.7324 22.9957 10.3431C22.4938 9.56601 21.748 8.52797 20.7722 7.48707C18.8341 5.41985 15.8996 3.25003 12.1 3.25003V4.75003ZM22.4386 11.6465C21.8562 12.736 21.1616 13.7618 20.3661 14.7071L21.5139 15.6729C22.3765 14.6477 23.1298 13.5352 23.7614 12.3536L22.4386 11.6465ZM13.571 13.6087C13.0101 14.2107 12.1653 14.4585 11.3681 14.2549L10.997 15.7082C12.3256 16.0475 13.7336 15.6346 14.6684 14.6313L13.571 13.6087ZM11.3681 14.2549C10.5709 14.0513 9.94844 13.4288 9.74485 12.6316L8.2915 13.0027C8.63082 14.3314 9.66831 15.3689 10.997 15.7082L11.3681 14.2549ZM9.74485 12.6316C9.54126 11.8344 9.78905 10.9896 10.391 10.4287L9.36843 9.3313C8.36516 10.2661 7.95218 11.6741 8.2915 13.0027L9.74485 12.6316Z" fill="currentColor"/>
<path d="M1 1L23 23" stroke="#181818" stroke-width="1.5" stroke-linecap="round" stroke-linejoin="round"/>
</svg>
