<svg width="24" height="24" viewBox="0 0 24 24" fill="none" xmlns="http://www.w3.org/2000/svg">
<path d="M1 4V10H7" stroke="#181818" stroke-width="1.5" stroke-linecap="round" stroke-linejoin="round"/>
<path d="M23 20V14H17" stroke="#181818" stroke-width="1.5" stroke-linecap="round" stroke-linejoin="round"/>
<path d="M19.783 9.248C19.9211 9.63849 20.3497 9.84302 20.7402 9.70484C21.1307 9.56666 21.3352 9.13809 21.197 8.74761L19.783 9.248ZM13.9917 3.22206L14.1572 2.49055L13.9917 3.22206ZM5.64 5.6378L6.15358 6.18437C6.15929 6.179 6.16492 6.17355 6.17046 6.168L5.64 5.6378ZM0.486418 9.45124C0.184558 9.73488 0.169791 10.2095 0.453435 10.5114C0.737079 10.8132 1.21172 10.828 1.51358 10.5444L0.486418 9.45124ZM23.5133 14.5444C23.8152 14.2607 23.83 13.7861 23.5463 13.4842C23.2627 13.1824 22.788 13.1676 22.4862 13.4512L23.5133 14.5444ZM18.3598 18.3578L17.8462 17.8112C17.8405 17.8166 17.8348 17.8221 17.8293 17.8276L18.3598 18.3578ZM4.2168 14.7476C4.07862 14.3571 3.65005 14.1526 3.25957 14.2908C2.86908 14.4289 2.66455 14.8575 2.80273 15.248L4.2168 14.7476ZM21.197 8.74761C20.0802 5.59165 17.4224 3.22934 14.1572 2.49055L13.8262 3.95357C16.5891 4.5787 18.838 6.57758 19.783 9.248L21.197 8.74761ZM14.1572 2.49055C10.892 1.75176 7.47614 2.73982 5.10954 5.10761L6.17046 6.168C8.17298 4.16449 11.0633 3.32844 13.8262 3.95357L14.1572 2.49055ZM5.12642 5.09124L0.486418 9.45124L1.51358 10.5444L6.15358 6.18437L5.12642 5.09124ZM22.4862 13.4512L17.8462 17.8112L18.8733 18.9044L23.5133 14.5444L22.4862 13.4512ZM17.8293 17.8276C15.8268 19.8311 12.9364 20.6672 10.1736 20.042L9.84254 21.5051C13.1077 22.2438 16.5236 21.2558 18.8902 18.888L17.8293 17.8276ZM10.1736 20.042C7.41071 19.4169 5.16178 17.418 4.2168 14.7476L2.80273 15.248C3.91952 18.404 6.57735 20.7663 9.84254 21.5051L10.1736 20.042Z" fill="currentColor"/>
</svg>
