<svg width="24" height="24" viewBox="0 0 24 24" fill="none" xmlns="http://www.w3.org/2000/svg">
<path d="M2 7V7C2 6.07003 2 5.60504 2.10222 5.22354C2.37962 4.18827 3.18827 3.37962 4.22354 3.10222C4.60504 3 5.07003 3 6 3H8.01178C8.74555 3 9.11243 3 9.4577 3.08289C9.7638 3.15638 10.0564 3.27759 10.3249 3.44208C10.6276 3.6276 10.887 3.88703 11.4059 4.40589L11.5941 4.59411C12.113 5.11297 12.3724 5.3724 12.6751 5.55792C12.9436 5.72241 13.2362 5.84362 13.5423 5.91711C13.8876 6 14.2545 6 14.9882 6H17.2C18.8802 6 19.7202 6 20.362 6.32698C20.9265 6.6146 21.3854 7.07354 21.673 7.63803C22 8.27976 22 9.11984 22 10.8V15.2C22 16.8802 22 17.7202 21.673 18.362C21.3854 18.9265 20.9265 19.3854 20.362 19.673C19.7202 20 18.8802 20 17.2 20H6.8C5.11984 20 4.27976 20 3.63803 19.673C3.07354 19.3854 2.6146 18.9265 2.32698 18.362C2 17.7202 2 16.8802 2 15.2V7Z" stroke="#181818" stroke-width="1.5" stroke-linecap="round" stroke-linejoin="round"/>
<path d="M12 16.0002V10.0002M12 10.0002L14.5 12.5002M12 10.0002L9.5 12.5002" stroke="#181818" stroke-width="1.5" stroke-linecap="round" stroke-linejoin="round"/>
</svg>
