<svg width="24" height="21" viewBox="0 0 24 21" fill="none" xmlns="http://www.w3.org/2000/svg">
<path fill-rule="evenodd" clip-rule="evenodd" d="M13.829 2.07904C16.1323 -0.224262 19.8667 -0.224264 22.17 2.07904C24.4733 4.38234 24.4733 8.11673 22.17 10.42L11.9995 20.5905L1.82904 10.42C-0.474262 8.11673 -0.474264 4.38234 1.82904 2.07904C4.13234 -0.224264 7.86673 -0.224262 10.17 2.07904L11.9995 3.90854L13.829 2.07904ZM20.579 3.67003C19.1544 2.24541 16.8447 2.24541 15.42 3.67003L11.9995 7.09052L8.57904 3.67003C7.15442 2.24541 4.84465 2.24541 3.42003 3.67003C1.99541 5.09465 1.99541 7.40442 3.42003 8.82904L11.9995 17.4085L20.579 8.82904C22.0037 7.40442 22.0037 5.09465 20.579 3.67003Z" fill="currentColor"/>
</svg>
