<svg width="24" height="24" viewBox="0 0 24 24" fill="none" xmlns="http://www.w3.org/2000/svg">
<path d="M5 13L19 13" stroke="#181818" stroke-width="1.5" stroke-linecap="round"/>
<path d="M6 13H18V17C18 17.5523 17.5523 18 17 18H7C6.44772 18 6 17.5523 6 17V13Z" fill="currentColor"/>
<path d="M6 2H4C2.89543 2 2 2.89543 2 4V6" stroke="#181818" stroke-width="1.5" stroke-linecap="round"/>
<path d="M7 22H4C2.89543 22 2 21.1046 2 20V18" stroke="#181818" stroke-width="1.5" stroke-linecap="round"/>
<path d="M17 2H20C21.1046 2 22 2.89543 22 4V6" stroke="#181818" stroke-width="1.5" stroke-linecap="round"/>
<path d="M18 22H20C21.1046 22 22 21.1046 22 20V18" stroke="#181818" stroke-width="1.5" stroke-linecap="round"/>
<path d="M6 10V8C6 7.44772 6.44772 7 7 7H17C17.5523 7 18 7.44772 18 8V10" stroke="#181818" stroke-width="1.5" stroke-linecap="round"/>
</svg>
