<svg width="32" height="32" viewBox="0 0 32 32" fill="none" xmlns="http://www.w3.org/2000/svg">
<path fill-rule="evenodd" clip-rule="evenodd" d="M17.0003 5.33332C17.0003 4.78103 16.5526 4.33332 16.0003 4.33332C15.448 4.33332 15.0003 4.78103 15.0003 5.33332L15.0003 26.6666C15.0003 27.2189 15.448 27.6666 16.0003 27.6666C16.5526 27.6666 17.0003 27.2189 17.0003 26.6666L17.0003 5.33332ZM9.33365 9.66665C9.88594 9.66665 10.3337 10.1144 10.3337 10.6666L10.3337 21.3333C10.3337 21.8856 9.88594 22.3333 9.33365 22.3333C8.78137 22.3333 8.33365 21.8856 8.33365 21.3333L8.33365 10.6666C8.33365 10.1144 8.78137 9.66665 9.33365 9.66665ZM2.66699 13.6666C3.21928 13.6666 3.66699 14.1144 3.66699 14.6666L3.66699 17.3333C3.66699 17.8856 3.21928 18.3333 2.66699 18.3333C2.11471 18.3333 1.66699 17.8856 1.66699 17.3333L1.66699 14.6666C1.66699 14.1144 2.11471 13.6666 2.66699 13.6666ZM22.667 9.66665C23.2193 9.66665 23.667 10.1144 23.667 10.6666L23.667 21.3333C23.667 21.8856 23.2193 22.3333 22.667 22.3333C22.1147 22.3333 21.667 21.8856 21.667 21.3333L21.667 10.6666C21.667 10.1144 22.1147 9.66665 22.667 9.66665ZM30.3337 14.6666C30.3337 14.1144 29.8859 13.6666 29.3337 13.6666C28.7814 13.6666 28.3337 14.1144 28.3337 14.6666L28.3337 17.3333C28.3337 17.8856 28.7814 18.3333 29.3337 18.3333C29.8859 18.3333 30.3337 17.8856 30.3337 17.3333L30.3337 14.6666Z" fill="currentColor"/>
</svg>
