<svg width="25" height="24" viewBox="0 0 25 24" fill="none" xmlns="http://www.w3.org/2000/svg">
<path d="M17 16C17 15.4477 16.5523 15 16 15C15.4477 15 15 15.4477 15 16H17ZM1 17H0H1ZM5 6C5.55228 6 6 5.55228 6 5C6 4.44772 5.55228 4 5 4V6ZM11 4C10.4477 4 10 4.44772 10 5C10 5.55228 10.4477 6 11 6V4ZM16.34 10.34H15.34C15.34 10.6052 15.4454 10.8596 15.6329 11.0471L16.34 10.34ZM17.34 11.34L16.6329 12.0471C16.9802 12.3944 17.5282 12.4381 17.9261 12.1503L17.34 11.34ZM23.34 7H24.34C24.34 6.62434 24.1295 6.28037 23.7949 6.10947C23.4604 5.93857 23.0583 5.96958 22.7539 6.18975L23.34 7ZM22.34 17C22.34 17.5523 22.7877 18 23.34 18C23.8923 18 24.34 17.5523 24.34 17H22.34ZM15 16V17H17V16H15ZM15 17C15 17.5523 14.5523 18 14 18V20C15.6569 20 17 18.6569 17 17H15ZM14 18H3V20H14V18ZM3 18C2.44772 18 2 17.5523 2 17H0C0 18.6569 1.34315 20 3 20V18ZM2 17V7H0V17H2ZM2 7C2 6.44772 2.44772 6 3 6V4C1.34315 4 0 5.34315 0 7H2ZM3 6H5V4H3V6ZM11 6H14.34V4H11V6ZM14.34 6C14.8923 6 15.34 6.44772 15.34 7H17.34C17.34 5.34315 15.9969 4 14.34 4V6ZM15.34 7V10.34H17.34V7H15.34ZM15.6329 11.0471L16.6329 12.0471L18.0471 10.6329L17.0471 9.63289L15.6329 11.0471ZM17.9261 12.1503L23.9261 7.81025L22.7539 6.18975L16.7539 10.5297L17.9261 12.1503ZM22.34 7V17H24.34V7H22.34Z" fill="currentColor"/>
<path d="M1 1L23 23" stroke="#181818" stroke-width="2" stroke-linecap="round" stroke-linejoin="round"/>
</svg>
