<svg width="48" height="48" viewBox="0 0 48 48" fill="none" xmlns="http://www.w3.org/2000/svg">
<g clip-path="url(#clip0_4397_11593)">
<path d="M0 24C0 37.2548 10.7452 48 24 48C37.2548 48 48 37.2548 48 24C48 10.7452 37.2548 0 24 0C10.7452 0 0 10.7452 0 24Z" fill="#121212"/>
<g filter="url(#filter0_d_4397_11593)">
<rect x="18" y="30" width="4" height="4" fill="#999999" stroke="#121212" stroke-width="0.5"/>
<rect x="22" y="30" width="4" height="4" fill="#999999" stroke="#121212" stroke-width="0.5"/>
<rect x="14" y="26" width="4" height="4" fill="#999999" stroke="#121212" stroke-width="0.5"/>
<rect x="10" y="22" width="4" height="4" fill="white" stroke="#121212" stroke-width="0.5"/>
<rect x="22" y="14" width="4" height="4" fill="#999999" stroke="#121212" stroke-width="0.5"/>
<rect x="14" y="18" width="4" height="4" fill="white" stroke="#121212" stroke-width="0.5"/>
<rect x="22" y="18" width="4" height="4" fill="#999999" stroke="#121212" stroke-width="0.5"/>
<rect x="14" y="22" width="4" height="4" fill="#999999" stroke="#121212" stroke-width="0.5"/>
<rect x="18" y="22" width="4" height="4" fill="#999999" stroke="#121212" stroke-width="0.5"/>
<rect x="22" y="22" width="4" height="4" fill="#999999" stroke="#121212" stroke-width="0.5"/>
<rect x="26" y="22" width="4" height="4" fill="#999999" stroke="#121212" stroke-width="0.5"/>
<rect x="30" y="22" width="4" height="4" fill="#999999" stroke="#121212" stroke-width="0.5"/>
<rect x="18" y="26" width="4" height="4" fill="#999999" stroke="#121212" stroke-width="0.5"/>
<rect x="22" y="26" width="4" height="4" fill="#999999" stroke="#121212" stroke-width="0.5"/>
<rect x="26" y="26" width="4" height="4" fill="#999999" stroke="#121212" stroke-width="0.5"/>
<rect x="18" y="14" width="4" height="4" fill="white" stroke="#121212" stroke-width="0.5"/>
<rect x="26" y="18" width="4" height="4" fill="#999999" stroke="#121212" stroke-width="0.5"/>
<rect x="18" y="18" width="4" height="4" fill="#999999" stroke="#121212" stroke-width="0.5"/>
<rect x="30" y="18" width="4" height="4" fill="#999999" stroke="#121212" stroke-width="0.5"/>
<rect x="26" y="14" width="4" height="4" fill="#999999" stroke="#121212" stroke-width="0.5"/>
<rect x="22" y="10" width="4" height="4" fill="white" stroke="#121212" stroke-width="0.5"/>
<rect x="30" y="26" width="4" height="4" fill="#999999" stroke="#121212" stroke-width="0.5"/>
<rect x="26" y="30" width="4" height="4" fill="#999999" stroke="#121212" stroke-width="0.5"/>
<rect x="34" y="22" width="4" height="4" fill="#999999" stroke="#121212" stroke-width="0.5"/>
<rect x="22" y="34" width="4" height="4" fill="#999999" stroke="#121212" stroke-width="0.5"/>
</g>
<mask id="mask0_4397_11593" style="mask-type:alpha" maskUnits="userSpaceOnUse" x="0" y="0" width="48" height="48">
<path d="M0 24C0 37.2548 10.7452 48 24 48C37.2548 48 48 37.2548 48 24C48 10.7452 37.2548 0 24 0C10.7452 0 0 10.7452 0 24Z" fill="black"/>
</mask>
<g mask="url(#mask0_4397_11593)">
<rect x="2" width="4" height="48" stroke="#121212" stroke-width="0.5"/>
<rect x="6" width="4" height="48" stroke="#121212" stroke-width="0.5"/>
<rect x="10" width="4" height="48" stroke="#121212" stroke-width="0.5"/>
<rect x="14" width="4" height="48" stroke="#121212" stroke-width="0.5"/>
<rect x="18" width="4" height="48" stroke="#121212" stroke-width="0.5"/>
<rect x="22" width="4" height="48" stroke="#121212" stroke-width="0.5"/>
<rect x="26" width="4" height="48" stroke="#121212" stroke-width="0.5"/>
<rect x="30" width="4" height="48" stroke="#121212" stroke-width="0.5"/>
<rect x="34" width="4" height="48" stroke="#121212" stroke-width="0.5"/>
<rect x="38" width="4" height="48" stroke="#121212" stroke-width="0.5"/>
<rect x="42" width="4" height="48" stroke="#121212" stroke-width="0.5"/>
<rect x="48" y="2" width="4" height="48" transform="rotate(90 48 2)" stroke="#121212" stroke-width="0.5"/>
<rect x="48" y="6" width="4" height="48" transform="rotate(90 48 6)" stroke="#121212" stroke-width="0.5"/>
<rect x="48" y="10" width="4" height="48" transform="rotate(90 48 10)" stroke="#121212" stroke-width="0.5"/>
<rect x="48" y="14" width="4" height="48" transform="rotate(90 48 14)" stroke="#121212" stroke-width="0.5"/>
<rect x="48" y="18" width="4" height="48" transform="rotate(90 48 18)" stroke="#121212" stroke-width="0.5"/>
<rect x="48" y="22" width="4" height="48" transform="rotate(90 48 22)" stroke="#121212" stroke-width="0.5"/>
<rect x="48" y="26" width="4" height="48" transform="rotate(90 48 26)" stroke="#121212" stroke-width="0.5"/>
<rect x="48" y="30" width="4" height="48" transform="rotate(90 48 30)" stroke="#121212" stroke-width="0.5"/>
<rect x="48" y="34" width="4" height="48" transform="rotate(90 48 34)" stroke="#121212" stroke-width="0.5"/>
<rect x="48" y="38" width="4" height="48" transform="rotate(90 48 38)" stroke="#121212" stroke-width="0.5"/>
<rect x="48" y="42" width="4" height="48" transform="rotate(90 48 42)" stroke="#121212" stroke-width="0.5"/>
</g>
</g>
<defs>
<filter id="filter0_d_4397_11593" x="-0.25" y="-0.25" width="48.5" height="48.5" filterUnits="userSpaceOnUse" color-interpolation-filters="sRGB">
<feFlood flood-opacity="0" result="BackgroundImageFix"/>
<feColorMatrix in="SourceAlpha" type="matrix" values="0 0 0 0 0 0 0 0 0 0 0 0 0 0 0 0 0 0 127 0" result="hardAlpha"/>
<feOffset/>
<feGaussianBlur stdDeviation="5"/>
<feComposite in2="hardAlpha" operator="out"/>
<feColorMatrix type="matrix" values="0 0 0 0 0.666667 0 0 0 0 0.666667 0 0 0 0 0.666667 0 0 0 1 0"/>
<feBlend mode="normal" in2="BackgroundImageFix" result="effect1_dropShadow_4397_11593"/>
<feBlend mode="normal" in="SourceGraphic" in2="effect1_dropShadow_4397_11593" result="shape"/>
</filter>
<clipPath id="clip0_4397_11593">
<rect width="48" height="48" fill="white"/>
</clipPath>
</defs>
</svg>
