<svg width="80" height="80" viewBox="0 0 80 80" fill="none" xmlns="http://www.w3.org/2000/svg">
<path fill-rule="evenodd" clip-rule="evenodd" d="M78.5715 18.5716C78.5715 28.0393 70.8964 35.7144 61.4286 35.7144C51.9609 35.7144 44.2858 28.0393 44.2858 18.5716C44.2858 9.10383 51.9609 1.42871 61.4286 1.42871C70.8964 1.42871 78.5715 9.10383 78.5715 18.5716ZM71.7031 12.7292L59.4162 28.8193L51.4606 21.9825L54.2538 18.7321L58.7658 22.6095L68.297 10.1282L71.7031 12.7292Z" fill="#37BC06"/>
<path fill-rule="evenodd" clip-rule="evenodd" d="M44.2841 5.71436H5.71423V62.8572C5.71423 69.169 10.831 74.2858 17.1428 74.2858H51.4285V37.5285C48.6198 36.0438 46.1809 33.9532 44.2857 31.4307V61.4286H21.4285C16.6946 61.4286 12.8571 57.5911 12.8571 52.8572V12.8572H40.7703C41.4922 10.2416 42.6975 7.82663 44.2841 5.71436ZM31.4285 67.1429C31.4285 68.7209 30.1493 70.0001 28.5714 70.0001C26.9934 70.0001 25.7142 68.7209 25.7142 67.1429C25.7142 65.565 26.9934 64.2858 28.5714 64.2858C30.1493 64.2858 31.4285 65.565 31.4285 67.1429Z" fill="#FFC629"/>
<path d="M21.4285 17.8572C21.4285 16.6737 22.3879 15.7144 23.5714 15.7144H33.5714C34.7548 15.7144 35.7142 16.6737 35.7142 17.8572C35.7142 19.0407 34.7548 20.0001 33.5714 20.0001H23.5714C22.3879 20.0001 21.4285 19.0407 21.4285 17.8572Z" fill="#FFC629"/>
</svg>
