<svg width="80" height="80" viewBox="0 0 80 80" fill="none" xmlns="http://www.w3.org/2000/svg">
<path fill-rule="evenodd" clip-rule="evenodd" d="M61.4286 35.7144C70.8963 35.7144 78.5714 28.0393 78.5714 18.5716C78.5714 9.10383 70.8963 1.42871 61.4286 1.42871C51.9608 1.42871 44.2857 9.10383 44.2857 18.5716C44.2857 28.0393 51.9608 35.7144 61.4286 35.7144ZM63.5714 21.4287V8.57157H59.2857V21.4287H63.5714ZM63.5714 24.2859V28.5716H59.2857V24.2859H63.5714Z" fill="#CC0024"/>
<path fill-rule="evenodd" clip-rule="evenodd" d="M44.2842 5.71436H5.71429V62.8572C5.71429 69.169 10.831 74.2858 17.1429 74.2858H51.4286V37.5285C48.6199 36.0438 46.1809 33.9532 44.2857 31.4307V61.4286H21.4286C16.6947 61.4286 12.8572 57.5911 12.8572 52.8572V12.8572H40.7703C41.4922 10.2416 42.6976 7.82663 44.2842 5.71436ZM31.4286 67.1429C31.4286 68.7209 30.1494 70.0001 28.5714 70.0001C26.9935 70.0001 25.7143 68.7209 25.7143 67.1429C25.7143 65.565 26.9935 64.2858 28.5714 64.2858C30.1494 64.2858 31.4286 65.565 31.4286 67.1429Z" fill="#FFC629"/>
<path d="M21.4286 17.8572C21.4286 16.6737 22.388 15.7144 23.5714 15.7144H33.5714C34.7549 15.7144 35.7143 16.6737 35.7143 17.8572C35.7143 19.0407 34.7549 20.0001 33.5714 20.0001H23.5714C22.388 20.0001 21.4286 19.0407 21.4286 17.8572Z" fill="#FFC629"/>
</svg>
