<svg width="32" height="32" viewBox="0 0 32 32" fill="none" xmlns="http://www.w3.org/2000/svg">
<path d="M7.37948 14.6667L5.33325 16C5.33325 16 5.66662 19 8.33325 21.6667L5.99997 24C1.33325 19.3333 1.33325 12.6667 1.33325 8.66667H7.37948V14.6667Z" fill="#EA0029"/>
<path d="M15.3332 22.6204L13.9999 24.6667C13.9999 24.6667 10.9999 24.3333 8.33325 21.6667L5.99997 24C10.6666 28.6667 17.3332 28.6667 21.3332 28.6667V22.6204L15.3332 22.6204Z" fill="#EA0029"/>
<path fill-rule="evenodd" clip-rule="evenodd" d="M14.6664 20.6667H16.6666L18.6664 17.3333H29.9997V4H9.99991V13.3333C9.99991 15.5425 11.7908 17.3333 13.9999 17.3333H14.6664V20.6667ZM15.3332 12C16.0696 12 16.6666 11.403 16.6666 10.6667C16.6666 9.93029 16.0696 9.33333 15.3332 9.33333C14.5969 9.33333 13.9999 9.93029 13.9999 10.6667C13.9999 11.403 14.5969 12 15.3332 12ZM21.3332 10.6667C21.3332 11.403 20.7363 12 19.9999 12C19.2635 12 18.6666 11.403 18.6666 10.6667C18.6666 9.93029 19.2635 9.33333 19.9999 9.33333C20.7363 9.33333 21.3332 9.93029 21.3332 10.6667ZM24.6666 12C25.403 12 25.9999 11.403 25.9999 10.6667C25.9999 9.93029 25.403 9.33333 24.6666 9.33333C23.9302 9.33333 23.3332 9.93029 23.3332 10.6667C23.3332 11.403 23.9302 12 24.6666 12Z" fill="#EA0029"/>
</svg>
