<svg width="32" height="32" viewBox="0 0 32 32" fill="none" xmlns="http://www.w3.org/2000/svg">
<path fill-rule="evenodd" clip-rule="evenodd" d="M8.66667 26.6666H30V5.33325L2 5.33325L2 19.9999C2 23.6818 4.98477 26.6666 8.66667 26.6666ZM10 9.99992C10 8.52716 11.1939 7.33325 12.6667 7.33325C13.9092 7.33325 14.9533 8.1831 15.2493 9.33325H13.8216C13.5911 8.93472 13.1602 8.66659 12.6667 8.66658C11.9303 8.66658 11.3333 9.26354 11.3333 9.99992V11.9999C11.3333 12.7363 11.9303 13.3333 12.6667 13.3333C13.403 13.3333 14 12.7363 14 11.9999V11.6666H12.6667V10.3333H15.3333V11.9999C15.3333 13.4727 14.1394 14.6666 12.6667 14.6666C11.1939 14.6666 10 13.4727 10 11.9999V9.99992ZM8 10.6666V7.33325H9.33333V14.6666H8L8 11.9999L5.70858 11.9999C4.73552 11.9999 4.0902 10.9913 4.49796 10.1078L5.77854 7.33325L7.24703 7.33325L5.70858 10.6666H8ZM16 24.6666L18 24.6666V21.9999H17.8462C16.8266 21.9999 16 22.8265 16 23.8461V24.6666ZM21.3333 24.6666H19.3333V21.8461C19.3333 20.8265 20.1599 19.9999 21.1795 19.9999H21.3333V24.6666ZM22.6667 24.6666H24.6667L24.6667 17.9999H24.5128C23.4932 17.9999 22.6667 18.8265 22.6667 19.8461V24.6666ZM28 24.6666H26V17.8461C26 16.8265 26.8266 15.9999 27.8462 15.9999H28V24.6666Z" fill="#EA0029"/>
</svg>
