<svg width="33" height="32" viewBox="0 0 33 32" fill="none" xmlns="http://www.w3.org/2000/svg">
<path fill-rule="evenodd" clip-rule="evenodd" d="M9.16667 21.3333H14.1694C15.3535 16.7327 19.5298 13.3333 24.5 13.3333C25.9145 13.3333 27.2648 13.6087 28.5 14.1087V2H2.5V14.6667C2.5 18.3486 5.48477 21.3333 9.16667 21.3333ZM10.5 6.66667C10.5 5.19391 11.6939 4 13.1667 4C14.4092 4 15.4533 4.84985 15.7493 6H14.3216C14.0911 5.60147 13.6602 5.33333 13.1667 5.33333C12.4303 5.33333 11.8333 5.93029 11.8333 6.66667V8.66667C11.8333 9.40305 12.4303 10 13.1667 10C13.903 10 14.5 9.40305 14.5 8.66667V8.33333H13.1667V7H15.8333V8.66667C15.8333 10.1394 14.6394 11.3333 13.1667 11.3333C11.6939 11.3333 10.5 10.1394 10.5 8.66667V6.66667ZM8.5 7.33333L8.5 4H9.83333V11.3333H8.5V8.66667L6.20856 8.66667C5.23551 8.66667 4.59018 7.65809 4.99795 6.77459L6.27852 4L7.74702 4L6.20856 7.33333L8.5 7.33333Z" fill="currentColor"/>
<path fill-rule="evenodd" clip-rule="evenodd" d="M32.5 24C32.5 28.4183 28.9183 32 24.5 32C20.0817 32 16.5 28.4183 16.5 24C16.5 19.5817 20.0817 16 24.5 16C28.9183 16 32.5 19.5817 32.5 24ZM23.5 24.2525V18.6667H25.5V25.0809L22.2071 28.3738L20.7929 26.9596L23.5 24.2525Z" fill="currentColor"/>
</svg>
