<svg width="33" height="32" viewBox="0 0 33 32" fill="none" xmlns="http://www.w3.org/2000/svg">
<path fill-rule="evenodd" clip-rule="evenodd" d="M9.16667 21.3333L13.8333 21.3333V14L28.5 14V2H2.5V14.6667C2.5 18.3486 5.48477 21.3333 9.16667 21.3333ZM10.5 6.66667C10.5 5.19391 11.6939 4 13.1667 4C14.4092 4 15.4533 4.84985 15.7493 6H14.3216C14.0911 5.60147 13.6602 5.33333 13.1667 5.33333C12.4303 5.33333 11.8333 5.93029 11.8333 6.66667V8.66667C11.8333 9.40305 12.4303 10 13.1667 10C13.903 10 14.5 9.40305 14.5 8.66667V8.33333H13.1667V7H15.8333V8.66667C15.8333 10.1394 14.6394 11.3333 13.1667 11.3333C11.6939 11.3333 10.5 10.1394 10.5 8.66667V6.66667ZM8.5 7.33333L8.5 4H9.83333V11.3333H8.5V8.66667H6.20856C5.23551 8.66667 4.59018 7.65809 4.99795 6.77459L6.27852 4H7.74702L6.20856 7.33333H8.5Z" fill="currentColor"/>
<path fill-rule="evenodd" clip-rule="evenodd" d="M18.5002 18.6667V16H15.8335V25.3333C15.8335 28.2789 18.2213 30.6667 21.1668 30.6667H32.5002V16H29.8335V18.6667C29.8335 19.0349 29.535 19.3333 29.1668 19.3333C28.7986 19.3333 28.5002 19.0349 28.5002 18.6667V16H26.5002V18.6667C26.5002 19.0349 26.2017 19.3333 25.8335 19.3333C25.4653 19.3333 25.1668 19.0349 25.1668 18.6667V16H23.1668V18.6667C23.1668 19.0349 22.8684 19.3333 22.5002 19.3333C22.132 19.3333 21.8335 19.0349 21.8335 18.6667V16H19.8335V18.6667C19.8335 19.0349 19.535 19.3333 19.1668 19.3333C18.7986 19.3333 18.5002 19.0349 18.5002 18.6667ZM18.5002 21.3333V25.3333C18.5002 26.8061 19.6941 28 21.1668 28H29.8335V21.3333H18.5002Z" fill="currentColor"/>
</svg>
