<svg width="32" height="32" viewBox="0 0 32 32" fill="none" xmlns="http://www.w3.org/2000/svg">
<path d="M25.9998 30H28V26H30.3333V8H28V24H13.3333L12 26H23.3333L25.9998 30Z" fill="#EA0029"/>
<path fill-rule="evenodd" clip-rule="evenodd" d="M9.33333 26H7.33317V22C4.38774 22 2 19.6123 2 16.6668V4H25.9998V22H11.9998L9.33333 26ZM4.66667 11.3333C4.66667 10.2288 5.5621 9.33333 6.66667 9.33333H8.66667V10.6667H6.66667C6.29848 10.6667 6 10.9651 6 11.3333C6 11.7015 6.29848 12 6.66667 12H7.33333C8.4379 12 9.33333 12.8954 9.33333 14C9.33333 15.1046 8.4379 16 7.33333 16H5.33333V14.6667H7.33333C7.70152 14.6667 8 14.3682 8 14C8 13.6318 7.70152 13.3333 7.33333 13.3333H6.66667C5.5621 13.3333 4.66667 12.4379 4.66667 11.3333ZM20.6667 9.33333C19.5621 9.33333 18.6667 10.2288 18.6667 11.3333C18.6667 12.4379 19.5621 13.3333 20.6667 13.3333H21.3333C21.7015 13.3333 22 13.6318 22 14C22 14.3682 21.7015 14.6667 21.3333 14.6667H19.3333V16H21.3333C22.4379 16 23.3333 15.1046 23.3333 14C23.3333 12.8954 22.4379 12 21.3333 12H20.6667C20.2985 12 20 11.7015 20 11.3333C20 10.9651 20.2985 10.6667 20.6667 10.6667H22.6667V9.33333H20.6667ZM10 11.6667C10 10.378 11.0447 9.33333 12.3333 9.33333C12.9862 9.33333 13.5765 9.60149 14 10.0337C14.4235 9.60149 15.0138 9.33333 15.6667 9.33333C16.9553 9.33333 18 10.378 18 11.6667V16H16.6667V11.6667C16.6667 11.1144 16.219 10.6667 15.6667 10.6667C15.1144 10.6667 14.6667 11.1144 14.6667 11.6667V16H13.3333V11.6667C13.3333 11.1144 12.8856 10.6667 12.3333 10.6667C11.781 10.6667 11.3333 11.1144 11.3333 11.6667V16H10V11.6667Z" fill="#EA0029"/>
</svg>
