<svg width="40" height="40" viewBox="0 0 40 40" fill="none" xmlns="http://www.w3.org/2000/svg">
<path d="M9.6428 6.42857C9.6428 4.25888 11.4017 2.5 13.5714 2.5C15.4971 2.5 17.0993 3.88563 17.4352 5.71429H15.2085C14.9329 5.08361 14.3036 4.64286 13.5714 4.64286C12.5852 4.64286 11.7857 5.44235 11.7857 6.42857V10C11.7857 10.9862 12.5852 11.7857 13.5714 11.7857C14.5576 11.7857 15.3571 10.9862 15.3571 10V9.28571H13.3516V7.14286H17.4999V10C17.4999 12.1697 15.7411 13.9286 13.5714 13.9286C11.4017 13.9286 9.6428 12.1697 9.6428 10V6.42857Z" fill="currentColor"/>
<path d="M31.4285 33.5714H38.5714V6.42857H37.1428C33.9869 6.42857 31.4285 8.98695 31.4285 12.1429V33.5714Z" fill="currentColor"/>
<path d="M28.5714 33.5714H21.4285V17.8571C21.4285 14.7012 23.9869 12.1429 27.1428 12.1429H28.5714V33.5714Z" fill="currentColor"/>
<path d="M11.4285 33.5714H18.5714V17.8571H17.1428C13.9869 17.8571 11.4285 20.4155 11.4285 23.5714V33.5714Z" fill="currentColor"/>
<path d="M1.42852 33.5714H8.57138V23.5714H7.1428C3.98689 23.5714 1.42852 26.1298 1.42852 29.2857V33.5714Z" fill="currentColor"/>
<path d="M6.07138 7.5V2.85714L8.21423 2.85714L8.21423 13.5714H6.07138V9.64286H3.06024C1.51829 9.64286 0.481041 8.06321 1.09391 6.64829L2.73604 2.85714H5.07128L3.06024 7.5L6.07138 7.5Z" fill="currentColor"/>
</svg>
