<svg width="54" height="54" viewBox="0 0 54 54" fill="none" xmlns="http://www.w3.org/2000/svg">
<path fill-rule="evenodd" clip-rule="evenodd" d="M40 28C32.268 28 26 21.732 26 14C26 6.26801 32.268 0 40 0C47.732 0 54 6.26801 54 14C54 21.732 47.732 28 40 28ZM38.5 6.52746C36.25 6.77619 34.5 8.68372 34.5 11C34.5 13.4853 36.5147 15.5 39 15.5H41C41.8284 15.5 42.5 16.1716 42.5 17C42.5 17.8284 41.8284 18.5 41 18.5H35V21.5H38.5V24H41.5V21.4725C43.75 21.2238 45.5 19.3163 45.5 17C45.5 14.5147 43.4853 12.5 41 12.5H39C38.1716 12.5 37.5 11.8284 37.5 11C37.5 10.1716 38.1716 9.5 39 9.5H45V6.5H41.5V4H38.5V6.52746Z" fill="currentColor"/>
<path d="M19 19L10 35V52H24.8159C29.018 52 32.6609 49.0922 33.5921 44.9946L35.8894 34.8865C36.4583 32.3834 34.5558 30 31.9889 30H24V24C24 21.2386 21.7614 19 19 19Z" fill="currentColor"/>
<path d="M0 32H7V54C3.13401 54 0 50.866 0 47V32Z" fill="currentColor"/>
</svg>
