<svg width="53" height="44" viewBox="0 0 53 44" fill="none" xmlns="http://www.w3.org/2000/svg">
<path d="M12.5001 6C12.5001 2.96243 14.9626 0.5 18.0001 0.5C20.6962 0.5 22.9392 2.43988 23.4094 5H20.2921C19.9063 4.11705 19.0253 3.5 18.0001 3.5C16.6194 3.5 15.5001 4.61929 15.5001 6V11C15.5001 12.3807 16.6194 13.5 18.0001 13.5C19.3808 13.5 20.5001 12.3807 20.5001 11V10H17.6924V7H23.5001V11C23.5001 14.0376 21.0377 16.5 18.0001 16.5C14.9626 16.5 12.5001 14.0376 12.5001 11V6Z" fill="currentColor"/>
<path d="M43.0001 44H53.0001V6H51.0001C46.5818 6 43.0001 9.58172 43.0001 14V44Z" fill="currentColor"/>
<path d="M39.0001 44H29.0001V22C29.0001 17.5817 32.5818 14 37.0001 14H39.0001V44Z" fill="currentColor"/>
<path d="M15.0001 44H25.0001V22H23.0001C18.5818 22 15.0001 25.5817 15.0001 30V44Z" fill="currentColor"/>
<path d="M1.00012 44H11.0001V30H9.00012C4.58184 30 1.00012 33.5817 1.00012 38V44Z" fill="currentColor"/>
<path d="M7.50012 7.5V1L10.5001 1L10.5001 16H7.50012V10.5H3.28452C1.1258 10.5 -0.326347 8.28849 0.531672 6.30761L2.83065 1H6.09999L3.28452 7.5L7.50012 7.5Z" fill="currentColor"/>
</svg>
