<svg width="48" height="57" viewBox="0 0 48 57" fill="none" xmlns="http://www.w3.org/2000/svg">
<path d="M4.00049 15C4.00049 9.69571 6.10762 4.60864 9.85835 0.85791L12.6868 3.68634C9.6862 6.68692 8.00049 10.7566 8.00049 15C8.00049 19.2435 9.6862 23.3132 12.6868 26.3138L9.85835 29.1422C6.10763 25.3915 4.00049 20.3044 4.00049 15Z" fill="currentColor"/>
<path d="M11.0005 15C11.0005 11.5522 12.3701 8.24563 14.8081 5.80766L17.6365 8.63608C15.9487 10.3239 15.0005 12.6131 15.0005 15C15.0005 17.387 15.9487 19.6762 17.6365 21.364L14.8081 24.1924C12.3701 21.7545 11.0005 18.4479 11.0005 15Z" fill="currentColor"/>
<path d="M29.0005 15C29.0005 17.7615 26.7619 20 24.0005 20C21.2391 20 19.0005 17.7615 19.0005 15C19.0005 12.2386 21.2391 10 24.0005 10C26.7619 10 29.0005 12.2386 29.0005 15Z" fill="currentColor"/>
<path fill-rule="evenodd" clip-rule="evenodd" d="M48.0005 53V57H0.000488281V53H9.59105L19.591 25H28.4099L38.4099 53H48.0005ZM32.4939 53L24.0005 43.6126L15.5071 53H32.4939ZM31.7327 46.1968L26.6976 40.6316L28.8827 38.2165L31.7327 46.1968ZM24.0005 37.6506L27.356 33.9419L25.591 29H22.4099L20.645 33.9419L24.0005 37.6506ZM21.3034 40.6316L19.1183 38.2165L16.2682 46.1968L21.3034 40.6316Z" fill="currentColor"/>
<path d="M33.1929 5.80766C35.6308 8.24563 37.0005 11.5522 37.0005 15C37.0005 18.4479 35.6308 21.7545 33.1929 24.1924L30.3644 21.364C32.0523 19.6762 33.0005 17.387 33.0005 15C33.0005 12.6131 32.0523 10.3239 30.3645 8.63608L33.1929 5.80766Z" fill="currentColor"/>
<path d="M38.1426 0.85791C41.8934 4.60864 44.0005 9.69571 44.0005 15C44.0005 20.3044 41.8934 25.3915 38.1426 29.1422L35.3142 26.3138C38.3148 23.3132 40.0005 19.2435 40.0005 15C40.0005 10.7566 38.3148 6.68692 35.3142 3.68634L38.1426 0.85791Z" fill="currentColor"/>
</svg>
