<svg width="40" height="40" viewBox="0 0 40 40" fill="none" xmlns="http://www.w3.org/2000/svg">
<g clip-path="url(#clip0_968_318348)">
<path fill-rule="evenodd" clip-rule="evenodd" d="M20 3.33333C17.8113 3.33333 15.644 3.76443 13.622 4.60201C11.5999 5.43958 9.76254 6.66724 8.21489 8.21488C6.66725 9.76252 5.43959 11.5998 4.60201 13.6219C3.76443 15.644 3.33333 17.8113 3.33333 20C3.33333 22.1887 3.76443 24.356 4.60201 26.3781C5.43958 28.4001 6.66724 30.2375 8.21488 31.7851C9.76253 33.3328 11.5998 34.5604 13.6219 35.398C15.644 36.2356 17.8113 36.6667 20 36.6667C22.1887 36.6667 24.356 36.2356 26.3781 35.398C28.4001 34.5604 30.2375 33.3328 31.7851 31.7851C33.3328 30.2375 34.5604 28.4002 35.398 26.3781C36.2356 24.356 36.6667 22.1887 36.6667 20C36.6667 17.8113 36.2356 15.644 35.398 13.622C34.5604 11.5999 33.3328 9.76254 31.7851 8.21489C30.2375 6.66725 28.4002 5.43959 26.3781 4.60201C24.356 3.76443 22.1887 3.33333 20 3.33333ZM12.3463 1.52241C14.7729 0.517313 17.3736 0 20 0C22.6264 0 25.2272 0.517318 27.6537 1.52241C30.0802 2.52751 32.285 4.0007 34.1421 5.85787C35.9993 7.71505 37.4725 9.91983 38.4776 12.3463C39.4827 14.7729 40 17.3736 40 20C40 22.6264 39.4827 25.2272 38.4776 27.6537C37.4725 30.0802 35.9993 32.285 34.1421 34.1421C32.285 35.9993 30.0802 37.4725 27.6537 38.4776C25.2272 39.4827 22.6264 40 20 40C17.3736 40 14.7728 39.4827 12.3463 38.4776C9.91982 37.4725 7.71503 35.9993 5.85786 34.1421C4.00069 32.285 2.5275 30.0802 1.52241 27.6537C0.517314 25.2271 0 22.6264 0 20C0 17.3736 0.517317 14.7728 1.52241 12.3463C2.52751 9.91981 4.0007 7.71503 5.85787 5.85786C7.71504 4.00069 9.91983 2.5275 12.3463 1.52241Z" fill="currentColor"/>
<path d="M26.6667 15.8333C26.6667 19.5152 23.6819 22.5 20 22.5C16.3181 22.5 13.3333 19.5152 13.3333 15.8333C13.3333 12.1514 16.3181 9.16667 20 9.16667C23.6819 9.16667 26.6667 12.1514 26.6667 15.8333Z" fill="currentColor"/>
<path d="M7.0308 35.2255C8.43104 29.3607 13.7063 25 20 25C26.2937 25 31.569 29.3607 32.9692 35.2255C29.4773 38.2028 24.9485 40 20 40C15.0515 40 10.5227 38.2028 7.0308 35.2255Z" fill="currentColor"/>
</g>
<defs>
<clipPath id="clip0_968_318348">
<rect width="40" height="40" fill="white"/>
</clipPath>
</defs>
</svg>
