<svg width="40" height="41" viewBox="0 0 40 41" fill="none" xmlns="http://www.w3.org/2000/svg">
<path d="M5.71456 11C5.71456 7.21122 7.21966 3.57759 9.89875 0.898499L11.9191 2.9188C9.77578 5.06208 8.57171 7.96898 8.57171 11C8.57171 14.0311 9.77578 16.938 11.9191 19.0812L9.89875 21.1015C7.21966 18.4225 5.71456 14.7888 5.71456 11Z" fill="currentColor"/>
<path d="M10.7146 11C10.7146 8.5373 11.6929 6.17544 13.4343 4.43403L15.4546 6.45434C14.249 7.65993 13.5717 9.29506 13.5717 11C13.5717 12.705 14.249 14.3401 15.4546 15.5457L13.4343 17.566C11.6929 15.8246 10.7146 13.4627 10.7146 11Z" fill="currentColor"/>
<path d="M23.5717 11C23.5717 12.9725 21.9727 14.5715 20.0003 14.5715C18.0278 14.5715 16.4288 12.9725 16.4288 11C16.4288 9.02758 18.0278 7.42859 20.0003 7.42859C21.9727 7.42859 23.5717 9.02758 23.5717 11Z" fill="currentColor"/>
<path fill-rule="evenodd" clip-rule="evenodd" d="M37.1431 38.1429V41H2.85742V38.1429H9.70782L16.8507 18.1429H23.1499L30.2927 38.1429H37.1431ZM26.067 38.1429L20.0003 31.4376L13.9336 38.1429H26.067ZM25.5233 33.2834L21.9268 29.3083L23.4875 27.5832L25.5233 33.2834ZM20.0003 27.179L22.3971 24.5299L21.1364 21H18.8642L17.6035 24.5299L20.0003 27.179ZM18.0738 29.3083L16.513 27.5832L14.4772 33.2834L18.0738 29.3083Z" fill="currentColor"/>
<path d="M26.5663 4.43403C28.3077 6.17544 29.286 8.5373 29.286 11C29.286 13.4627 28.3077 15.8246 26.5663 17.566L24.546 15.5457C25.7516 14.3401 26.4288 12.705 26.4288 11C26.4288 9.29506 25.7516 7.65993 24.546 6.45434L26.5663 4.43403Z" fill="currentColor"/>
<path d="M30.1018 0.898499C32.7809 3.57759 34.286 7.21122 34.286 11C34.286 14.7888 32.7809 18.4225 30.1018 21.1015L28.0815 19.0812C30.2248 16.938 31.4288 14.0311 31.4288 11C31.4288 7.96898 30.2248 5.06208 28.0815 2.9188L30.1018 0.898499Z" fill="currentColor"/>
</svg>
