<svg width="24" height="24" viewBox="0 0 24 24" fill="none" xmlns="http://www.w3.org/2000/svg">
<path d="M15.1571 4.37799C14.1562 3.96339 13.0834 3.75 12 3.75V1.5C13.3789 1.5 14.7443 1.77159 16.0182 2.29926C17.2921 2.82694 18.4496 3.60036 19.4246 4.57538C20.3996 5.55039 21.1731 6.70791 21.7007 7.98182C22.2284 9.25574 22.5 10.6211 22.5 12H20.25C20.25 10.9166 20.0366 9.8438 19.622 8.84286C19.2074 7.84193 18.5997 6.93245 17.8336 6.16637C17.0675 5.40029 16.1581 4.7926 15.1571 4.37799Z" fill="currentColor"/>
<path d="M12 7.5C12.5909 7.5 13.1761 7.6164 13.7221 7.84254C14.268 8.06869 14.7641 8.40016 15.182 8.81802C15.5998 9.23588 15.9313 9.73196 16.1575 10.2779C16.3836 10.8239 16.5 11.4091 16.5 12H18.75C18.75 11.1136 18.5754 10.2358 18.2362 9.41689C17.897 8.59794 17.3998 7.85382 16.773 7.22703C16.1462 6.60023 15.4021 6.10303 14.5831 5.76381C13.7642 5.42459 12.8864 5.25 12 5.25V7.5Z" fill="currentColor"/>
<path d="M12 9C12.394 9 12.7841 9.0776 13.1481 9.22836C13.512 9.37913 13.8427 9.6001 14.1213 9.87868C14.3999 10.1573 14.6209 10.488 14.7716 10.8519C14.9224 11.2159 15 11.606 15 12H12V9Z" fill="currentColor"/>
<path d="M4.57538 4.57538C3.60036 5.55039 2.82694 6.7079 2.29926 7.98182C1.77159 9.25574 1.5 10.6211 1.5 12C1.5 13.3789 1.77159 14.7443 2.29927 16.0182C2.82694 17.2921 3.60036 18.4496 4.57538 19.4246C5.5504 20.3996 6.70791 21.1731 7.98183 21.7007C9.25574 22.2284 10.6211 22.5 12 22.5C13.3789 22.5 14.7443 22.2284 16.0182 21.7007C17.2921 21.1731 18.4496 20.3996 19.4246 19.4246L15.75 15.75L12.7972 18.7028C12.5332 18.7342 12.267 18.75 12 18.75C11.1136 18.75 10.2358 18.5754 9.41689 18.2362C8.59794 17.897 7.85383 17.3998 7.22703 16.773C6.60023 16.1462 6.10303 15.4021 5.76381 14.5831C5.42459 13.7642 5.25 12.8864 5.25 12C5.25 11.6375 5.2792 11.2765 5.33691 10.9203L8.25 8.25L4.57538 4.57538Z" fill="currentColor"/>
</svg>
