<svg width="40" height="40" viewBox="0 0 40 40" fill="none" xmlns="http://www.w3.org/2000/svg">
<g clip-path="url(#clip0_951_422042)">
<path fill-rule="evenodd" clip-rule="evenodd" d="M6.56483 0.625H0V4.375H3.43517L7.40878 26.2298C8.00314 29.4988 10.8503 31.875 14.1729 31.875H35V28.125H14.1729C12.6626 28.125 11.3685 27.0449 11.0983 25.559L6.56483 0.625Z" fill="currentColor"/>
<path fill-rule="evenodd" clip-rule="evenodd" d="M39.6855 5.625H6.25V9.375H35.3145L33.7991 19.2252C33.5645 20.7497 32.2528 21.875 30.7104 21.875H9.375V25.625H30.7104C34.1037 25.625 36.9895 23.1492 37.5055 19.7954L39.6855 5.625Z" fill="currentColor"/>
<path d="M20 36.875C20 38.6009 18.6009 40 16.875 40C15.1491 40 13.75 38.6009 13.75 36.875C13.75 35.1491 15.1491 33.75 16.875 33.75C18.6009 33.75 20 35.1491 20 36.875Z" fill="currentColor"/>
<path d="M31.25 36.875C31.25 38.6009 29.8509 40 28.125 40C26.3991 40 25 38.6009 25 36.875C25 35.1491 26.3991 33.75 28.125 33.75C29.8509 33.75 31.25 35.1491 31.25 36.875Z" fill="currentColor"/>
</g>
<defs>
<clipPath id="clip0_951_422042">
<rect width="40" height="40" fill="white"/>
</clipPath>
</defs>
</svg>
