<svg width="24" height="24" viewBox="0 0 24 24" fill="none" xmlns="http://www.w3.org/2000/svg">
<path fill-rule="evenodd" clip-rule="evenodd" d="M2 12.015C2 6.74712 6.21 2 12.02 2C17.7 2 22 6.65699 22 11.985C22 18.1642 16.96 22 12 22C10.36 22 8.54 21.5593 7.08 20.698C6.57 20.3876 6.14 20.1572 5.59 20.3375L3.57 20.9384C3.06 21.0986 2.6 20.698 2.75 20.1572L3.42 17.9139C3.53 17.6034 3.51 17.2729 3.35 17.0125C2.49 15.4301 2 13.6975 2 12.015ZM10.7002 12.015C10.7002 12.7261 11.2702 13.2969 11.9802 13.307C12.6902 13.307 13.2602 12.7261 13.2602 12.025C13.2602 11.314 12.6902 10.7431 11.9802 10.7431C11.2802 10.7331 10.7002 11.314 10.7002 12.015ZM15.3105 12.025C15.3105 12.7261 15.8805 13.3069 16.5905 13.3069C17.3005 13.3069 17.8705 12.7261 17.8705 12.025C17.8705 11.314 17.3005 10.7431 16.5905 10.7431C15.8805 10.7431 15.3105 11.314 15.3105 12.025ZM7.36984 13.3069C6.66984 13.3069 6.08984 12.7261 6.08984 12.025C6.08984 11.314 6.65984 10.7431 7.36984 10.7431C8.07984 10.7431 8.64984 11.314 8.64984 12.025C8.64984 12.7261 8.07984 13.2969 7.36984 13.3069Z" fill="currentColor"/>
</svg>
