<svg width="40" height="40" viewBox="0 0 40 40" fill="none" xmlns="http://www.w3.org/2000/svg">
<path fill-rule="evenodd" clip-rule="evenodd" d="M30.0001 20C24.4773 20 20.0001 15.5228 20.0001 10C20.0001 4.47715 24.4773 0 30.0001 0C35.523 0 40.0001 4.47715 40.0001 10C40.0001 15.5228 35.523 20 30.0001 20ZM28.9287 4.66247C27.3216 4.84013 26.0716 6.20266 26.0716 7.85714C26.0716 9.63234 27.5107 11.0714 29.2859 11.0714H30.7144C31.3062 11.0714 31.7859 11.5511 31.7859 12.1429C31.7859 12.7346 31.3062 13.2143 30.7144 13.2143H26.4287V15.3571H28.9287V17.1429H31.0716V15.3375C32.6787 15.1599 33.9287 13.7973 33.9287 12.1429C33.9287 10.3677 32.4896 8.92857 30.7144 8.92857H29.2859C28.6941 8.92857 28.2144 8.44888 28.2144 7.85714C28.2144 7.26541 28.6941 6.78571 29.2859 6.78571H33.5716V4.64286H31.0716V2.85714H28.9287V4.66247Z" fill="currentColor"/>
<path d="M15.0001 13.5714L8.57157 25V37.1429H19.1544C22.1559 37.1429 24.7579 35.0658 25.4231 32.139L27.064 24.9189C27.4704 23.131 26.1114 21.4286 24.2779 21.4286H18.5716V17.1429C18.5716 15.1704 16.9726 13.5714 15.0001 13.5714Z" fill="currentColor"/>
<path d="M1.42871 22.8571H6.42871V38.5714C3.66729 38.5714 1.42871 36.3329 1.42871 33.5714V22.8571Z" fill="currentColor"/>
</svg>
