<svg width="24" height="24" viewBox="0 0 24 24" fill="none" xmlns="http://www.w3.org/2000/svg">
<path d="M13.8239 11.4035L13.6532 11.5145L13.8479 11.4293L13.8239 11.4035Z" fill="#21145F"/>
<path d="M17.7797 19.3643L13.6168 14.8049L12.6498 15.228C10.7702 16.0503 8.57587 15.2558 7.65835 13.4208L7.05919 12.2225L10.4784 10H6L4.5 17.25L4.82055 17.3569C5.10401 17.4513 5.36581 17.6013 5.59067 17.7981L9.19676 20.9534C10.4353 22.0371 12.2111 22.2517 13.672 21.4941L17.7797 19.3643Z" fill="#21145F"/>
<path d="M17.2955 1.79558L15.7045 0.20459L11.25 4.65909L9.0455 2.45459L7.4545 4.04558L11.25 7.84107L17.2955 1.79558Z" fill="#318CDD"/>
<path d="M12.9047 10.212L9 12.7501C9.55253 13.9242 10.9516 14.429 12.1265 13.8783L14 13.0001L18.5 18.0001L20 17.0001L18.25 10.0001L17 10.2501L15.2673 9.81691C14.4591 9.61486 13.6032 9.75798 12.9047 10.212Z" fill="#318CDD"/>
<path d="M19.75 9.75008L22.25 9.00008L23.75 15.7501L21.5 16.5001L19.75 9.75008Z" fill="#318CDD"/>
<path d="M3 17.2501L0.5 17.0001L2 9.00008L4.5 9.75008L3 17.2501Z" fill="#318CDD"/>
</svg>
