<svg width="41" height="40" viewBox="0 0 41 40" fill="none" xmlns="http://www.w3.org/2000/svg">
<path d="M9.97477 18.3333L7.41699 20C7.41699 20 7.8337 23.75 11.167 27.0833L8.25038 30C2.41699 24.1667 2.41699 15.8333 2.41699 10.8333H9.97477V18.3333Z" fill="currentColor"/>
<path d="M19.917 28.2755L18.2503 30.8333C18.2503 30.8333 14.5003 30.4166 11.167 27.0833L8.25038 30C14.0837 35.8334 22.417 35.8333 27.417 35.8333V28.2755H19.917Z" fill="currentColor"/>
<path d="M13.2503 8.33333V5H38.2503V8.33333L25.7503 14.1667L13.2503 8.33333Z" fill="currentColor"/>
<path d="M13.2503 10.8333L25.7503 16.6667L38.2503 10.8333V25H18.2503C15.4889 25 13.2503 22.7614 13.2503 20V10.8333Z" fill="currentColor"/>
</svg>
