<svg width="40" height="40" viewBox="0 0 40 40" fill="none" xmlns="http://www.w3.org/2000/svg">
<path fill-rule="evenodd" clip-rule="evenodd" d="M10.8333 33.3333H37.5V6.66663L2.5 6.66663L2.5 25C2.5 29.6023 6.23096 33.3333 10.8333 33.3333ZM12.5 12.5C12.5 10.659 13.9924 9.16663 15.8333 9.16663C17.3865 9.16663 18.6916 10.2289 19.0617 11.6666H17.277C16.9889 11.1685 16.4502 10.8333 15.8333 10.8333C14.9129 10.8333 14.1667 11.5795 14.1667 12.5V15C14.1667 15.9204 14.9129 16.6666 15.8333 16.6666C16.7538 16.6666 17.5 15.9204 17.5 15V14.5833H15.8333V12.9166H19.1667V15C19.1667 16.8409 17.6743 18.3333 15.8333 18.3333C13.9924 18.3333 12.5 16.8409 12.5 15V12.5ZM10 13.3333V9.16663H11.6667V18.3333H10L10 15L7.13572 15C5.9194 15 5.11275 13.7392 5.62245 12.6349L7.22317 9.16663L9.05879 9.16663L7.13572 13.3333H10ZM20 30.8333L22.5 30.8333V27.5H22.3077C21.0332 27.5 20 28.5331 20 29.8076V30.8333ZM26.6667 30.8333H24.1667V27.3076C24.1667 26.0331 25.1999 25 26.4744 25H26.6667V30.8333ZM28.3333 30.8333H30.8333L30.8333 22.5H30.641C29.3665 22.5 28.3333 23.5331 28.3333 24.8076V30.8333ZM35 30.8333H32.5V22.3077C32.5 21.0331 33.5332 20 34.8077 20H35V30.8333Z" fill="currentColor"/>
</svg>
