<svg width="32" height="32" viewBox="0 0 32 32" fill="none" xmlns="http://www.w3.org/2000/svg">
<path fill-rule="evenodd" clip-rule="evenodd" d="M23.2728 2.90912H8.72736C5.84664 2.90912 2.90918 5.91139 2.90918 8.7273V23.2728C2.90918 26.2099 5.86465 29.0909 8.72736 29.0909H16.9034V18.9658H13.4954V15.3029H16.9034V12.0858C16.9034 8.70548 18.9703 6.86257 21.987 6.86257C23.0037 6.85966 24.0146 6.86257 25.0299 6.86257V10.5498H22.9528C21.3092 10.5498 20.9892 11.3266 20.9892 12.4728V15.2971H24.6698L23.8243 18.96H20.9659V29.0909H23.2728C26.2344 29.0909 29.091 26.1681 29.091 23.2728V8.7273C29.091 5.85455 26.2121 2.90912 23.2728 2.90912Z" fill="currentColor"/>
</svg>
