<svg width="41" height="40" viewBox="0 0 41 40" fill="none" xmlns="http://www.w3.org/2000/svg">
<g clip-path="url(#clip0_951_409354)">
<path fill-rule="evenodd" clip-rule="evenodd" d="M3 23.3333C3 26.0947 5.23857 28.3333 8 28.3333H20.7882C22.1969 28.3333 23.5402 27.7391 24.4878 26.6967L31.3333 19.1667V12.5H3V23.3333ZM17.1667 25C18.5474 25 19.6667 23.8808 19.6667 22.5C19.6667 21.1192 18.5474 20 17.1667 20C15.7859 20 14.6667 21.1192 14.6667 22.5C14.6667 23.8808 15.7859 25 17.1667 25Z" fill="currentColor"/>
<path fill-rule="evenodd" clip-rule="evenodd" d="M4.66667 12.5C4.66667 5.59644 10.2631 0 17.1667 0C24.0702 0 29.6667 5.59644 29.6667 12.5H24.6667C24.6667 8.35786 21.3088 5 17.1667 5C13.0245 5 9.66667 8.35786 9.66667 12.5H4.66667Z" fill="currentColor"/>
<path d="M12.1667 37.5H22.1667L31.3333 26.6667C32.2538 26.6667 33 27.4128 33 28.3333V37.5H38V25C38 23.6192 39.1192 22.5 40.5 22.5V19.1667C40.5 17.3258 39.0076 15.8333 37.1667 15.8333L25.8222 28.5958C24.5572 30.019 22.7438 30.8333 20.8396 30.8333H17.1667L12.1667 35.8333V37.5Z" fill="currentColor"/>
</g>
<defs>
<clipPath id="clip0_951_409354">
<rect width="40" height="40" fill="white" transform="translate(0.5)"/>
</clipPath>
</defs>
</svg>
