<svg width="24" height="24" viewBox="0 0 24 24" fill="none" xmlns="http://www.w3.org/2000/svg">
<path fill-rule="evenodd" clip-rule="evenodd" d="M13.9592 18.0234C13.2922 18.6604 12.4092 19.0064 11.4712 19.0004H11.4702C10.5332 18.9924 9.65624 18.6314 9.00024 17.9844C7.65124 16.6554 7.66924 14.5074 9.04124 13.1984L11.2042 11.1304C11.2932 11.0454 11.4132 10.9994 11.5392 11.0004V11.0004C11.6642 11.0014 11.7842 11.0494 11.8712 11.1354L14.0002 13.2364C15.3492 14.5664 15.3312 16.7134 13.9592 18.0234M16.8062 7.9864L12.2132 3.2954C11.8312 2.9044 11.1942 2.9044 10.7982 3.2804C10.5842 3.4844 10.4702 3.7734 10.4892 4.0684C10.4982 4.2084 10.4982 4.3464 10.4982 4.4944C10.4982 7.0514 9.85524 8.5634 9.50024 8.9374C9.34924 8.7714 9.07524 8.3354 8.84424 7.4444C8.75424 7.0964 8.48424 6.8234 8.13724 6.7294C7.78824 6.6374 7.41824 6.7364 7.16524 6.9914L6.18124 7.9844C3.27024 10.9514 3.27424 15.7854 6.18924 18.7564C7.60224 20.2024 9.48524 20.9984 11.4922 21.0004H11.5002C13.5092 21.0004 15.3962 20.2044 16.8152 18.7574C19.7322 15.7854 19.7272 10.9514 16.8062 7.9864" fill="#FF5100"/>
</svg>
