<svg width="48" height="24" viewBox="0 0 48 24" fill="none" xmlns="http://www.w3.org/2000/svg">
<path d="M18.0004 11C18.0004 9.34315 19.3435 8 21.0004 8H24.5004V10H21.0004C20.4481 10 20.0004 10.4477 20.0004 11C20.0004 11.5523 20.4481 12 21.0004 12H22.0004C23.6572 12 25.0004 13.3431 25.0004 15C25.0004 16.6569 23.6572 18 22.0004 18H18.5004V16H22.0004C22.5526 16 23.0004 15.5523 23.0004 15C23.0004 14.4477 22.5526 14 22.0004 14H21.0004C19.3435 14 18.0004 12.6569 18.0004 11Z" fill="white"/>
<path fill-rule="evenodd" clip-rule="evenodd" d="M29.5004 8C27.5674 8 26.0004 9.567 26.0004 11.5V18H28.0004V15H31.0004V18H33.0004V11.5C33.0004 9.567 31.4334 8 29.5004 8ZM31.0004 11.5V13H28.0004V11.5C28.0004 10.6716 28.6719 10 29.5004 10C30.3288 10 31.0004 10.6716 31.0004 11.5Z" fill="white"/>
<path d="M37.0004 18C35.3435 18 34.0004 16.6569 34.0004 15V8H36.0004V15C36.0004 15.5523 36.4481 16 37.0004 16H40.5004V18H37.0004Z" fill="white"/>
<path d="M41.0004 11C41.0004 9.34315 42.3435 8 44.0004 8H47.0004V10H44.0004C43.4481 10 43.0004 10.4477 43.0004 11C43.0004 11.5523 43.4481 12 44.0004 12H47.0004V14H44.0004C43.4481 14 43.0004 14.4477 43.0004 15C43.0004 15.5523 43.4481 16 44.0004 16H47.0004V18H44.0004C42.3435 18 41.0004 16.6569 41.0004 15C41.0004 14.2316 41.2892 13.5308 41.7643 13C41.2892 12.4692 41.0004 11.7684 41.0004 11Z" fill="white"/>
<path d="M14.0004 2H4.00036L0.646057 12.9015C0.325198 13.9443 1.10493 15 2.19597 15H6.00036L4.00036 24H5.00036L16.0004 11H11.0004L14.0004 2Z" fill="white"/>
</svg>
