<svg width="24" height="24" viewBox="0 0 24 24" fill="none" xmlns="http://www.w3.org/2000/svg">
<path fill-rule="evenodd" clip-rule="evenodd" d="M9.5 1.5C7.567 1.5 6 3.067 6 5V6.5H1.5L1.5 9.5L11 9.49964L10.9999 6.5L8 6.5V5C8 4.17157 8.67157 3.5 9.5 3.5C10.3284 3.5 11 4.17157 11 5L10.9999 6.5H13V9.5L22.5 9.49964V6.5H18V5C18 3.067 16.433 1.5 14.5 1.5C13.5207 1.5 12.6353 1.90223 12 2.55051C11.3647 1.90223 10.4793 1.5 9.5 1.5ZM16 6.5H13V5C13 4.17157 13.6716 3.5 14.5 3.5C15.3284 3.5 16 4.17157 16 5V6.5Z" fill="#FF5100"/>
<path d="M11 20.9995L6.00019 20.9998C4.34326 20.9999 3 19.6567 3 17.9998L3 11H11L11 20.9995Z" fill="#FF5100"/>
<path d="M21 17.9997C21 19.6565 19.657 20.9996 18.0002 20.9997L13 21L13 11L21 11V17.9997Z" fill="#FF5100"/>
</svg>
