<svg width="41" height="40" viewBox="0 0 41 40" fill="none" xmlns="http://www.w3.org/2000/svg">
<path fill-rule="evenodd" clip-rule="evenodd" d="M8.70414 32.725C9.10361 33.509 9.74103 34.1464 10.525 34.5459C10.8269 34.6997 11.2845 34.8393 12.2416 34.9175C13.2279 34.9981 14.5086 35 16.4167 35H33.25V8.53553L29.7145 5H8.25V26.8333C8.25 28.7414 8.25194 30.0221 8.33253 31.0084C8.41072 31.9655 8.55033 32.4231 8.70414 32.725ZM30.75 2.5L35.75 7.5V37.5H16.4167C12.683 37.5 10.8161 37.5 9.39006 36.7734C8.13565 36.1342 7.11578 35.1143 6.47662 33.8599C5.75 32.4339 5.75 30.567 5.75 26.8333V2.5H30.75Z" fill="currentColor"/>
<path fill-rule="evenodd" clip-rule="evenodd" d="M8.25 5H30.75V32.5H8.25V5ZM20.75 10.4167C20.75 11.5673 19.8173 12.5 18.6667 12.5C17.5161 12.5 16.5833 11.5673 16.5833 10.4167C16.5833 9.26607 17.5161 8.33333 18.6667 8.33333C19.8173 8.33333 20.75 9.26607 20.75 10.4167ZM20.75 14.1667H15.75V16.6667H17.4167V24.1667H15.75V26.6667H22.4167V24.1667H20.75V14.1667Z" fill="currentColor"/>
</svg>
