<svg width="40" height="40" viewBox="0 0 40 40" fill="none" xmlns="http://www.w3.org/2000/svg">
<path fill-rule="evenodd" clip-rule="evenodd" d="M26.6667 7.5H0V27.5C0 30.2614 2.23857 32.5 5 32.5H26.6667V7.5ZM8.33333 17.5C9.71408 17.5 10.8333 16.3807 10.8333 15C10.8333 13.6192 9.71408 12.5 8.33333 12.5C6.95263 12.5 5.83333 13.6192 5.83333 15C5.83333 16.3807 6.95263 17.5 8.33333 17.5ZM20.8333 25C20.8333 26.3808 19.7141 27.5 18.3333 27.5C16.9526 27.5 15.8333 26.3808 15.8333 25C15.8333 23.6192 16.9526 22.5 18.3333 22.5C19.7141 22.5 20.8333 23.6192 20.8333 25ZM17.9123 12.2358L6.24571 25.5692L8.75433 27.7642L20.421 14.4308L17.9123 12.2358Z" fill="currentColor"/>
<path fill-rule="evenodd" clip-rule="evenodd" d="M29.1667 7.5H40V15C37.2386 15 35 17.2386 35 20C35 22.7614 37.2386 25 40 25V32.5H29.1667V7.5Z" fill="currentColor"/>
<path d="M26.6667 10.8333H29.1667V14.1667H26.6667V10.8333Z" fill="currentColor"/>
<path d="M26.6667 18.3333H29.1667V21.6667H26.6667V18.3333Z" fill="currentColor"/>
<path d="M26.6667 25.8333H29.1667V29.1667H26.6667V25.8333Z" fill="currentColor"/>
</svg>
