<svg width="32" height="32" viewBox="0 0 32 32" fill="none" xmlns="http://www.w3.org/2000/svg">
<path fill-rule="evenodd" clip-rule="evenodd" d="M23.2728 2.90912C26.4861 2.90912 29.091 5.51401 29.091 8.7273V23.2728C29.091 26.486 26.4861 29.0909 23.2728 29.0909H8.72736C5.51407 29.0909 2.90918 26.486 2.90918 23.2728V8.7273C2.90918 5.51401 5.51407 2.90912 8.72736 2.90912H23.2728ZM16.0003 8.72729C11.9836 8.72729 8.72754 11.9834 8.72754 16C8.72754 20.0166 11.9836 23.2727 16.0003 23.2727C20.0169 23.2727 23.273 20.0166 23.273 16C23.273 11.9834 20.0169 8.72729 16.0003 8.72729ZM16.0004 11.6364C18.4103 11.6364 20.364 13.5901 20.364 16C20.364 18.41 18.4103 20.3637 16.0004 20.3637C13.5904 20.3637 11.6367 18.41 11.6367 16C11.6367 13.5901 13.5904 11.6364 16.0004 11.6364ZM24.727 5.81824C23.9237 5.81824 23.2725 6.46946 23.2725 7.27278C23.2725 8.07611 23.9237 8.72733 24.727 8.72733C25.5303 8.72733 26.1816 8.07611 26.1816 7.27278C26.1816 6.46946 25.5303 5.81824 24.727 5.81824Z" fill="currentColor"/>
</svg>
