<svg width="40" height="40" viewBox="0 0 40 40" fill="none" xmlns="http://www.w3.org/2000/svg">
<path fill-rule="evenodd" clip-rule="evenodd" d="M18.5401 35H11.6667C7.98477 35 5 32.0152 5 28.3333V2.5H30V17.5C23.0964 17.5 17.5 23.0964 17.5 30C17.5 31.7778 17.8711 33.4688 18.5401 35ZM25.8333 9.58333H9.16667V7.08333H25.8333V9.58333ZM9.16667 15.4167H22.5V12.9167H9.16667V15.4167ZM14.1667 21.25H9.16667V18.75H14.1667V21.25Z" fill="currentColor"/>
<path fill-rule="evenodd" clip-rule="evenodd" d="M40 30C40 35.5228 35.5228 40 30 40C24.4772 40 20 35.5228 20 30C20 24.4772 24.4772 20 30 20C35.5228 20 40 24.4772 40 30ZM25.4167 27.5C25.4167 25.5698 26.875 23.9802 28.75 23.7729V22.5H31.25V23.75H33.3333V26.25H29.1667C28.4763 26.25 27.9167 26.8096 27.9167 27.5C27.9167 28.1904 28.4763 28.75 29.1667 28.75H30.8333C32.9044 28.75 34.5833 30.4289 34.5833 32.5C34.5833 34.4302 33.125 36.0198 31.25 36.2271V37.5H28.75V36.25H26.6667V33.75H30.8333C31.5237 33.75 32.0833 33.1904 32.0833 32.5C32.0833 31.8096 31.5237 31.25 30.8333 31.25H29.1667C27.0956 31.25 25.4167 29.5711 25.4167 27.5Z" fill="currentColor"/>
</svg>
