<svg width="41" height="40" viewBox="0 0 41 40" fill="none" xmlns="http://www.w3.org/2000/svg">
<path fill-rule="evenodd" clip-rule="evenodd" d="M5.49985 7.5H35.4998L39.3037 26.5194C39.9225 29.6134 37.5561 32.5 34.4008 32.5H27.1665L26.3332 27.5H14.6665L13.8332 32.5H6.59887C3.44364 32.5 1.07717 29.6134 1.69596 26.5194L5.49985 7.5ZM28.8332 15.4167C28.8332 16.5673 27.9004 17.5 26.7498 17.5C25.5993 17.5 24.6665 16.5673 24.6665 15.4167C24.6665 14.2661 25.5993 13.3333 26.7498 13.3333C27.9004 13.3333 28.8332 14.2661 28.8332 15.4167ZM31.7498 22.5C32.9004 22.5 33.8332 21.5673 33.8332 20.4167C33.8332 19.2661 32.9004 18.3333 31.7498 18.3333C30.5993 18.3333 29.6665 19.2661 29.6665 20.4167C29.6665 21.5673 30.5993 22.5 31.7498 22.5ZM13.4166 19.5833V23.3333H10.9166V19.5833H7.16661V17.0833H10.9166V13.3333H13.4166V17.0833H17.1666V19.5833H13.4166Z" fill="currentColor"/>
</svg>
