<svg width="41" height="40" viewBox="0 0 41 40" fill="none" xmlns="http://www.w3.org/2000/svg">
<path fill-rule="evenodd" clip-rule="evenodd" d="M8 28.3333H38V6.66663H3V23.3333C3 26.0947 5.23858 28.3333 8 28.3333ZM18 22.5L25.5 17.5L18 12.5L18 22.5Z" fill="currentColor"/>
<path d="M28.8333 32.9166C28.8333 34.5275 27.5275 35.8333 25.9167 35.8333C24.3058 35.8333 23 34.5275 23 32.9166C23 31.3058 24.3058 30 25.9167 30C27.5275 30 28.8333 31.3058 28.8333 32.9166Z" fill="currentColor"/>
<path d="M3 31.6666H20.5V34.1666H3V31.6666Z" fill="currentColor"/>
<path d="M31.3333 31.6666H38V34.1666H31.3333V31.6666Z" fill="currentColor"/>
</svg>
