<svg width="40" height="40" viewBox="0 0 40 40" fill="none" xmlns="http://www.w3.org/2000/svg">
<path d="M18.3333 34.9991L10.0003 34.9996C7.23877 34.9998 5 32.7612 5 29.9996V18.3333H18.3333V34.9991Z" fill="currentColor"/>
<path d="M35 29.9995C35 32.7607 32.7616 34.9993 30.0003 34.9995L21.6667 35V18.3333H35V29.9995Z" fill="currentColor"/>
<path d="M37.5 15.8327L21.6667 15.8333V10.8333H37.5V15.8327Z" fill="currentColor"/>
<path d="M18.3333 15.8327L2.5 15.8333V10.8333H18.3331L18.3333 15.8327Z" fill="currentColor"/>
<path fill-rule="evenodd" clip-rule="evenodd" d="M15.8333 6.66663C14.9129 6.66663 14.1667 7.41283 14.1667 8.33329V10.8333H9.16667V8.33329C9.16667 4.65139 12.1515 1.66663 15.8333 1.66663C19.5152 1.66663 22.5 4.65139 22.5 8.33329V10.8333H17.5V8.33329C17.5 7.41283 16.7538 6.66663 15.8333 6.66663Z" fill="currentColor"/>
<path fill-rule="evenodd" clip-rule="evenodd" d="M24.1667 6.66663C23.2462 6.66663 22.5 7.41283 22.5 8.33329V10.8333H17.5V8.33329C17.5 4.65139 20.4848 1.66663 24.1667 1.66663C27.8485 1.66663 30.8333 4.65139 30.8333 8.33329V10.8333H25.8333V8.33329C25.8333 7.41283 25.0871 6.66663 24.1667 6.66663Z" fill="currentColor"/>
</svg>
