<svg width="40" height="40" viewBox="0 0 40 40" fill="none" xmlns="http://www.w3.org/2000/svg">
<path d="M3.125 5.625H36.875V11.25H33.125V9.375H6.875V11.25H3.125V5.625Z" fill="currentColor"/>
<path d="M6.875 25.625C6.875 27.0057 7.99429 28.125 9.375 28.125H33.125V25.625H36.875V31.875H26.2144L23.2145 36.25H20V31.875H9.375C5.92322 31.875 3.125 29.0768 3.125 25.625H6.875Z" fill="currentColor"/>
<path d="M7.5 13.75V21.25C7.5 22.6307 8.61929 23.75 10 23.75H13.75V21.25H10V13.75H7.5Z" fill="currentColor"/>
<path d="M30 13.75C28.2741 13.75 26.875 15.1491 26.875 16.875C26.875 17.5785 27.1075 18.2277 27.4998 18.75C27.1075 19.2723 26.875 19.9215 26.875 20.625C26.875 22.3509 28.2741 23.75 30 23.75H33.125V21.25H30C29.6548 21.25 29.375 20.9702 29.375 20.625C29.375 20.2798 29.6548 20 30 20H32.5V17.5H30C29.6548 17.5 29.375 17.2202 29.375 16.875C29.375 16.5298 29.6548 16.25 30 16.25H33.125V13.75H30Z" fill="currentColor"/>
<path d="M15 13.75V23.75H17.5V13.75H15Z" fill="currentColor"/>
<path d="M18.248 13.75L20.5062 22.2182C20.747 23.1215 21.5651 23.75 22.5 23.75C23.4349 23.75 24.253 23.1215 24.4938 22.2182L26.752 13.75H24.1647L22.5 19.9924L20.8353 13.75H18.248Z" fill="currentColor"/>
</svg>
