<svg width="40" height="40" viewBox="0 0 40 40" fill="none" xmlns="http://www.w3.org/2000/svg">
<path d="M20 21.25C22.7614 21.25 25 19.0114 25 16.25C25 13.4886 22.7614 11.25 20 11.25C17.2386 11.25 15 13.4886 15 16.25C15 19.0114 17.2386 21.25 20 21.25Z" fill="currentColor"/>
<path fill-rule="evenodd" clip-rule="evenodd" d="M18.8279 37.7135C18.8283 37.7138 18.8287 37.7141 20 36.25L18.8279 37.7135L20 38.6512L21.1713 37.7141L20 36.25C21.1713 37.7141 21.1709 37.7145 21.1713 37.7141L21.1733 37.7125L21.1764 37.7101L21.186 37.7023L21.2186 37.6759C21.2461 37.6535 21.2852 37.6216 21.335 37.5804C21.4347 37.498 21.5775 37.3785 21.7573 37.2244C22.1168 36.9163 22.625 36.4689 23.2325 35.902C24.4449 34.7703 26.0651 33.1507 27.6904 31.2003C30.867 27.3884 34.375 21.9475 34.375 16.25C34.375 8.31091 27.9391 1.875 20 1.875C12.0609 1.875 5.625 8.31091 5.625 16.25C5.625 21.9475 9.133 27.3884 12.3096 31.2003C13.9349 33.1507 15.5551 34.7703 16.7675 35.902C17.375 36.4689 17.8832 36.9163 18.2427 37.2244C18.4225 37.3785 18.5653 37.498 18.665 37.5804C18.7148 37.6216 18.7539 37.6535 18.7814 37.6759L18.814 37.7023L18.8236 37.7101L18.8267 37.7125L18.8279 37.7135ZM9.375 16.25C9.375 10.382 14.132 5.625 20 5.625C25.868 5.625 30.625 10.382 30.625 16.25C30.625 20.5525 27.883 25.1116 24.8096 28.7997C23.3099 30.5993 21.8051 32.1047 20.6738 33.1605C20.43 33.3881 20.2041 33.5942 20 33.7774C19.7959 33.5942 19.57 33.3881 19.3262 33.1605C18.1949 32.1047 16.6901 30.5993 15.1904 28.7997C12.117 25.1116 9.375 20.5525 9.375 16.25Z" fill="currentColor"/>
</svg>
