<svg width="24" height="24" viewBox="0 0 24 24" fill="none" xmlns="http://www.w3.org/2000/svg">
<path fill-rule="evenodd" clip-rule="evenodd" d="M17.5227 7.39601V8.92935C19.2451 9.46696 20.5 11.0261 20.5 12.8884V17.8253C20.5 20.1308 18.5886 22 16.2322 22H7.7688C5.41136 22 3.5 20.1308 3.5 17.8253V12.8884C3.5 11.0261 4.75595 9.46696 6.47729 8.92935V7.39601C6.48745 4.41479 8.95667 2 11.9848 2C15.0535 2 17.5227 4.41479 17.5227 7.39601ZM12.0054 3.73901C14.0682 3.73901 15.7448 5.37868 15.7448 7.39598V8.71367H8.25586V7.3761C8.26602 5.36875 9.94265 3.73901 12.0054 3.73901ZM12.8896 16.4549C12.8896 16.9419 12.4933 17.3294 11.9954 17.3294C11.5076 17.3294 11.1113 16.9419 11.1113 16.4549V14.2488C11.1113 13.7718 11.5076 13.3843 11.9954 13.3843C12.4933 13.3843 12.8896 13.7718 12.8896 14.2488V16.4549Z" fill="currentColor"/>
</svg>
