<svg width="48" height="48" viewBox="0 0 48 48" fill="none" xmlns="http://www.w3.org/2000/svg">
<g clip-path="url(#clip0_1911_561113)">
<path d="M18.5 15C18.5 12.6837 20.25 10.7762 22.5 10.5275V9H25.5V10.5H28V13.5H23C22.1716 13.5 21.5 14.1716 21.5 15C21.5 15.8284 22.1716 16.5 23 16.5H25C27.4853 16.5 29.5 18.5147 29.5 21C29.5 23.3163 27.75 25.2238 25.5 25.4725V27H22.5V25.5H20V22.5H25C25.8284 22.5 26.5 21.8284 26.5 21C26.5 20.1716 25.8284 19.5 25 19.5H23C20.5147 19.5 18.5 17.4853 18.5 15Z" fill="black"/>
<path fill-rule="evenodd" clip-rule="evenodd" d="M48 3H0V12C3.31371 12 6 14.6863 6 18C6 21.3137 3.31371 24 0 24V33H48V24C44.6863 24 42 21.3137 42 18C42 14.6863 44.6863 12 48 12V3ZM36 18C36 24.6274 30.6274 30 24 30C17.3726 30 12 24.6274 12 18C12 11.3726 17.3726 6 24 6C30.6274 6 36 11.3726 36 18Z" fill="black"/>
<path d="M11.7634 38.5729L10 35L8.23664 38.5729L4.29366 39.1459L7.14683 41.9271L6.47329 45.8541L10 44L13.5267 45.8541L12.8532 41.9271L15.7063 39.1459L11.7634 38.5729Z" fill="black"/>
<path d="M39.7634 38.5729L38 35L36.2366 38.5729L32.2937 39.1459L35.1468 41.9271L34.4733 45.8541L38 44L41.5267 45.8541L40.8532 41.9271L43.7063 39.1459L39.7634 38.5729Z" fill="black"/>
<path d="M24 35L25.7634 38.5729L29.7063 39.1459L26.8532 41.9271L27.5267 45.8541L24 44L20.4733 45.8541L21.1468 41.9271L18.2937 39.1459L22.2366 38.5729L24 35Z" fill="black"/>
</g>
<defs>
<clipPath id="clip0_1911_561113">
<rect width="48" height="48" fill="white"/>
</clipPath>
</defs>
</svg>
