<svg width="40" height="40" viewBox="0 0 40 40" fill="none" xmlns="http://www.w3.org/2000/svg">
<path d="M21.1558 11.4608C22.4271 10.9909 23.3333 9.76793 23.3333 8.33333C23.3333 6.49238 21.8409 5 20 5C18.159 5 16.6667 6.49238 16.6667 8.33333C16.6667 9.76793 17.5729 10.9909 18.8442 11.4608L15.8139 19.6604C14.5035 23.2063 9.8837 24.0714 7.37897 21.24L5.54194 19.1634C6.23178 18.5526 6.66667 17.6604 6.66667 16.6667C6.66667 14.8257 5.17428 13.3333 3.33333 13.3333C1.49238 13.3333 0 14.8257 0 16.6667C0 18.5076 1.49238 20 3.33333 20C3.5817 20 3.82372 19.9728 4.05659 19.9213L6.66667 31.6667V35H33.3333V31.6667L35.9434 19.9213C36.1763 19.9728 36.4183 20 36.6667 20C38.5076 20 40 18.5076 40 16.6667C40 14.8257 38.5076 13.3333 36.6667 13.3333C34.8257 13.3333 33.3333 14.8257 33.3333 16.6667C33.3333 17.6604 33.7682 18.5526 34.4581 19.1634L32.621 21.24C30.1163 24.0714 25.4965 23.2063 24.1861 19.6604L21.1558 11.4608Z" fill="currentColor"/>
</svg>
