<svg width="41" height="40" viewBox="0 0 41 40" fill="none" xmlns="http://www.w3.org/2000/svg">
<path d="M34.4399 2.52457C35.4162 1.54826 36.9991 1.54826 37.9754 2.52457C38.9517 3.50088 38.9517 5.08379 37.9754 6.0601L36.2076 7.82787L32.6721 4.29234L34.4399 2.52457Z" fill="currentColor"/>
<path d="M39.1538 10.7742L29.7257 1.34607L26.1902 4.8816L35.6183 14.3097L39.1538 10.7742Z" fill="currentColor"/>
<path fill-rule="evenodd" clip-rule="evenodd" d="M36.2075 18.4345L22.0654 4.29234L17.3514 9.00638L22.0654 13.7205L20.2976 15.4882L15.5835 10.7741L12.048 14.3097L16.762 19.0237L14.9943 20.7915L10.2803 16.0775L6.74473 19.613L11.4588 24.327L9.69104 26.0948L4.97696 21.3808L3.79845 22.5593C1.84583 24.5119 1.84583 27.6777 3.79845 29.6303L10.8695 36.7014C12.8221 38.654 15.988 38.654 17.9406 36.7014L36.2075 18.4345Z" fill="currentColor"/>
</svg>
