<svg width="40" height="40" viewBox="0 0 40 40" fill="none" xmlns="http://www.w3.org/2000/svg">
<path d="M4.88532 21.0933H1V32.3272H4.88532V21.0933Z" fill="currentColor"/>
<path d="M11.7187 24.1701C11.3622 25.2212 10.8619 27.0446 10.9073 27.6207C10.8845 29.4329 12.598 29.462 13.9547 28.8729L14.389 31.8875C12.2084 32.8904 9.57489 32.6824 8.19225 31.4118C7.36281 30.6715 6.94928 29.5907 6.94928 28.1691C6.99948 26.8667 7.42223 25.7262 7.87263 24.1701H6.18164V21.0944H8.83935L9.6507 18.5098H13.5056L12.6875 21.0944H14.8183V24.1701H11.7187Z" fill="currentColor"/>
<path d="M36.4104 21.0996C37.6028 21.0996 38.5695 20.1329 38.5695 18.9404C38.5695 17.7479 37.6028 16.7812 36.4104 16.7812C35.2179 16.7812 34.2512 17.7479 34.2512 18.9404C34.2512 20.1329 35.2179 21.0996 36.4104 21.0996Z" fill="currentColor"/>
<path d="M26.3735 27.7729C26.5852 26.5405 26.4794 25.3153 26.029 24.2202C25.9569 24.0399 25.8736 23.8644 25.779 23.6909C25.3238 22.855 24.6887 22.2041 23.8732 21.7312C23.0486 21.2333 21.9876 20.9878 20.929 20.9878C19.8704 20.9878 18.8091 21.2309 17.9848 21.7175C15.2636 23.1842 14.5605 27.0948 16.0159 29.6832C17.0072 31.4786 18.9625 32.5471 21.0103 32.5198C22.675 32.5335 24.5319 31.8386 25.4461 30.4829C25.1961 30.3344 22.7764 28.8879 22.6053 28.7864C22.2447 29.298 21.6704 29.5568 21.0103 29.5548C19.9763 29.5729 19.181 28.8001 19.1428 27.7729H26.3735ZM19.1421 25.4413C19.196 24.0467 20.7009 23.4724 21.8387 24.0423C21.9647 24.1075 22.0866 24.1864 22.1945 24.2834C22.5347 24.5897 22.7037 24.9749 22.7037 25.4413H19.1421Z" fill="currentColor"/>
<path d="M25.9926 24.1393C25.0331 25.162 24.3009 26.4009 23.8772 27.7729H20.3562C20.5341 26.9643 20.7909 26.1847 21.1153 25.4413H22.7037C22.7037 24.9749 22.5347 24.5897 22.1945 24.2834C22.0866 24.1864 21.9647 24.1075 21.8387 24.0423C21.8363 24.0423 21.8362 24.0399 21.8341 24.0399C22.3521 23.1613 22.9764 22.3503 23.6859 21.625C23.7491 21.6588 23.812 21.6953 23.8732 21.7312C24.6887 22.2041 25.3238 22.855 25.779 23.6909C25.8602 23.8374 25.9318 23.9859 25.9926 24.1393Z" fill="currentColor"/>
<path d="M31.8055 28.8405C31.2977 28.415 31.2366 27.7536 31.3438 27.115C31.7799 24.9248 33.21 17.6449 33.21 17.6449C32.0971 17.6346 30.8224 17.7149 29.1939 18.2008L28.2825 22.7506L27.564 26.3679C27.2843 27.7898 27.142 29.2725 27.9376 30.4998C28.8989 32.0712 30.9115 32.7204 32.7289 32.4779L33.3882 29.2257C32.7726 29.3425 32.1863 29.2045 31.8055 28.8405Z" fill="currentColor"/>
<path d="M33.2089 17.6462C33.1943 17.7162 32.8914 19.2562 32.5294 21.1101C31.0283 21.1767 29.6176 21.5919 28.3767 22.2769L29.1928 18.2017C30.4891 17.8036 31.8543 17.6244 33.2089 17.6462Z" fill="currentColor"/>
<path fill-rule="evenodd" clip-rule="evenodd" d="M7.09717 8.625C7.09717 6.37271 8.92301 4.54688 11.1753 4.54688C13.4276 4.54688 15.2534 6.37274 15.2534 8.625V14.0625H12.5346V8.625C12.5346 7.87422 11.926 7.26562 11.1753 7.26562C10.4245 7.26562 9.81592 7.87425 9.81592 8.625V14.0625H7.09717V8.625Z" fill="currentColor"/>
<path fill-rule="evenodd" clip-rule="evenodd" d="M12.5346 8.625C12.5346 6.37268 14.3606 4.54688 16.6128 4.54688C18.8651 4.54688 20.6909 6.37274 20.6909 8.625V14.0625H17.9721V8.625C17.9721 7.87422 17.3635 7.26562 16.6128 7.26562C15.862 7.26562 15.2534 7.87428 15.2534 8.625V14.0625H12.5346V8.625Z" fill="currentColor"/>
<path fill-rule="evenodd" clip-rule="evenodd" d="M24.3159 5V6.8125C24.3159 7.81351 25.1274 8.625 26.1284 8.625C27.1294 8.625 27.9409 7.81351 27.9409 6.8125V5H30.6597V6.8125C30.6597 9.31505 28.631 11.3438 26.1284 11.3438C23.6258 11.3438 21.5971 9.31505 21.5971 6.8125V5H24.3159Z" fill="currentColor"/>
<path fill-rule="evenodd" clip-rule="evenodd" d="M24.7688 14.0625V9.98438H27.4876V14.0625H24.7688Z" fill="currentColor"/>
</svg>
