<svg width="40" height="40" viewBox="0 0 40 40" fill="none" xmlns="http://www.w3.org/2000/svg">
<path d="M12.5 20.75V25.25H27.5V20.75H12.5Z" fill="currentColor"/>
<path fill-rule="evenodd" clip-rule="evenodd" d="M6.60942 1.25L1.25 11.9688V30.5C1.25 35.0563 4.94365 38.75 9.5 38.75H30.5C35.0563 38.75 38.75 35.0564 38.75 30.5V11.9688L33.3906 1.25H6.60942ZM34.25 16.25H5.75V30.5C5.75 32.5711 7.42893 34.25 9.5 34.25H30.5C32.5711 34.25 34.25 32.5711 34.25 30.5V16.25ZM17.75 5.75V11.75H6.39058L9.39058 5.75H17.75ZM33.6094 11.75H22.25V5.75H30.6094L33.6094 11.75Z" fill="currentColor"/>
</svg>
