<svg width="41" height="40" viewBox="0 0 41 40" fill="none" xmlns="http://www.w3.org/2000/svg">
<g clip-path="url(#clip0_656_181170)">
<path fill-rule="evenodd" clip-rule="evenodd" d="M21.0118 11.6264C19.729 11.0951 18.3541 10.8216 16.9656 10.8216V7.07159C18.8466 7.07159 20.7091 7.44206 22.4468 8.16186C24.1846 8.88166 25.7635 9.93669 27.0935 11.2667C28.4236 12.5967 29.4786 14.1757 30.1984 15.9134C30.9182 17.6512 31.2887 19.5137 31.2887 21.3946H27.5387C27.5387 20.0062 27.2652 18.6313 26.7338 17.3485C26.2025 16.0657 25.4237 14.9002 24.4419 13.9184C23.4601 12.9366 22.2945 12.1578 21.0118 11.6264Z" fill="currentColor"/>
<path fill-rule="evenodd" clip-rule="evenodd" d="M23.7283 5.01327C21.5726 4.12034 19.2622 3.66077 16.9288 3.66077V-0.0892334C19.7546 -0.0892334 22.5527 0.467346 25.1633 1.54871C27.774 2.63008 30.1461 4.21508 32.1442 6.21324C34.1423 8.21133 35.7274 10.5834 36.8087 13.1941C37.8901 15.8048 38.4467 18.6028 38.4467 21.4286H34.6967C34.6967 19.0953 34.2371 16.7849 33.3442 14.6292C32.4513 12.4735 31.1425 10.5148 29.4926 8.86488C27.8427 7.21497 25.8839 5.90618 23.7283 5.01327Z" fill="currentColor"/>
<path fill-rule="evenodd" clip-rule="evenodd" d="M24.0711 21.4286V40.0001H2.64258V14.2858H16.9283C20.8731 14.2858 24.0711 17.4838 24.0711 21.4286ZM6.92847 31.4287V18.5715H9.78561V23.5715H19.7856V26.4287H9.78561V31.4287H6.92847ZM11.9285 31.4287V28.5715H14.7856V31.4287H11.9285ZM11.9285 21.4287V18.5715H16.9285C18.5064 18.5715 19.7856 19.8507 19.7856 21.4287H11.9285ZM16.9285 28.5715V31.4287H19.7856V28.5715H16.9285Z" fill="currentColor"/>
</g>
<defs>
<clipPath id="clip0_656_181170">
<rect width="40" height="40" fill="white" transform="translate(0.5)"/>
</clipPath>
</defs>
</svg>
