<svg width="41" height="40" viewBox="0 0 41 40" fill="none" xmlns="http://www.w3.org/2000/svg">
<path d="M9.97428 18.3333L7.4165 20C7.4165 20 7.83322 23.75 11.1665 27.0833L8.2499 30C2.4165 24.1667 2.4165 15.8333 2.4165 10.8333H9.97428V18.3333Z" fill="currentColor"/>
<path d="M19.9165 28.2755L18.2498 30.8333C18.2498 30.8333 14.4998 30.4166 11.1665 27.0833L8.2499 30C14.0832 35.8334 22.4165 35.8333 27.4165 35.8333V28.2755L19.9165 28.2755Z" fill="currentColor"/>
<path fill-rule="evenodd" clip-rule="evenodd" d="M19.083 25.8333H21.5832L24.083 21.6667H38.2496V5H13.2498V16.6667C13.2498 19.4281 15.4884 21.6667 18.2498 21.6667H19.083V25.8333ZM19.9165 15C20.837 15 21.5832 14.2538 21.5832 13.3333C21.5832 12.4129 20.837 11.6667 19.9165 11.6667C18.996 11.6667 18.2498 12.4129 18.2498 13.3333C18.2498 14.2538 18.996 15 19.9165 15ZM27.4165 13.3333C27.4165 14.2538 26.6703 15 25.7498 15C24.8294 15 24.0832 14.2538 24.0832 13.3333C24.0832 12.4129 24.8294 11.6667 25.7498 11.6667C26.6703 11.6667 27.4165 12.4129 27.4165 13.3333ZM31.5832 15C32.5036 15 33.2498 14.2538 33.2498 13.3333C33.2498 12.4129 32.5036 11.6667 31.5832 11.6667C30.6627 11.6667 29.9165 12.4129 29.9165 13.3333C29.9165 14.2538 30.6627 15 31.5832 15Z" fill="currentColor"/>
</svg>
