<svg viewBox="0 0 40 40" fill="none" xmlns="http://www.w3.org/2000/svg">
<path d="M24.4902 7.39181C22.6704 6.63799 20.7198 6.25 18.75 6.25V2.5C21.2123 2.5 23.6505 2.98498 25.9253 3.92726C28.2002 4.86953 30.2671 6.25065 32.0082 7.99175C33.7493 9.73285 35.1305 11.7998 36.0727 14.0747C37.015 16.3495 37.5 18.7877 37.5 21.25H33.75C33.75 19.2802 33.362 17.3296 32.6082 15.5097C31.8544 13.6899 30.7495 12.0363 29.3566 10.6434C27.9637 9.25052 26.3101 8.14563 24.4902 7.39181Z" fill="currentColor"/>
<path d="M21.6201 14.3209C20.7102 13.944 19.7349 13.75 18.75 13.75V10C20.2274 10 21.6903 10.291 23.0552 10.8564C24.4201 11.4217 25.6603 12.2504 26.7049 13.295C27.7496 14.3397 28.5783 15.5799 29.1436 16.9448C29.709 18.3097 30 19.7726 30 21.25H26.25C26.25 20.2651 26.056 19.2898 25.6791 18.3799C25.3022 17.4699 24.7497 16.6431 24.0533 15.9467C23.3569 15.2503 22.5301 14.6978 21.6201 14.3209Z" fill="currentColor"/>
<path d="M20.1851 17.7855C19.7301 17.597 19.2425 17.5 18.75 17.5V21.25H22.5C22.5 20.7575 22.403 20.2699 22.2145 19.8149C22.0261 19.36 21.7499 18.9466 21.4016 18.5983C21.0534 18.2501 20.64 17.9739 20.1851 17.7855Z" fill="currentColor"/>
<path d="M11.7755 16.7935L8.63636 18.8587C8.63636 18.8587 9.11168 23.1775 12.8113 27.1887C16.8225 30.8883 21.1413 31.3636 21.1413 31.3636L23.2065 28.2245H32.5V37.5C26.5685 37.5 16.8512 37.5 9.69084 31.218L9.65916 31.25C9.50745 31.0968 9.35896 30.9423 9.21361 30.7864C9.05772 30.641 8.90316 30.4925 8.74999 30.3408L8.78197 30.3092C2.5 23.1488 2.5 13.4315 2.5 7.50003L11.7755 7.5V16.7935Z" fill="currentColor"/>
</svg>
