<svg width="41" height="40" viewBox="0 0 41 40" fill="none" xmlns="http://www.w3.org/2000/svg">
<path d="M33.2498 37.5H35.75V32.5H38.6667V10H35.75V30H17.4167L15.75 32.5H29.9167L33.2498 37.5Z" fill="currentColor"/>
<path fill-rule="evenodd" clip-rule="evenodd" d="M12.4167 32.5H9.91646V27.5C6.23468 27.5 3.25 24.5153 3.25 20.8335V5H33.2498V27.5H15.7498L12.4167 32.5ZM19.9167 22.5C19.9167 23.4205 19.1705 24.1667 18.25 24.1667C17.3295 24.1667 16.5833 23.4205 16.5833 22.5C16.5833 21.5795 17.3295 20.8333 18.25 20.8333C19.1705 20.8333 19.9167 21.5795 19.9167 22.5ZM18.8333 15.5C17.6792 16.3656 17 17.724 17 19.1667H19.5C19.5 18.5109 19.8087 17.8934 20.3333 17.5L21.128 16.904C22.2015 16.0988 22.8333 14.8353 22.8333 13.4934C22.8333 11.3433 21.2323 9.52973 19.0989 9.26305L18.8185 9.228C16.0829 8.88605 13.6667 11.0191 13.6667 13.7759V14.1667H16.1667V13.7759C16.1667 12.5228 17.265 11.5533 18.5084 11.7087L18.7888 11.7437C19.6712 11.854 20.3333 12.6041 20.3333 13.4934C20.3333 14.0484 20.072 14.571 19.628 14.904L18.8333 15.5Z" fill="currentColor"/>
</svg>
