<svg width="18" height="20" viewBox="0 0 18 20" fill="none" xmlns="http://www.w3.org/2000/svg">
<path fill-rule="evenodd" clip-rule="evenodd" d="M2.625 8.875V6.25C2.625 4.38604 4.13604 2.875 6 2.875H8.63604C9.53114 2.875 10.3896 3.23058 11.0225 3.86351L13.784 6.625H9.75009V8.875H17.6251L17.6251 1L15.3751 0.999999L15.3751 5.03409L12.6135 2.27252C11.5586 1.21763 10.1279 0.625 8.63604 0.625H6C2.8934 0.625 0.375 3.1434 0.375 6.25V8.875H2.625Z" fill="currentColor"/>
<path fill-rule="evenodd" clip-rule="evenodd" d="M15.3752 11.125V13.75C15.3752 15.614 13.8641 17.125 12.0002 17.125H9.36413C8.46903 17.125 7.61058 16.7694 6.97765 16.1365L4.21616 13.375H8.25009V11.125H0.375096L0.375084 19L2.62508 19L2.62509 14.9659L5.38666 17.7275C6.44155 18.7824 7.87229 19.375 9.36413 19.375H12.0002C15.1068 19.375 17.6252 16.8566 17.6252 13.75V11.125H15.3752Z" fill="currentColor"/>
</svg>
