<svg width="41" height="40" viewBox="0 0 41 40" fill="none" xmlns="http://www.w3.org/2000/svg">
<path fill-rule="evenodd" clip-rule="evenodd" d="M16.125 39.375H39.875V0.625H16.125V6.875H19.875V4.375H36.125V35.625H19.875V33.125H16.125V39.375Z" fill="currentColor"/>
<path d="M32.375 3.75H23.625V6.875H32.375V3.75Z" fill="currentColor"/>
<path fill-rule="evenodd" clip-rule="evenodd" d="M25.9734 20L21.0492 24.9242L23.7008 27.5758L31.2767 20L23.7008 12.4242L21.0492 15.0758L25.9734 20Z" fill="currentColor"/>
<path fill-rule="evenodd" clip-rule="evenodd" d="M16.75 18.125H27.375V21.875H16.75V18.125Z" fill="currentColor"/>
<path fill-rule="evenodd" clip-rule="evenodd" d="M1.125 16.25C1.125 13.1434 3.6434 10.625 6.75 10.625H13.625V14.375H6.75C5.71447 14.375 4.875 15.2145 4.875 16.25C4.875 17.2855 5.71447 18.125 6.75 18.125H8V21.875H6.75C3.6434 21.875 1.125 19.3566 1.125 16.25Z" fill="currentColor"/>
<path fill-rule="evenodd" clip-rule="evenodd" d="M9.25 21.875C10.2855 21.875 11.125 22.7145 11.125 23.75C11.125 24.7855 10.2855 25.625 9.25 25.625H2.375V29.375H9.25C12.3566 29.375 14.875 26.8566 14.875 23.75C14.875 20.6434 12.3566 18.125 9.25 18.125H8V21.875H9.25Z" fill="currentColor"/>
<path fill-rule="evenodd" clip-rule="evenodd" d="M6.125 13.75L6.125 7.5H9.875V13.75H6.125Z" fill="currentColor"/>
<path fill-rule="evenodd" clip-rule="evenodd" d="M6.125 32.5L6.125 26.25H9.875V32.5H6.125Z" fill="currentColor"/>
</svg>
