<svg width="40" height="40" viewBox="0 0 40 40" fill="none" xmlns="http://www.w3.org/2000/svg">
<path d="M9.375 18.125V13.75C9.375 10.6434 11.8934 8.125 15 8.125H19.3934C20.8852 8.125 22.316 8.71763 23.3709 9.77252L27.9733 14.375H21.2501V18.125H34.3751L34.3751 5L30.6251 5L30.6251 11.7235L26.0225 7.12087C24.2644 5.36272 21.8798 4.375 19.3934 4.375H15C9.82233 4.375 5.625 8.57233 5.625 13.75V18.125H9.375Z" fill="currentColor"/>
<path d="M30.6253 21.875V26.25C30.6253 29.3566 28.1069 31.875 25.0003 31.875H20.6069C19.115 31.875 17.6843 31.2824 16.6294 30.2275L12.0269 25.625H18.7501V21.875H5.62516L5.62514 35L9.37514 35L9.37515 28.2765L13.9778 32.8791C15.7359 34.6373 18.1205 35.625 20.6069 35.625H25.0003C30.178 35.625 34.3753 31.4277 34.3753 26.25V21.875H30.6253Z" fill="currentColor"/>
</svg>
