<svg width="40" height="40" viewBox="0 0 40 40" fill="none" xmlns="http://www.w3.org/2000/svg">
<g clip-path="url(#clip0_964_273036)">
<path fill-rule="evenodd" clip-rule="evenodd" d="M25.8366 29.3723C23.1492 31.3389 19.8352 32.5 16.25 32.5C7.27537 32.5 0 25.2246 0 16.25C0 7.27537 7.27537 0 16.25 0C25.2246 0 32.5 7.27537 32.5 16.25C32.5 19.8353 31.3389 23.1494 29.3722 25.8368L39.2676 35.7322L35.732 39.2678L25.8366 29.3723ZM28.75 16.25C28.75 23.1536 23.1536 28.75 16.25 28.75C9.34644 28.75 3.75 23.1536 3.75 16.25C3.75 9.34644 9.34644 3.75 16.25 3.75C23.1536 3.75 28.75 9.34644 28.75 16.25Z" fill="black"/>
</g>
<defs>
<clipPath id="clip0_964_273036">
<rect width="40" height="40" fill="white"/>
</clipPath>
</defs>
</svg>
