<svg width="40" height="40" viewBox="0 0 40 40" fill="none" xmlns="http://www.w3.org/2000/svg">
<path d="M11.429 37.1429H13.929L18.2147 17.8571H31.429V12.8571H4.28613V30C4.28613 33.9449 7.4841 37.1429 11.429 37.1429Z" fill="currentColor"/>
<path fill-rule="evenodd" clip-rule="evenodd" d="M16.429 37.1429H37.1435L33.572 20H20.0004L16.429 37.1429ZM28.929 24.6429V22.1429H31.0718V24.6429C31.0718 27.0098 29.1531 28.9286 26.7861 28.9286C24.4192 28.9286 22.5004 27.0098 22.5004 24.6429V22.1429H24.6433V24.6429C24.6433 25.8263 25.6027 26.7857 26.7861 26.7857C27.9696 26.7857 28.929 25.8263 28.929 24.6429Z" fill="currentColor"/>
<path fill-rule="evenodd" clip-rule="evenodd" d="M21.7861 12.8571V10C21.7861 7.83031 20.0273 6.07143 17.8576 6.07143C15.6879 6.07143 13.929 7.83031 13.929 10L13.929 12.8571H10.3576V10C10.3576 5.85786 13.7154 2.5 17.8576 2.5C21.9997 2.5 25.3576 5.85787 25.3576 10V12.8571H21.7861Z" fill="currentColor"/>
</svg>
