<svg width="41" height="40" viewBox="0 0 41 40" fill="none" xmlns="http://www.w3.org/2000/svg">
<path d="M3.25 13.3333L5.75 5H35.75L38.25 13.3333H3.25Z" fill="currentColor"/>
<path d="M14.9167 15.8333H26.5833C26.5833 19.055 23.9717 21.6667 20.75 21.6667C17.5283 21.6667 14.9167 19.055 14.9167 15.8333Z" fill="currentColor"/>
<path d="M3.25 15.8333H14.9167C14.9167 19.055 12.305 21.6667 9.08333 21.6667C5.86167 21.6667 3.25 19.055 3.25 15.8333Z" fill="currentColor"/>
<path d="M26.5833 15.8333H38.25C38.25 19.055 35.6383 21.6667 32.4167 21.6667C29.195 21.6667 26.5833 19.055 26.5833 15.8333Z" fill="currentColor"/>
<path d="M9.08333 24.1667C7.88597 24.1667 6.75413 23.8861 5.75 23.3871V35H35.75V23.3871C34.7459 23.8861 33.614 24.1667 32.4167 24.1667V30.8333H9.08333V24.1667Z" fill="currentColor"/>
</svg>
