<svg width="40" height="40" viewBox="0 0 40 40" fill="none" xmlns="http://www.w3.org/2000/svg">
<path fill-rule="evenodd" clip-rule="evenodd" d="M30.8333 35C35.4357 35 39.1667 31.269 39.1667 26.6667C39.1667 22.0643 35.4357 18.3333 30.8333 18.3333C26.231 18.3333 22.5 22.0643 22.5 26.6667C22.5 31.269 26.231 35 30.8333 35ZM35.9407 24.1565L34.0593 22.5102L28.9893 28.3045L26.5833 26.5L25.0833 28.5L29.344 31.6955L35.9407 24.1565Z" fill="currentColor"/>
<path fill-rule="evenodd" clip-rule="evenodd" d="M20 25.8333C20 20.3105 24.4772 15.8333 30 15.8333V5H0V21.6667C0 26.269 3.73096 30 8.33333 30H20V25.8333ZM20 10L5 10V13.3333H10.8333L10.8333 25H14.1667L14.1667 13.3333H20V10ZM16.6667 15.8333H20V19.1667H16.6667V15.8333ZM5 15.8333H8.33333V25C6.49238 25 5 23.5076 5 21.6667V15.8333Z" fill="currentColor"/>
</svg>
