<svg width="40" height="41" viewBox="0 0 40 41" fill="none" xmlns="http://www.w3.org/2000/svg">
<path fill-rule="evenodd" clip-rule="evenodd" d="M30 16.2375L20 26.2375V30.4042H8.33333C3.73096 30.4042 0 26.6732 0 22.0708V5.40417H30V16.2375ZM5 10.4042L20 10.4042V13.7375L14.1667 13.7375L14.1667 25.4042H10.8333L10.8333 13.7375H5V10.4042ZM20 16.2375H16.6667V19.5708H20V16.2375ZM8.33333 16.2375H5L5 22.0708C5 23.9118 6.49238 25.4042 8.33333 25.4042L8.33333 16.2375Z" fill="currentColor"/>
<path d="M23.2828 27.0203L25.0505 28.788L28.75 25.0886V35.4042H31.25V25.0886L34.9494 28.788L36.7172 27.0203L30 20.3031L23.2828 27.0203Z" fill="currentColor"/>
</svg>
