<svg width="40" height="40" viewBox="0 0 40 40" fill="none" xmlns="http://www.w3.org/2000/svg">
<path d="M22.5 25H37.5V35H22.5V25Z" fill="currentColor"/>
<path fill-rule="evenodd" clip-rule="evenodd" d="M32.9167 25V24.1667C32.9167 22.5558 31.6108 21.25 30 21.25C28.3892 21.25 27.0833 22.5558 27.0833 24.1667V25H24.5833V24.1667C24.5833 21.1751 27.0085 18.75 30 18.75C32.9915 18.75 35.4167 21.1751 35.4167 24.1667V25H32.9167Z" fill="currentColor"/>
<path fill-rule="evenodd" clip-rule="evenodd" d="M20 25.8333C20 20.3105 24.4772 15.8333 30 15.8333V5H0V21.6667C0 26.269 3.73096 30 8.33333 30H20V25.8333ZM20 10L5 10V13.3333H10.8333L10.8333 25H14.1667L14.1667 13.3333H20V10ZM16.6667 15.8333H20V19.1667H16.6667V15.8333ZM5 15.8333H8.33333V25C6.49238 25 5 23.5076 5 21.6667V15.8333Z" fill="currentColor"/>
</svg>
