<svg width="40" height="40" viewBox="0 0 40 40" fill="none" xmlns="http://www.w3.org/2000/svg">
<path fill-rule="evenodd" clip-rule="evenodd" d="M37.5506 24.1161L35.7828 25.8839L32.2473 22.3483C31.544 21.6451 30.5902 21.25 29.5956 21.25H29.1667C27.0956 21.25 25.4167 22.9289 25.4167 25V25.8333H22.9167V25C22.9167 21.5482 25.7149 18.75 29.1667 18.75H29.5956C31.2532 18.75 32.8429 19.4085 34.015 20.5806L37.5506 24.1161Z" fill="currentColor"/>
<path fill-rule="evenodd" clip-rule="evenodd" d="M23.2828 30.0506L25.0506 28.2828L28.5861 31.8183C29.2893 32.5216 30.2432 32.9167 31.2377 32.9167H31.6667C33.7377 32.9167 35.4167 31.2377 35.4167 29.1667V28.3333H37.9167V29.1667C37.9167 32.6184 35.1184 35.4167 31.6667 35.4167H31.2377C29.5801 35.4167 27.9904 34.7582 26.8183 33.5861L23.2828 30.0506Z" fill="currentColor"/>
<path fill-rule="evenodd" clip-rule="evenodd" d="M22.9167 27.9167H30V30.4167H25.4167L25.4167 35H22.9167L22.9167 27.9167Z" fill="currentColor"/>
<path fill-rule="evenodd" clip-rule="evenodd" d="M37.9167 26.25H30.8333V23.75H35.4167L35.4167 19.1667L37.9167 19.1667L37.9167 26.25Z" fill="currentColor"/>
<path fill-rule="evenodd" clip-rule="evenodd" d="M20 25.8333C20 20.3105 24.4772 15.8333 30 15.8333V5H0V21.6667C0 26.269 3.73096 30 8.33333 30H20V25.8333ZM20 10L5 10V13.3333H10.8333L10.8333 25H14.1667L14.1667 13.3333H20V10ZM16.6667 15.8333H20V19.1667H16.6667V15.8333ZM5 15.8333H8.33333V25C6.49238 25 5 23.5076 5 21.6667V15.8333Z" fill="currentColor"/>
</svg>
