<svg width="41" height="40" viewBox="0 0 41 40" fill="none" xmlns="http://www.w3.org/2000/svg">
<path d="M33.2498 37.5H35.75V32.5H38.6667V10H35.75V30H17.4167L15.75 32.5H29.9167L33.2498 37.5Z" fill="currentColor"/>
<path fill-rule="evenodd" clip-rule="evenodd" d="M12.4167 32.5H9.91646V27.5C6.23468 27.5 3.25 24.5153 3.25 20.8335V5H33.2498V27.5H15.7498L12.4167 32.5ZM6.58333 14.1667C6.58333 12.786 7.70262 11.6667 9.08333 11.6667H11.5833V13.3333H9.08333C8.6231 13.3333 8.25 13.7064 8.25 14.1667C8.25 14.6269 8.6231 15 9.08333 15H9.91667C11.2974 15 12.4167 16.1193 12.4167 17.5C12.4167 18.8807 11.2974 20 9.91667 20H7.41667V18.3333H9.91667C10.3769 18.3333 10.75 17.9602 10.75 17.5C10.75 17.0398 10.3769 16.6667 9.91667 16.6667H9.08333C7.70262 16.6667 6.58333 15.5474 6.58333 14.1667ZM26.5833 11.6667C25.2026 11.6667 24.0833 12.786 24.0833 14.1667C24.0833 15.5474 25.2026 16.6667 26.5833 16.6667H27.4167C27.8769 16.6667 28.25 17.0398 28.25 17.5C28.25 17.9602 27.8769 18.3333 27.4167 18.3333H24.9167V20H27.4167C28.7974 20 29.9167 18.8807 29.9167 17.5C29.9167 16.1193 28.7974 15 27.4167 15H26.5833C26.1231 15 25.75 14.6269 25.75 14.1667C25.75 13.7064 26.1231 13.3333 26.5833 13.3333H29.0833V11.6667H26.5833ZM13.25 14.5833C13.25 12.9725 14.5558 11.6667 16.1667 11.6667C16.9828 11.6667 17.7206 12.0019 18.25 12.5421C18.7794 12.0019 19.5172 11.6667 20.3333 11.6667C21.9442 11.6667 23.25 12.9725 23.25 14.5833V20H21.5833V14.5833C21.5833 13.893 21.0237 13.3333 20.3333 13.3333C19.643 13.3333 19.0833 13.893 19.0833 14.5833V20H17.4167V14.5833C17.4167 13.893 16.857 13.3333 16.1667 13.3333C15.4763 13.3333 14.9167 13.893 14.9167 14.5833V20H13.25V14.5833Z" fill="currentColor"/>
</svg>
