<svg width="24" height="24" viewBox="0 0 24 24" fill="none" xmlns="http://www.w3.org/2000/svg">
<path d="M11.5383 1.10996C11.7091 0.699318 12.2909 0.699318 12.4617 1.10996L15.0568 7.34933C15.1288 7.52245 15.2916 7.64073 15.4785 7.65571L22.2144 8.19573C22.6577 8.23127 22.8375 8.78452 22.4997 9.07386L17.3676 13.47C17.2252 13.592 17.1631 13.7834 17.2066 13.9658L18.7745 20.5389C18.8777 20.9715 18.4071 21.3134 18.0275 21.0816L12.2606 17.5592C12.1006 17.4615 11.8994 17.4615 11.7394 17.5592L5.97249 21.0816C5.59294 21.3134 5.12231 20.9715 5.22551 20.5389L6.79343 13.9658C6.83694 13.7834 6.77475 13.592 6.63236 13.47L1.5003 9.07386C1.16253 8.78452 1.34229 8.23127 1.78562 8.19573L8.52154 7.65571C8.70843 7.64073 8.87124 7.52245 8.94324 7.34933L11.5383 1.10996Z" fill="currentColor"/>
</svg>
