<svg width="15" height="15" viewBox="0 0 15 15" fill="none" xmlns="http://www.w3.org/2000/svg">
<path d="M7.05163 0.908492C7.23504 0.536869 7.76496 0.53687 7.94837 0.908493L9.73481 4.52821C9.80764 4.67578 9.94842 4.77807 10.1113 4.80173L14.1059 5.38218C14.516 5.44177 14.6797 5.94576 14.383 6.23503L11.4925 9.05258C11.3746 9.16745 11.3208 9.33295 11.3487 9.49515L12.031 13.4736C12.1011 13.8821 11.6724 14.1935 11.3055 14.0007L7.73267 12.1223C7.58701 12.0457 7.41299 12.0457 7.26733 12.1223L3.69445 14.0007C3.32764 14.1935 2.89892 13.8821 2.96898 13.4736L3.65134 9.49515C3.67916 9.33295 3.62538 9.16745 3.50754 9.05258L0.617022 6.23503C0.320263 5.94576 0.484019 5.44177 0.894129 5.38218L4.88873 4.80173C5.05158 4.77807 5.19236 4.67578 5.26519 4.52821L7.05163 0.908492Z" fill="currentColor"/>
</svg>
