<svg width="40" height="40" viewBox="0 0 40 40" fill="none" xmlns="http://www.w3.org/2000/svg">
<path fill-rule="evenodd" clip-rule="evenodd" d="M20.0004 2.5H35.0004L37.5004 5V20L19.3692 38.1312C17.4167 40.0838 14.2508 40.0838 12.2982 38.1312L1.86925 27.7022C-0.0833709 25.7496 -0.0833691 22.5838 1.86925 20.6312L20.0004 2.5ZM35.0004 7.5C35.0004 8.88075 33.8812 10 32.5004 10C31.1197 10 30.0004 8.88075 30.0004 7.5C30.0004 6.11929 31.1197 5 32.5004 5C33.8812 5 35.0004 6.11929 35.0004 7.5ZM21.667 11.6667L25.7168 17.0665C28.6669 20.9999 26.7392 26.3566 22.5519 27.9007C23.3094 26.8962 23.4771 25.4634 22.702 24.2454L20.0004 20L17.2989 24.2454C16.5466 25.4276 16.6824 26.8121 17.3836 27.811C13.3351 26.1497 11.5403 20.871 14.4897 17.0141L16.6671 14.1667L18.3337 16.6667L21.667 11.6667Z" fill="currentColor"/>
</svg>
