<svg width="24" height="24" viewBox="0 0 24 24" fill="none" xmlns="http://www.w3.org/2000/svg">
<path d="M12 2C6.49 2 2 6.49 2 12C2 17.51 6.49 22 12 22C17.51 22 22 17.51 22 12C22 6.49 17.51 2 12 2Z" fill="currentColor"/>
<path d="M11.1104 15.37L16.7804 9.69998C17.0704 9.39998 17.0704 8.92999 16.7804 8.63999C16.4904 8.34999 16.0104 8.34999 15.7204 8.63999L10.5804 13.78L8.28043 11.48C7.99043 11.19 7.51043 11.19 7.22043 11.48C6.93043 11.77 6.93043 12.25 7.22043 12.54L10.0504 15.37C10.1904 15.51 10.3804 15.59 10.5804 15.59C10.7804 15.59 10.9704 15.51 11.1104 15.37Z" fill="white"/>
</svg>
