<svg width="40" height="40" viewBox="0 0 40 40" fill="none" xmlns="http://www.w3.org/2000/svg">
<path d="M13.75 20.625V24.375H26.25V20.625H13.75Z" fill="currentColor"/>
<path fill-rule="evenodd" clip-rule="evenodd" d="M8.84119 4.375L4.375 13.3074V28.75C4.375 32.547 7.45304 35.625 11.25 35.625H28.75C32.547 35.625 35.625 32.547 35.625 28.75V13.3074L31.1588 4.375H8.84119ZM31.875 16.875H8.125V28.75C8.125 30.4759 9.52411 31.875 11.25 31.875H28.75C30.4759 31.875 31.875 30.4759 31.875 28.75V16.875ZM18.125 8.125V13.125H8.65881L11.1588 8.125H18.125ZM31.3412 13.125H21.875V8.125H28.8412L31.3412 13.125Z" fill="currentColor"/>
</svg>
