<svg width="40" height="40" viewBox="0 0 40 40" fill="none" xmlns="http://www.w3.org/2000/svg">
<path fill-rule="evenodd" clip-rule="evenodd" d="M9.98266 9.98269C8.50809 11.4572 7.37725 13.2391 6.67085 15.2012C5.96446 17.1633 5.69996 19.2571 5.89621 21.3332C6.09246 23.4093 6.74462 25.4164 7.80616 27.2114C8.86771 29.0064 10.3124 30.5448 12.0371 31.7169C13.7619 32.8891 15.7242 33.6661 17.7838 33.9923C19.8435 34.3185 21.9499 34.186 23.9523 33.6042C25.9549 33.0224 27.8043 32.0056 29.3685 30.6266C30.9328 29.2475 32.1733 27.5401 33.0015 25.6263L36.0607 26.95C35.0377 29.3142 33.5053 31.4234 31.5729 33.1269C29.6406 34.8305 27.3561 36.0865 24.8823 36.8051C22.4086 37.5239 19.8067 37.6875 17.2624 37.2846C14.7181 36.8816 12.2941 35.9219 10.1635 34.4739C8.03292 33.0259 6.2483 31.1255 4.93702 28.9082C3.62573 26.6909 2.8201 24.2115 2.57767 21.6469C2.33525 19.0823 2.66199 16.4958 3.53458 14.0721C4.40718 11.6484 5.80411 9.44712 7.62568 7.62562L9.98266 9.98269Z" fill="currentColor"/>
<path d="M31.6176 20.9272L29.2606 23.2842L13.65 8.78866C13.0606 8.24133 12.5514 7.61351 12.1376 6.92377L11.8512 6.44643C11.3473 5.60651 11.4796 4.53138 12.1722 3.83877C12.8648 3.14615 13.9399 3.01379 14.7798 3.51775L15.2572 3.80416C15.9469 4.21799 16.5747 4.72717 17.1221 5.31659L31.6176 20.9272Z" fill="currentColor"/>
<path d="M34.5639 8.55282L22.7788 14.4454L16.8863 26.2305L15.1185 24.4627L18.0648 9.73132L32.7962 6.78508L34.5639 8.55282Z" fill="currentColor"/>
<path d="M35.7424 19.1594L30.4391 22.1057L27.4928 27.409L25.7251 25.6412L26.9036 18.5702L33.9746 17.3917L35.7424 19.1594Z" fill="currentColor"/>
</svg>
