<svg width="40" height="40" viewBox="0 0 40 40" fill="none" xmlns="http://www.w3.org/2000/svg">
<g clip-path="url(#clip0_964_273037)">
<path fill-rule="evenodd" clip-rule="evenodd" d="M30.8333 0.833333C24.4935 0.833333 20.7628 7.95368 24.3715 13.1662L30.8333 22.5L37.2952 13.1662C40.9039 7.95369 37.1731 0.833333 30.8333 0.833333ZM30.8333 11.6667C32.6743 11.6667 34.1667 10.1743 34.1667 8.33333C34.1667 6.49238 32.6743 5 30.8333 5C28.9924 5 27.5 6.49238 27.5 8.33333C27.5 10.1743 28.9924 11.6667 30.8333 11.6667Z" fill="currentColor"/>
<path d="M15 23.3333L15.8333 20.8333L12.9167 17.5H6.66667L4.16667 13.3333L9.16667 4.16667L20 1.25V14.1667H17.5L16.6667 16.6667L20 20H25L27.5 23.3333V25.8333L21.6667 34.1667H17.5V30L13.3333 25.8333V23.3333H15Z" fill="currentColor"/>
<path fill-rule="evenodd" clip-rule="evenodd" d="M20 3.33333C16.7037 3.33333 13.4813 4.31081 10.7405 6.14217C7.99968 7.97353 5.86348 10.5765 4.60202 13.6219C3.34056 16.6674 3.0105 20.0185 3.65359 23.2515C4.29667 26.4845 5.88402 29.4542 8.21489 31.7851C10.5458 34.116 13.5155 35.7033 16.7485 36.3464C19.9815 36.9895 23.3326 36.6594 26.3781 35.398C29.4235 34.1365 32.0265 32.0003 33.8578 29.2595C35.6892 26.5187 36.6667 23.2963 36.6667 20H40C40 23.9556 38.827 27.8224 36.6294 31.1114C34.4318 34.4004 31.3082 36.9638 27.6537 38.4776C23.9991 39.9913 19.9778 40.3874 16.0982 39.6157C12.2186 38.844 8.65492 36.9392 5.85787 34.1421C3.06082 31.3451 1.15601 27.7814 0.384303 23.9018C-0.387401 20.0222 0.00866572 16.0009 1.52242 12.3463C3.03617 8.69181 5.59962 5.56823 8.8886 3.37061C12.1776 1.17298 16.0444 0 20 0V3.33333Z" fill="currentColor"/>
</g>
<defs>
<clipPath id="clip0_964_273037">
<rect width="40" height="40" fill="white"/>
</clipPath>
</defs>
</svg>
