<svg width="32" height="32" viewBox="0 0 32 32" fill="none" xmlns="http://www.w3.org/2000/svg">
<path fill-rule="evenodd" clip-rule="evenodd" d="M29.091 7.1184C28.1273 7.58652 27.0922 7.90153 26.0057 8.04362C27.1154 7.31666 27.9662 6.16563 28.367 4.79322C27.3298 5.46621 26.1799 5.95526 24.9554 6.21961C23.9757 5.07739 22.58 4.36365 21.0354 4.36365C18.0689 4.36365 15.6643 6.99503 15.6643 10.2388C15.6643 10.6992 15.7126 11.1486 15.8032 11.5771C11.3394 11.3326 7.38207 8.99308 4.73177 5.43757C4.27058 6.30552 4.00575 7.31446 4.00575 8.39278C4.00575 10.4305 4.9533 12.2292 6.39425 13.2822C5.51417 13.2513 4.68545 12.987 3.96145 12.5475C3.96145 12.5728 3.96145 12.596 3.96145 12.6213C3.96145 15.4686 5.81223 17.8433 8.2702 18.3819C7.8201 18.5163 7.34481 18.5879 6.85443 18.5879C6.50904 18.5879 6.17171 18.5504 5.84445 18.4832C6.52817 20.8172 8.51187 22.5168 10.8621 22.5642C9.02441 24.1403 6.70842 25.0799 4.19103 25.0799C3.75804 25.0799 3.33009 25.0524 2.90918 24.9973C5.2866 26.6638 8.10909 27.6364 11.143 27.6364C16.2015 27.6364 21.0259 25.8966 23.6125 22.5642C26.0781 19.3877 26.4246 14.7086 26.4246 10.9195C26.4246 10.6651 26.4195 10.4118 26.4095 10.1595C27.4597 9.33013 28.371 8.29586 29.091 7.1184Z" fill="currentColor"/>
</svg>
