<svg width="40" height="40" viewBox="0 0 40 40" fill="none" xmlns="http://www.w3.org/2000/svg">
<path fill-rule="evenodd" clip-rule="evenodd" d="M16.25 28.75C23.1536 28.75 28.75 23.1536 28.75 16.25C28.75 9.34644 23.1536 3.75 16.25 3.75C9.34644 3.75 3.75 9.34644 3.75 16.25C3.75 23.1536 9.34644 28.75 16.25 28.75ZM16.25 32.5C25.2246 32.5 32.5 25.2246 32.5 16.25C32.5 7.27537 25.2246 0 16.25 0C7.27537 0 0 7.27537 0 16.25C0 25.2246 7.27537 32.5 16.25 32.5Z" fill="currentColor"/>
<path fill-rule="evenodd" clip-rule="evenodd" d="M23.0806 27.5L35.2903 39.7097L39.7097 35.2903L27.5 23.0806L23.0806 27.5Z" fill="currentColor"/>
</svg>
