<svg width="40" height="40" viewBox="0 0 40 40" fill="none" xmlns="http://www.w3.org/2000/svg">
<path d="M40 31.6665L7.5 31.6665C3.35786 31.6665 0 28.3086 0 24.1665L0 6.6665L40 6.6665V31.6665Z" fill="#EA0029"/>
<path d="M8.23283 24.7376L4.66797 11.6665H7.25928L10.6447 24.0799C10.8122 24.6939 11.6832 24.6939 11.8507 24.0799L15.2362 11.6665H17.8275L14.2626 24.7377C13.4252 27.808 9.07019 27.808 8.23283 24.7376Z" fill="white"/>
<path fill-rule="evenodd" clip-rule="evenodd" d="M24.9978 26.6665H27.4978V21.6665H31.2478C34.0092 21.6665 36.2478 19.4279 36.2478 16.6665C36.2478 13.9051 34.0092 11.6665 31.2478 11.6665H24.9978V26.6665ZM31.2478 19.1665H27.4978V14.1665H31.2478C32.6285 14.1665 33.7478 15.2858 33.7478 16.6665C33.7478 18.0472 32.6285 19.1665 31.2478 19.1665Z" fill="white"/>
<path d="M19.9978 11.6665V26.6665H22.4978V11.6665L19.9978 11.6665Z" fill="white"/>
</svg>
